<ttFont>
    <TTGlyph name="A" xMin="-5" yMin="0" xMax="668" yMax="655">
      <contour>
        <pt x="-5" y="0" on="1"/>
        <pt x="-5" y="32" on="0"/>
        <pt x="11" y="39" on="1"/>
        <pt x="73" y="62" on="1"/>
        <pt x="281" y="618" on="1"/>
        <pt x="295" y="655" on="0"/>
        <pt x="321" y="655" on="1"/>
        <pt x="337" y="655" on="0"/>
        <pt x="353" y="648" on="1"/>
        <pt x="582" y="67" on="1"/>
        <pt x="668" y="46" on="1"/>
        <pt x="668" y="26" on="0"/>
        <pt x="660" y="8" on="0"/>
        <pt x="649" y="0" on="1"/>
        <pt x="412" y="0" on="1"/>
        <pt x="412" y="34" on="0"/>
        <pt x="428" y="39" on="1"/>
        <pt x="489" y="66" on="1"/>
        <pt x="431" y="215" on="1"/>
        <pt x="191" y="215" on="1"/>
        <pt x="135" y="67" on="1"/>
        <pt x="224" y="46" on="1"/>
        <pt x="224" y="26" on="0"/>
        <pt x="216" y="8" on="0"/>
        <pt x="205" y="0" on="1"/>
      </contour>
      <contour>
        <pt x="210" y="267" on="1"/>
        <pt x="410" y="267" on="1"/>
        <pt x="308" y="529" on="1"/>
      </contour>
    </TTGlyph>
    <TTGlyph name="AE" xMin="-36" yMin="0" xMax="831" yMax="641">
      <contour>
        <pt x="-36" y="0" on="1"/>
        <pt x="-36" y="34" on="0"/>
        <pt x="-20" y="40" on="1"/>
        <pt x="42" y="63" on="1"/>
        <pt x="433" y="574" on="1"/>
        <pt x="354" y="595" on="1"/>
        <pt x="354" y="628" on="0"/>
        <pt x="373" y="641" on="1"/>
        <pt x="800" y="641" on="1"/>
        <pt x="800" y="488" on="1"/>
        <pt x="766" y="488" on="0"/>
        <pt x="761" y="504" on="1"/>
        <pt x="728" y="595" on="1"/>
        <pt x="525" y="579" on="1"/>
        <pt x="525" y="333" on="1"/>
        <pt x="695" y="333" on="1"/>
        <pt x="715" y="393" on="1"/>
        <pt x="732" y="393" on="0"/>
        <pt x="745" y="387" on="0"/>
        <pt x="754" y="377" on="1"/>
        <pt x="754" y="237" on="1"/>
        <pt x="745" y="227" on="0"/>
        <pt x="732" y="221" on="0"/>
        <pt x="715" y="221" on="1"/>
        <pt x="695" y="281" on="1"/>
        <pt x="525" y="281" on="1"/>
        <pt x="525" y="67" on="1"/>
        <pt x="754" y="46" on="1"/>
        <pt x="785" y="168" on="1"/>
        <pt x="805" y="168" on="0"/>
        <pt x="823" y="160" on="0"/>
        <pt x="831" y="149" on="1"/>
        <pt x="831" y="0" on="1"/>
        <pt x="360" y="0" on="1"/>
        <pt x="360" y="34" on="0"/>
        <pt x="376" y="39" on="1"/>
        <pt x="439" y="62" on="1"/>
        <pt x="439" y="281" on="1"/>
        <pt x="282" y="281" on="1"/>
        <pt x="118" y="67" on="1"/>
        <pt x="208" y="46" on="1"/>
        <pt x="208" y="26" on="0"/>
        <pt x="200" y="9" on="0"/>
        <pt x="188" y="0" on="1"/>
      </contour>
      <contour>
        <pt x="321" y="333" on="1"/>
        <pt x="438" y="333" on="1"/>
        <pt x="438" y="486" on="1"/>
      </contour>
    </TTGlyph>
    <TTGlyph name="Aacute" xMin="-5" yMin="0" xMax="668" yMax="858">
      <contour>
        <pt x="-5" y="0" on="1"/>
        <pt x="-5" y="32" on="0"/>
        <pt x="11" y="39" on="1"/>
        <pt x="73" y="62" on="1"/>
        <pt x="281" y="618" on="1"/>
        <pt x="295" y="655" on="0"/>
        <pt x="321" y="655" on="1"/>
        <pt x="337" y="655" on="0"/>
        <pt x="353" y="648" on="1"/>
        <pt x="582" y="67" on="1"/>
        <pt x="668" y="46" on="1"/>
        <pt x="668" y="26" on="0"/>
        <pt x="660" y="8" on="0"/>
        <pt x="649" y="0" on="1"/>
        <pt x="412" y="0" on="1"/>
        <pt x="412" y="34" on="0"/>
        <pt x="428" y="39" on="1"/>
        <pt x="489" y="66" on="1"/>
        <pt x="431" y="215" on="1"/>
        <pt x="191" y="215" on="1"/>
        <pt x="135" y="67" on="1"/>
        <pt x="224" y="46" on="1"/>
        <pt x="224" y="26" on="0"/>
        <pt x="216" y="8" on="0"/>
        <pt x="205" y="0" on="1"/>
      </contour>
      <contour>
        <pt x="210" y="267" on="1"/>
        <pt x="410" y="267" on="1"/>
        <pt x="308" y="529" on="1"/>
      </contour>
      <contour>
        <pt x="233" y="715" on="1"/>
        <pt x="219" y="723" on="0"/>
        <pt x="219" y="741" on="0"/>
        <pt x="220" y="743" on="1"/>
        <pt x="382" y="841" on="0"/>
        <pt x="414" y="852" on="1"/>
        <pt x="429" y="858" on="0"/>
        <pt x="456" y="858" on="0"/>
        <pt x="474" y="831" on="0"/>
        <pt x="474" y="816" on="1"/>
        <pt x="474" y="786" on="0"/>
        <pt x="290" y="732" on="1"/>
      </contour>
    </TTGlyph>
    <TTGlyph name="Acircumflex" xMin="-5" yMin="0" xMax="668" yMax="858">
      <contour>
        <pt x="-5" y="0" on="1"/>
        <pt x="-5" y="32" on="0"/>
        <pt x="11" y="39" on="1"/>
        <pt x="73" y="62" on="1"/>
        <pt x="281" y="618" on="1"/>
        <pt x="295" y="655" on="0"/>
        <pt x="321" y="655" on="1"/>
        <pt x="337" y="655" on="0"/>
        <pt x="353" y="648" on="1"/>
        <pt x="582" y="67" on="1"/>
        <pt x="668" y="46" on="1"/>
        <pt x="668" y="26" on="0"/>
        <pt x="660" y="8" on="0"/>
        <pt x="649" y="0" on="1"/>
        <pt x="412" y="0" on="1"/>
        <pt x="412" y="34" on="0"/>
        <pt x="428" y="39" on="1"/>
        <pt x="489" y="66" on="1"/>
        <pt x="431" y="215" on="1"/>
        <pt x="191" y="215" on="1"/>
        <pt x="135" y="67" on="1"/>
        <pt x="224" y="46" on="1"/>
        <pt x="224" y="26" on="0"/>
        <pt x="216" y="8" on="0"/>
        <pt x="205" y="0" on="1"/>
      </contour>
      <contour>
        <pt x="142" y="737" on="1"/>
        <pt x="143" y="743" on="1"/>
        <pt x="280" y="839" on="1"/>
        <pt x="307" y="858" on="0"/>
        <pt x="343" y="858" on="0"/>
        <pt x="368" y="839" on="1"/>
        <pt x="505" y="743" on="1"/>
        <pt x="506" y="740" on="0"/>
        <pt x="506" y="737" on="1"/>
        <pt x="506" y="723" on="0"/>
        <pt x="492" y="715" on="1"/>
        <pt x="324" y="787" on="1"/>
        <pt x="156" y="715" on="1"/>
        <pt x="142" y="723" on="0"/>
      </contour>
      <contour>
        <pt x="210" y="267" on="1"/>
        <pt x="410" y="267" on="1"/>
        <pt x="308" y="529" on="1"/>
      </contour>
    </TTGlyph>
    <TTGlyph name="Adieresis" xMin="-5" yMin="0" xMax="668" yMax="828">
      <contour>
        <pt x="-5" y="0" on="1"/>
        <pt x="-5" y="32" on="0"/>
        <pt x="11" y="39" on="1"/>
        <pt x="73" y="62" on="1"/>
        <pt x="281" y="618" on="1"/>
        <pt x="295" y="655" on="0"/>
        <pt x="321" y="655" on="1"/>
        <pt x="337" y="655" on="0"/>
        <pt x="353" y="648" on="1"/>
        <pt x="582" y="67" on="1"/>
        <pt x="668" y="46" on="1"/>
        <pt x="668" y="26" on="0"/>
        <pt x="660" y="8" on="0"/>
        <pt x="649" y="0" on="1"/>
        <pt x="412" y="0" on="1"/>
        <pt x="412" y="34" on="0"/>
        <pt x="428" y="39" on="1"/>
        <pt x="489" y="66" on="1"/>
        <pt x="431" y="215" on="1"/>
        <pt x="191" y="215" on="1"/>
        <pt x="135" y="67" on="1"/>
        <pt x="224" y="46" on="1"/>
        <pt x="224" y="26" on="0"/>
        <pt x="216" y="8" on="0"/>
        <pt x="205" y="0" on="1"/>
      </contour>
      <contour>
        <pt x="173" y="782" on="1"/>
        <pt x="173" y="800" on="0"/>
        <pt x="201" y="828" on="0"/>
        <pt x="242" y="828" on="0"/>
        <pt x="266" y="803" on="0"/>
        <pt x="266" y="764" on="0"/>
        <pt x="237" y="736" on="0"/>
        <pt x="219" y="736" on="1"/>
        <pt x="173" y="736" on="0"/>
      </contour>
      <contour>
        <pt x="210" y="267" on="1"/>
        <pt x="410" y="267" on="1"/>
        <pt x="308" y="529" on="1"/>
      </contour>
      <contour>
        <pt x="380" y="782" on="1"/>
        <pt x="380" y="800" on="0"/>
        <pt x="408" y="828" on="0"/>
        <pt x="449" y="828" on="0"/>
        <pt x="473" y="803" on="0"/>
        <pt x="473" y="764" on="0"/>
        <pt x="444" y="736" on="0"/>
        <pt x="426" y="736" on="1"/>
        <pt x="380" y="736" on="0"/>
      </contour>
    </TTGlyph>
    <TTGlyph name="Agrave" xMin="-5" yMin="0" xMax="668" yMax="858">
      <contour>
        <pt x="-5" y="0" on="1"/>
        <pt x="-5" y="32" on="0"/>
        <pt x="11" y="39" on="1"/>
        <pt x="73" y="62" on="1"/>
        <pt x="281" y="618" on="1"/>
        <pt x="295" y="655" on="0"/>
        <pt x="321" y="655" on="1"/>
        <pt x="337" y="655" on="0"/>
        <pt x="353" y="648" on="1"/>
        <pt x="582" y="67" on="1"/>
        <pt x="668" y="46" on="1"/>
        <pt x="668" y="26" on="0"/>
        <pt x="660" y="8" on="0"/>
        <pt x="649" y="0" on="1"/>
        <pt x="412" y="0" on="1"/>
        <pt x="412" y="34" on="0"/>
        <pt x="428" y="39" on="1"/>
        <pt x="489" y="66" on="1"/>
        <pt x="431" y="215" on="1"/>
        <pt x="191" y="215" on="1"/>
        <pt x="135" y="67" on="1"/>
        <pt x="224" y="46" on="1"/>
        <pt x="224" y="26" on="0"/>
        <pt x="216" y="8" on="0"/>
        <pt x="205" y="0" on="1"/>
      </contour>
      <contour>
        <pt x="193" y="816" on="1"/>
        <pt x="193" y="831" on="0"/>
        <pt x="211" y="858" on="0"/>
        <pt x="247" y="858" on="0"/>
        <pt x="323" y="818" on="0"/>
        <pt x="427" y="755" on="1"/>
        <pt x="447" y="743" on="1"/>
        <pt x="448" y="741" on="0"/>
        <pt x="448" y="723" on="0"/>
        <pt x="434" y="715" on="1"/>
        <pt x="263" y="766" on="0"/>
        <pt x="237" y="777" on="1"/>
        <pt x="193" y="796" on="0"/>
      </contour>
      <contour>
        <pt x="210" y="267" on="1"/>
        <pt x="410" y="267" on="1"/>
        <pt x="308" y="529" on="1"/>
      </contour>
    </TTGlyph>
    <TTGlyph name="Aring" xMin="-5" yMin="0" xMax="668" yMax="858">
      <contour>
        <pt x="-5" y="0" on="1"/>
        <pt x="-5" y="32" on="0"/>
        <pt x="11" y="39" on="1"/>
        <pt x="73" y="62" on="1"/>
        <pt x="281" y="618" on="1"/>
        <pt x="295" y="655" on="0"/>
        <pt x="321" y="655" on="1"/>
        <pt x="337" y="655" on="0"/>
        <pt x="353" y="648" on="1"/>
        <pt x="582" y="67" on="1"/>
        <pt x="668" y="46" on="1"/>
        <pt x="668" y="26" on="0"/>
        <pt x="660" y="8" on="0"/>
        <pt x="649" y="0" on="1"/>
        <pt x="412" y="0" on="1"/>
        <pt x="412" y="34" on="0"/>
        <pt x="428" y="39" on="1"/>
        <pt x="489" y="66" on="1"/>
        <pt x="431" y="215" on="1"/>
        <pt x="191" y="215" on="1"/>
        <pt x="135" y="67" on="1"/>
        <pt x="224" y="46" on="1"/>
        <pt x="224" y="26" on="0"/>
        <pt x="216" y="8" on="0"/>
        <pt x="205" y="0" on="1"/>
      </contour>
      <contour>
        <pt x="210" y="267" on="1"/>
        <pt x="410" y="267" on="1"/>
        <pt x="308" y="529" on="1"/>
      </contour>
      <contour>
        <pt x="219" y="733" on="0"/>
        <pt x="219" y="807" on="0"/>
        <pt x="283" y="858" on="0"/>
        <pt x="383" y="858" on="0"/>
        <pt x="434" y="810" on="0"/>
        <pt x="434" y="741" on="0"/>
        <pt x="371" y="682" on="0"/>
        <pt x="267" y="682" on="0"/>
      </contour>
      <contour>
        <pt x="272" y="765" on="1"/>
        <pt x="272" y="739" on="0"/>
        <pt x="304" y="705" on="0"/>
        <pt x="352" y="705" on="0"/>
        <pt x="381" y="739" on="0"/>
        <pt x="381" y="798" on="0"/>
        <pt x="350" y="837" on="0"/>
        <pt x="323" y="837" on="1"/>
        <pt x="272" y="837" on="0"/>
      </contour>
    </TTGlyph>
    <TTGlyph name="Atilde" xMin="-5" yMin="0" xMax="668" yMax="833">
      <contour>
        <pt x="-5" y="0" on="1"/>
        <pt x="-5" y="32" on="0"/>
        <pt x="11" y="39" on="1"/>
        <pt x="73" y="62" on="1"/>
        <pt x="281" y="618" on="1"/>
        <pt x="295" y="655" on="0"/>
        <pt x="321" y="655" on="1"/>
        <pt x="337" y="655" on="0"/>
        <pt x="353" y="648" on="1"/>
        <pt x="582" y="67" on="1"/>
        <pt x="668" y="46" on="1"/>
        <pt x="668" y="26" on="0"/>
        <pt x="660" y="8" on="0"/>
        <pt x="649" y="0" on="1"/>
        <pt x="412" y="0" on="1"/>
        <pt x="412" y="34" on="0"/>
        <pt x="428" y="39" on="1"/>
        <pt x="489" y="66" on="1"/>
        <pt x="431" y="215" on="1"/>
        <pt x="191" y="215" on="1"/>
        <pt x="135" y="67" on="1"/>
        <pt x="224" y="46" on="1"/>
        <pt x="224" y="26" on="0"/>
        <pt x="216" y="8" on="0"/>
        <pt x="205" y="0" on="1"/>
      </contour>
      <contour>
        <pt x="161" y="737" on="1"/>
        <pt x="161" y="765" on="0"/>
        <pt x="228" y="824" on="0"/>
        <pt x="275" y="824" on="1"/>
        <pt x="300" y="824" on="0"/>
        <pt x="399" y="783" on="0"/>
        <pt x="422" y="783" on="1"/>
        <pt x="463" y="783" on="0"/>
        <pt x="492" y="833" on="1"/>
        <pt x="502" y="822" on="0"/>
        <pt x="502" y="808" on="1"/>
        <pt x="502" y="782" on="0"/>
        <pt x="428" y="722" on="0"/>
        <pt x="382" y="722" on="1"/>
        <pt x="358" y="722" on="0"/>
        <pt x="262" y="762" on="0"/>
        <pt x="239" y="762" on="1"/>
        <pt x="199" y="762" on="0"/>
        <pt x="171" y="714" on="1"/>
        <pt x="161" y="725" on="0"/>
      </contour>
      <contour>
        <pt x="210" y="267" on="1"/>
        <pt x="410" y="267" on="1"/>
        <pt x="308" y="529" on="1"/>
      </contour>
    </TTGlyph>
    <TTGlyph name="B" xMin="45" yMin="0" xMax="534" yMax="641">
      <contour>
        <pt x="45" y="0" on="1"/>
        <pt x="45" y="34" on="0"/>
        <pt x="61" y="39" on="1"/>
        <pt x="124" y="62" on="1"/>
        <pt x="124" y="574" on="1"/>
        <pt x="45" y="595" on="1"/>
        <pt x="45" y="628" on="0"/>
        <pt x="64" y="641" on="1"/>
        <pt x="313" y="641" on="1"/>
        <pt x="507" y="641" on="0"/>
        <pt x="507" y="493" on="1"/>
        <pt x="507" y="447" on="0"/>
        <pt x="442" y="376" on="0"/>
        <pt x="401" y="360" on="1"/>
        <pt x="465" y="341" on="0"/>
        <pt x="534" y="252" on="0"/>
        <pt x="534" y="115" on="0"/>
        <pt x="404" y="0" on="0"/>
        <pt x="306" y="0" on="1"/>
      </contour>
      <contour>
        <pt x="210" y="67" on="1"/>
        <pt x="264" y="46" on="0"/>
        <pt x="368" y="46" on="0"/>
        <pt x="438" y="102" on="0"/>
        <pt x="438" y="253" on="0"/>
        <pt x="356" y="325" on="0"/>
        <pt x="253" y="325" on="1"/>
        <pt x="210" y="325" on="1"/>
      </contour>
      <contour>
        <pt x="210" y="371" on="1"/>
        <pt x="212" y="370" on="0"/>
        <pt x="302" y="370" on="0"/>
        <pt x="333" y="373" on="0"/>
        <pt x="374" y="387" on="0"/>
        <pt x="398" y="411" on="0"/>
        <pt x="416" y="457" on="0"/>
        <pt x="416" y="521" on="0"/>
        <pt x="394" y="565" on="0"/>
        <pt x="375" y="576" on="1"/>
        <pt x="340" y="596" on="0"/>
        <pt x="263" y="596" on="0"/>
        <pt x="210" y="579" on="1"/>
      </contour>
    </TTGlyph>
    <TTGlyph name="C" xMin="48" yMin="-12" xMax="589" yMax="655">
      <contour>
        <pt x="48" y="289" on="1"/>
        <pt x="48" y="379" on="0"/>
        <pt x="127" y="544" on="0"/>
        <pt x="286" y="655" on="0"/>
        <pt x="509" y="655" on="0"/>
        <pt x="589" y="605" on="1"/>
        <pt x="571" y="453" on="1"/>
        <pt x="527" y="456" on="0"/>
        <pt x="524" y="474" on="1"/>
        <pt x="511" y="557" on="1"/>
        <pt x="511" y="558" on="1"/>
        <pt x="456" y="606" on="0"/>
        <pt x="380" y="606" on="1"/>
        <pt x="264" y="606" on="0"/>
        <pt x="152" y="454" on="0"/>
        <pt x="150" y="332" on="1"/>
        <pt x="150" y="208" on="0"/>
        <pt x="269" y="37" on="0"/>
        <pt x="371" y="37" on="1"/>
        <pt x="457" y="37" on="0"/>
        <pt x="509" y="96" on="1"/>
        <pt x="522" y="209" on="1"/>
        <pt x="565" y="209" on="0"/>
        <pt x="578" y="196" on="1"/>
        <pt x="589" y="73" on="1"/>
        <pt x="495" y="-12" on="0"/>
        <pt x="371" y="-12" on="1"/>
        <pt x="288" y="-12" on="0"/>
        <pt x="161" y="38" on="0"/>
        <pt x="124" y="82" on="1"/>
        <pt x="48" y="169" on="0"/>
      </contour>
    </TTGlyph>
    <TTGlyph name="Ccedilla" xMin="48" yMin="-270" xMax="589" yMax="655">
      <contour>
        <pt x="48" y="289" on="1"/>
        <pt x="48" y="379" on="0"/>
        <pt x="127" y="544" on="0"/>
        <pt x="286" y="655" on="0"/>
        <pt x="509" y="655" on="0"/>
        <pt x="589" y="605" on="1"/>
        <pt x="571" y="453" on="1"/>
        <pt x="527" y="456" on="0"/>
        <pt x="524" y="474" on="1"/>
        <pt x="511" y="558" on="1"/>
        <pt x="456" y="606" on="0"/>
        <pt x="380" y="606" on="1"/>
        <pt x="264" y="606" on="0"/>
        <pt x="152" y="454" on="0"/>
        <pt x="150" y="332" on="1"/>
        <pt x="150" y="208" on="0"/>
        <pt x="269" y="37" on="0"/>
        <pt x="371" y="37" on="1"/>
        <pt x="457" y="37" on="0"/>
        <pt x="509" y="96" on="1"/>
        <pt x="522" y="209" on="1"/>
        <pt x="565" y="209" on="0"/>
        <pt x="578" y="196" on="1"/>
        <pt x="589" y="73" on="1"/>
        <pt x="496" y="-8" on="0"/>
        <pt x="380" y="-12" on="1"/>
        <pt x="371" y="-53" on="1"/>
        <pt x="426" y="-53" on="0"/>
        <pt x="504" y="-103" on="0"/>
        <pt x="504" y="-203" on="0"/>
        <pt x="428" y="-270" on="0"/>
        <pt x="306" y="-270" on="0"/>
        <pt x="241" y="-221" on="0"/>
        <pt x="241" y="-150" on="0"/>
        <pt x="274" y="-150" on="1"/>
        <pt x="291" y="-150" on="0"/>
        <pt x="305" y="-164" on="1"/>
        <pt x="305" y="-238" on="0"/>
        <pt x="365" y="-238" on="1"/>
        <pt x="399" y="-238" on="0"/>
        <pt x="439" y="-202" on="0"/>
        <pt x="439" y="-132" on="0"/>
        <pt x="388" y="-95" on="0"/>
        <pt x="343" y="-95" on="1"/>
        <pt x="338" y="-95" on="0"/>
        <pt x="316" y="-97" on="1"/>
        <pt x="337" y="-11" on="1"/>
        <pt x="194" y="-1" on="0"/>
        <pt x="48" y="170" on="0"/>
      </contour>
    </TTGlyph>
    <TTGlyph name="D" xMin="45" yMin="0" xMax="661" yMax="641">
      <contour>
        <pt x="45" y="0" on="1"/>
        <pt x="45" y="34" on="0"/>
        <pt x="61" y="39" on="1"/>
        <pt x="124" y="62" on="1"/>
        <pt x="124" y="574" on="1"/>
        <pt x="45" y="595" on="1"/>
        <pt x="45" y="628" on="0"/>
        <pt x="64" y="641" on="1"/>
        <pt x="348" y="641" on="1"/>
        <pt x="500" y="641" on="0"/>
        <pt x="661" y="470" on="0"/>
        <pt x="661" y="345" on="1"/>
        <pt x="661" y="258" on="0"/>
        <pt x="585" y="103" on="0"/>
        <pt x="431" y="0" on="0"/>
        <pt x="331" y="0" on="1"/>
      </contour>
      <contour>
        <pt x="210" y="67" on="1"/>
        <pt x="271" y="46" on="0"/>
        <pt x="339" y="46" on="1"/>
        <pt x="449" y="46" on="0"/>
        <pt x="557" y="193" on="0"/>
        <pt x="559" y="311" on="1"/>
        <pt x="559" y="432" on="0"/>
        <pt x="444" y="595" on="0"/>
        <pt x="340" y="595" on="1"/>
        <pt x="290" y="595" on="0"/>
        <pt x="210" y="579" on="1"/>
      </contour>
    </TTGlyph>
    <TTGlyph name="E" xMin="45" yMin="0" xMax="536" yMax="641">
      <contour>
        <pt x="45" y="0" on="1"/>
        <pt x="45" y="34" on="0"/>
        <pt x="61" y="39" on="1"/>
        <pt x="124" y="62" on="1"/>
        <pt x="124" y="574" on="1"/>
        <pt x="45" y="595" on="1"/>
        <pt x="45" y="628" on="0"/>
        <pt x="64" y="641" on="1"/>
        <pt x="505" y="641" on="1"/>
        <pt x="505" y="488" on="1"/>
        <pt x="471" y="488" on="0"/>
        <pt x="466" y="504" on="1"/>
        <pt x="433" y="595" on="1"/>
        <pt x="210" y="579" on="1"/>
        <pt x="210" y="351" on="1"/>
        <pt x="400" y="351" on="1"/>
        <pt x="420" y="411" on="1"/>
        <pt x="437" y="411" on="0"/>
        <pt x="450" y="405" on="0"/>
        <pt x="459" y="395" on="1"/>
        <pt x="459" y="255" on="1"/>
        <pt x="450" y="245" on="0"/>
        <pt x="437" y="239" on="0"/>
        <pt x="420" y="239" on="1"/>
        <pt x="400" y="299" on="1"/>
        <pt x="210" y="299" on="1"/>
        <pt x="210" y="67" on="1"/>
        <pt x="459" y="46" on="1"/>
        <pt x="490" y="168" on="1"/>
        <pt x="510" y="168" on="0"/>
        <pt x="528" y="160" on="0"/>
        <pt x="536" y="149" on="1"/>
        <pt x="536" y="0" on="1"/>
      </contour>
    </TTGlyph>
    <TTGlyph name="Eacute" xMin="45" yMin="0" xMax="536" yMax="858">
      <contour>
        <pt x="45" y="0" on="1"/>
        <pt x="45" y="34" on="0"/>
        <pt x="61" y="39" on="1"/>
        <pt x="124" y="62" on="1"/>
        <pt x="124" y="574" on="1"/>
        <pt x="45" y="595" on="1"/>
        <pt x="45" y="628" on="0"/>
        <pt x="64" y="641" on="1"/>
        <pt x="505" y="641" on="1"/>
        <pt x="505" y="488" on="1"/>
        <pt x="471" y="488" on="0"/>
        <pt x="466" y="504" on="1"/>
        <pt x="433" y="595" on="1"/>
        <pt x="210" y="579" on="1"/>
        <pt x="210" y="351" on="1"/>
        <pt x="400" y="351" on="1"/>
        <pt x="420" y="426" on="1"/>
        <pt x="437" y="426" on="0"/>
        <pt x="450" y="420" on="0"/>
        <pt x="459" y="410" on="1"/>
        <pt x="459" y="240" on="1"/>
        <pt x="450" y="230" on="0"/>
        <pt x="437" y="224" on="0"/>
        <pt x="420" y="224" on="1"/>
        <pt x="400" y="299" on="1"/>
        <pt x="210" y="299" on="1"/>
        <pt x="210" y="67" on="1"/>
        <pt x="459" y="46" on="1"/>
        <pt x="490" y="168" on="1"/>
        <pt x="510" y="168" on="0"/>
        <pt x="528" y="160" on="0"/>
        <pt x="536" y="149" on="1"/>
        <pt x="536" y="0" on="1"/>
      </contour>
      <contour>
        <pt x="218" y="715" on="1"/>
        <pt x="204" y="723" on="0"/>
        <pt x="204" y="741" on="0"/>
        <pt x="205" y="743" on="1"/>
        <pt x="367" y="841" on="0"/>
        <pt x="399" y="852" on="1"/>
        <pt x="414" y="858" on="0"/>
        <pt x="441" y="858" on="0"/>
        <pt x="459" y="831" on="0"/>
        <pt x="459" y="816" on="1"/>
        <pt x="459" y="786" on="0"/>
        <pt x="275" y="732" on="1"/>
      </contour>
    </TTGlyph>
    <TTGlyph name="Ecircumflex" xMin="45" yMin="0" xMax="536" yMax="858">
      <contour>
        <pt x="45" y="0" on="1"/>
        <pt x="45" y="34" on="0"/>
        <pt x="61" y="39" on="1"/>
        <pt x="124" y="62" on="1"/>
        <pt x="124" y="574" on="1"/>
        <pt x="45" y="595" on="1"/>
        <pt x="45" y="628" on="0"/>
        <pt x="64" y="641" on="1"/>
        <pt x="505" y="641" on="1"/>
        <pt x="505" y="488" on="1"/>
        <pt x="471" y="488" on="0"/>
        <pt x="466" y="504" on="1"/>
        <pt x="433" y="595" on="1"/>
        <pt x="210" y="579" on="1"/>
        <pt x="210" y="351" on="1"/>
        <pt x="400" y="351" on="1"/>
        <pt x="420" y="411" on="1"/>
        <pt x="437" y="411" on="0"/>
        <pt x="450" y="405" on="0"/>
        <pt x="459" y="395" on="1"/>
        <pt x="459" y="255" on="1"/>
        <pt x="450" y="245" on="0"/>
        <pt x="437" y="239" on="0"/>
        <pt x="420" y="239" on="1"/>
        <pt x="400" y="299" on="1"/>
        <pt x="210" y="299" on="1"/>
        <pt x="210" y="67" on="1"/>
        <pt x="459" y="46" on="1"/>
        <pt x="490" y="168" on="1"/>
        <pt x="510" y="168" on="0"/>
        <pt x="528" y="160" on="0"/>
        <pt x="536" y="149" on="1"/>
        <pt x="536" y="0" on="1"/>
      </contour>
      <contour>
        <pt x="115" y="737" on="1"/>
        <pt x="116" y="743" on="1"/>
        <pt x="253" y="839" on="1"/>
        <pt x="280" y="858" on="0"/>
        <pt x="316" y="858" on="0"/>
        <pt x="341" y="839" on="1"/>
        <pt x="478" y="743" on="1"/>
        <pt x="479" y="740" on="0"/>
        <pt x="479" y="737" on="1"/>
        <pt x="479" y="723" on="0"/>
        <pt x="465" y="715" on="1"/>
        <pt x="297" y="787" on="1"/>
        <pt x="129" y="715" on="1"/>
        <pt x="115" y="723" on="0"/>
      </contour>
    </TTGlyph>
    <TTGlyph name="Edieresis" xMin="45" yMin="0" xMax="536" yMax="828">
      <contour>
        <pt x="45" y="0" on="1"/>
        <pt x="45" y="34" on="0"/>
        <pt x="61" y="39" on="1"/>
        <pt x="124" y="62" on="1"/>
        <pt x="124" y="574" on="1"/>
        <pt x="45" y="595" on="1"/>
        <pt x="45" y="628" on="0"/>
        <pt x="64" y="641" on="1"/>
        <pt x="505" y="641" on="1"/>
        <pt x="505" y="488" on="1"/>
        <pt x="471" y="488" on="0"/>
        <pt x="466" y="504" on="1"/>
        <pt x="433" y="595" on="1"/>
        <pt x="210" y="579" on="1"/>
        <pt x="210" y="351" on="1"/>
        <pt x="400" y="351" on="1"/>
        <pt x="420" y="426" on="1"/>
        <pt x="437" y="426" on="0"/>
        <pt x="450" y="420" on="0"/>
        <pt x="459" y="410" on="1"/>
        <pt x="459" y="240" on="1"/>
        <pt x="450" y="230" on="0"/>
        <pt x="437" y="224" on="0"/>
        <pt x="420" y="224" on="1"/>
        <pt x="400" y="299" on="1"/>
        <pt x="210" y="299" on="1"/>
        <pt x="210" y="67" on="1"/>
        <pt x="459" y="46" on="1"/>
        <pt x="490" y="168" on="1"/>
        <pt x="510" y="168" on="0"/>
        <pt x="528" y="160" on="0"/>
        <pt x="536" y="149" on="1"/>
        <pt x="536" y="0" on="1"/>
      </contour>
      <contour>
        <pt x="150" y="782" on="1"/>
        <pt x="150" y="800" on="0"/>
        <pt x="178" y="828" on="0"/>
        <pt x="219" y="828" on="0"/>
        <pt x="243" y="803" on="0"/>
        <pt x="243" y="764" on="0"/>
        <pt x="214" y="736" on="0"/>
        <pt x="196" y="736" on="1"/>
        <pt x="150" y="736" on="0"/>
      </contour>
      <contour>
        <pt x="357" y="782" on="1"/>
        <pt x="357" y="800" on="0"/>
        <pt x="385" y="828" on="0"/>
        <pt x="426" y="828" on="0"/>
        <pt x="450" y="803" on="0"/>
        <pt x="450" y="764" on="0"/>
        <pt x="421" y="736" on="0"/>
        <pt x="403" y="736" on="1"/>
        <pt x="357" y="736" on="0"/>
      </contour>
    </TTGlyph>
    <TTGlyph name="Egrave" xMin="45" yMin="0" xMax="536" yMax="858">
      <contour>
        <pt x="45" y="0" on="1"/>
        <pt x="45" y="34" on="0"/>
        <pt x="61" y="39" on="1"/>
        <pt x="124" y="62" on="1"/>
        <pt x="124" y="574" on="1"/>
        <pt x="45" y="595" on="1"/>
        <pt x="45" y="628" on="0"/>
        <pt x="64" y="641" on="1"/>
        <pt x="505" y="641" on="1"/>
        <pt x="505" y="488" on="1"/>
        <pt x="471" y="488" on="0"/>
        <pt x="466" y="504" on="1"/>
        <pt x="433" y="595" on="1"/>
        <pt x="210" y="579" on="1"/>
        <pt x="210" y="351" on="1"/>
        <pt x="400" y="351" on="1"/>
        <pt x="420" y="426" on="1"/>
        <pt x="437" y="426" on="0"/>
        <pt x="450" y="420" on="0"/>
        <pt x="459" y="410" on="1"/>
        <pt x="459" y="240" on="1"/>
        <pt x="450" y="230" on="0"/>
        <pt x="437" y="224" on="0"/>
        <pt x="420" y="224" on="1"/>
        <pt x="400" y="299" on="1"/>
        <pt x="210" y="299" on="1"/>
        <pt x="210" y="67" on="1"/>
        <pt x="459" y="46" on="1"/>
        <pt x="490" y="168" on="1"/>
        <pt x="510" y="168" on="0"/>
        <pt x="528" y="160" on="0"/>
        <pt x="536" y="149" on="1"/>
        <pt x="536" y="0" on="1"/>
      </contour>
      <contour>
        <pt x="144" y="816" on="1"/>
        <pt x="144" y="831" on="0"/>
        <pt x="162" y="858" on="0"/>
        <pt x="198" y="858" on="0"/>
        <pt x="274" y="818" on="0"/>
        <pt x="378" y="755" on="1"/>
        <pt x="398" y="743" on="1"/>
        <pt x="399" y="741" on="0"/>
        <pt x="399" y="723" on="0"/>
        <pt x="385" y="715" on="1"/>
        <pt x="214" y="766" on="0"/>
        <pt x="188" y="777" on="1"/>
        <pt x="144" y="796" on="0"/>
      </contour>
    </TTGlyph>
    <TTGlyph name="Eth" xMin="49" yMin="0" xMax="665" yMax="641">
      <contour>
        <pt x="49" y="0" on="1"/>
        <pt x="49" y="34" on="0"/>
        <pt x="65" y="39" on="1"/>
        <pt x="128" y="62" on="1"/>
        <pt x="128" y="290" on="1"/>
        <pt x="58" y="286" on="1"/>
        <pt x="49" y="296" on="0"/>
        <pt x="49" y="329" on="0"/>
        <pt x="87" y="358" on="0"/>
        <pt x="126" y="358" on="1"/>
        <pt x="128" y="358" on="1"/>
        <pt x="128" y="574" on="1"/>
        <pt x="49" y="595" on="1"/>
        <pt x="49" y="628" on="0"/>
        <pt x="68" y="641" on="1"/>
        <pt x="352" y="641" on="1"/>
        <pt x="504" y="641" on="0"/>
        <pt x="665" y="470" on="0"/>
        <pt x="665" y="345" on="1"/>
        <pt x="665" y="258" on="0"/>
        <pt x="589" y="103" on="0"/>
        <pt x="435" y="0" on="0"/>
        <pt x="335" y="0" on="1"/>
      </contour>
      <contour>
        <pt x="214" y="67" on="1"/>
        <pt x="275" y="46" on="0"/>
        <pt x="343" y="46" on="1"/>
        <pt x="453" y="46" on="0"/>
        <pt x="561" y="193" on="0"/>
        <pt x="563" y="311" on="1"/>
        <pt x="563" y="432" on="0"/>
        <pt x="448" y="595" on="0"/>
        <pt x="344" y="595" on="1"/>
        <pt x="294" y="595" on="0"/>
        <pt x="214" y="579" on="1"/>
        <pt x="214" y="353" on="1"/>
        <pt x="335" y="347" on="1"/>
        <pt x="335" y="311" on="0"/>
        <pt x="316" y="302" on="1"/>
        <pt x="214" y="296" on="1"/>
      </contour>
    </TTGlyph>
    <TTGlyph name="Euro" xMin="40" yMin="-12" xMax="545" yMax="581">
      <contour>
        <pt x="40" y="220" on="1"/>
        <pt x="40" y="245" on="0"/>
        <pt x="50" y="259" on="1"/>
        <pt x="92" y="259" on="1"/>
        <pt x="92" y="296" on="0"/>
        <pt x="101" y="334" on="1"/>
        <pt x="40" y="334" on="1"/>
        <pt x="40" y="359" on="0"/>
        <pt x="50" y="373" on="1"/>
        <pt x="112" y="373" on="1"/>
        <pt x="143" y="463" on="0"/>
        <pt x="278" y="581" on="0"/>
        <pt x="473" y="581" on="0"/>
        <pt x="545" y="536" on="1"/>
        <pt x="527" y="404" on="1"/>
        <pt x="488" y="407" on="0"/>
        <pt x="484" y="421" on="1"/>
        <pt x="473" y="493" on="1"/>
        <pt x="426" y="537" on="0"/>
        <pt x="292" y="537" on="0"/>
        <pt x="208" y="449" on="0"/>
        <pt x="192" y="373" on="1"/>
        <pt x="387" y="373" on="1"/>
        <pt x="387" y="344" on="0"/>
        <pt x="377" y="334" on="1"/>
        <pt x="186" y="334" on="1"/>
        <pt x="184" y="298" on="0"/>
        <pt x="184" y="264" on="0"/>
        <pt x="185" y="259" on="1"/>
        <pt x="387" y="259" on="1"/>
        <pt x="387" y="230" on="0"/>
        <pt x="377" y="220" on="1"/>
        <pt x="190" y="220" on="1"/>
        <pt x="204" y="139" on="0"/>
        <pt x="292" y="33" on="0"/>
        <pt x="351" y="33" on="1"/>
        <pt x="427" y="33" on="0"/>
        <pt x="473" y="86" on="1"/>
        <pt x="484" y="185" on="1"/>
        <pt x="522" y="185" on="0"/>
        <pt x="535" y="170" on="1"/>
        <pt x="545" y="65" on="1"/>
        <pt x="457" y="-12" on="0"/>
        <pt x="238" y="-12" on="0"/>
        <pt x="105" y="120" on="0"/>
        <pt x="94" y="220" on="1"/>
      </contour>
    </TTGlyph>
    <TTGlyph name="F" xMin="45" yMin="0" xMax="505" yMax="641">
      <contour>
        <pt x="45" y="0" on="1"/>
        <pt x="45" y="34" on="0"/>
        <pt x="61" y="39" on="1"/>
        <pt x="124" y="62" on="1"/>
        <pt x="124" y="574" on="1"/>
        <pt x="45" y="595" on="1"/>
        <pt x="45" y="628" on="0"/>
        <pt x="64" y="641" on="1"/>
        <pt x="505" y="641" on="1"/>
        <pt x="505" y="488" on="1"/>
        <pt x="471" y="488" on="0"/>
        <pt x="466" y="504" on="1"/>
        <pt x="433" y="595" on="1"/>
        <pt x="210" y="579" on="1"/>
        <pt x="210" y="341" on="1"/>
        <pt x="400" y="341" on="1"/>
        <pt x="420" y="401" on="1"/>
        <pt x="437" y="401" on="0"/>
        <pt x="450" y="395" on="0"/>
        <pt x="459" y="385" on="1"/>
        <pt x="459" y="240" on="1"/>
        <pt x="450" y="230" on="0"/>
        <pt x="437" y="224" on="0"/>
        <pt x="420" y="224" on="1"/>
        <pt x="400" y="289" on="1"/>
        <pt x="210" y="289" on="1"/>
        <pt x="210" y="67" on="1"/>
        <pt x="310" y="46" on="1"/>
        <pt x="310" y="26" on="0"/>
        <pt x="302" y="8" on="0"/>
        <pt x="291" y="0" on="1"/>
      </contour>
    </TTGlyph>
    <TTGlyph name="G" xMin="48" yMin="-12" xMax="637" yMax="655">
      <contour>
        <pt x="48" y="296" on="1"/>
        <pt x="48" y="386" on="0"/>
        <pt x="123" y="547" on="0"/>
        <pt x="274" y="655" on="0"/>
        <pt x="489" y="655" on="0"/>
        <pt x="570" y="605" on="1"/>
        <pt x="554" y="453" on="1"/>
        <pt x="510" y="456" on="0"/>
        <pt x="507" y="474" on="1"/>
        <pt x="492" y="558" on="1"/>
        <pt x="439" y="606" on="0"/>
        <pt x="370" y="606" on="1"/>
        <pt x="258" y="606" on="0"/>
        <pt x="151" y="454" on="0"/>
        <pt x="149" y="332" on="1"/>
        <pt x="149" y="208" on="0"/>
        <pt x="263" y="37" on="0"/>
        <pt x="361" y="37" on="1"/>
        <pt x="443" y="37" on="0"/>
        <pt x="489" y="85" on="1"/>
        <pt x="489" y="230" on="1"/>
        <pt x="390" y="251" on="1"/>
        <pt x="390" y="271" on="0"/>
        <pt x="398" y="289" on="0"/>
        <pt x="409" y="297" on="1"/>
        <pt x="637" y="297" on="1"/>
        <pt x="637" y="266" on="0"/>
        <pt x="621" y="258" on="1"/>
        <pt x="579" y="236" on="1"/>
        <pt x="579" y="47" on="1"/>
        <pt x="493" y="-12" on="0"/>
        <pt x="366" y="-12" on="1"/>
        <pt x="285" y="-12" on="0"/>
        <pt x="160" y="40" on="0"/>
        <pt x="122" y="84" on="1"/>
        <pt x="48" y="171" on="0"/>
      </contour>
    </TTGlyph>
    <TTGlyph name="H" xMin="45" yMin="0" xMax="712" yMax="641">
      <contour>
        <pt x="45" y="0" on="1"/>
        <pt x="45" y="34" on="0"/>
        <pt x="61" y="39" on="1"/>
        <pt x="124" y="62" on="1"/>
        <pt x="124" y="574" on="1"/>
        <pt x="45" y="595" on="1"/>
        <pt x="45" y="615" on="0"/>
        <pt x="53" y="633" on="0"/>
        <pt x="64" y="641" on="1"/>
        <pt x="300" y="641" on="1"/>
        <pt x="300" y="607" on="0"/>
        <pt x="284" y="602" on="1"/>
        <pt x="210" y="579" on="1"/>
        <pt x="210" y="361" on="1"/>
        <pt x="536" y="361" on="1"/>
        <pt x="536" y="574" on="1"/>
        <pt x="457" y="595" on="1"/>
        <pt x="457" y="615" on="0"/>
        <pt x="465" y="633" on="0"/>
        <pt x="476" y="641" on="1"/>
        <pt x="712" y="641" on="1"/>
        <pt x="712" y="607" on="0"/>
        <pt x="696" y="602" on="1"/>
        <pt x="622" y="579" on="1"/>
        <pt x="622" y="67" on="1"/>
        <pt x="712" y="46" on="1"/>
        <pt x="712" y="26" on="0"/>
        <pt x="704" y="8" on="0"/>
        <pt x="693" y="0" on="1"/>
        <pt x="457" y="0" on="1"/>
        <pt x="457" y="34" on="0"/>
        <pt x="473" y="39" on="1"/>
        <pt x="536" y="62" on="1"/>
        <pt x="536" y="309" on="1"/>
        <pt x="210" y="309" on="1"/>
        <pt x="210" y="67" on="1"/>
        <pt x="300" y="46" on="1"/>
        <pt x="300" y="26" on="0"/>
        <pt x="292" y="8" on="0"/>
        <pt x="281" y="0" on="1"/>
      </contour>
    </TTGlyph>
    <TTGlyph name="I" xMin="45" yMin="0" xMax="300" yMax="641">
      <contour>
        <pt x="45" y="0" on="1"/>
        <pt x="45" y="34" on="0"/>
        <pt x="61" y="39" on="1"/>
        <pt x="124" y="62" on="1"/>
        <pt x="124" y="574" on="1"/>
        <pt x="45" y="595" on="1"/>
        <pt x="45" y="615" on="0"/>
        <pt x="53" y="633" on="0"/>
        <pt x="64" y="641" on="1"/>
        <pt x="300" y="641" on="1"/>
        <pt x="300" y="607" on="0"/>
        <pt x="284" y="602" on="1"/>
        <pt x="210" y="579" on="1"/>
        <pt x="210" y="67" on="1"/>
        <pt x="300" y="46" on="1"/>
        <pt x="300" y="26" on="0"/>
        <pt x="292" y="8" on="0"/>
        <pt x="281" y="0" on="1"/>
      </contour>
    </TTGlyph>
    <TTGlyph name="Iacute" xMin="45" yMin="0" xMax="314" yMax="858">
      <contour>
        <pt x="45" y="0" on="1"/>
        <pt x="45" y="34" on="0"/>
        <pt x="61" y="39" on="1"/>
        <pt x="124" y="62" on="1"/>
        <pt x="124" y="574" on="1"/>
        <pt x="45" y="595" on="1"/>
        <pt x="45" y="615" on="0"/>
        <pt x="53" y="633" on="0"/>
        <pt x="64" y="641" on="1"/>
        <pt x="300" y="641" on="1"/>
        <pt x="300" y="607" on="0"/>
        <pt x="284" y="602" on="1"/>
        <pt x="210" y="579" on="1"/>
        <pt x="210" y="67" on="1"/>
        <pt x="300" y="46" on="1"/>
        <pt x="300" y="26" on="0"/>
        <pt x="292" y="8" on="0"/>
        <pt x="281" y="0" on="1"/>
      </contour>
      <contour>
        <pt x="73" y="715" on="1"/>
        <pt x="59" y="723" on="0"/>
        <pt x="59" y="741" on="0"/>
        <pt x="60" y="743" on="1"/>
        <pt x="222" y="841" on="0"/>
        <pt x="254" y="852" on="1"/>
        <pt x="269" y="858" on="0"/>
        <pt x="296" y="858" on="0"/>
        <pt x="314" y="831" on="0"/>
        <pt x="314" y="816" on="1"/>
        <pt x="314" y="786" on="0"/>
        <pt x="130" y="732" on="1"/>
      </contour>
    </TTGlyph>
    <TTGlyph name="Icircumflex" xMin="-14" yMin="0" xMax="350" yMax="858">
      <contour>
        <pt x="-14" y="737" on="1"/>
        <pt x="-13" y="743" on="1"/>
        <pt x="124" y="839" on="1"/>
        <pt x="151" y="858" on="0"/>
        <pt x="187" y="858" on="0"/>
        <pt x="212" y="839" on="1"/>
        <pt x="349" y="743" on="1"/>
        <pt x="350" y="740" on="0"/>
        <pt x="350" y="737" on="1"/>
        <pt x="350" y="723" on="0"/>
        <pt x="336" y="715" on="1"/>
        <pt x="168" y="787" on="1"/>
        <pt x="0" y="715" on="1"/>
        <pt x="-14" y="723" on="0"/>
      </contour>
      <contour>
        <pt x="45" y="0" on="1"/>
        <pt x="45" y="34" on="0"/>
        <pt x="61" y="39" on="1"/>
        <pt x="124" y="62" on="1"/>
        <pt x="124" y="574" on="1"/>
        <pt x="45" y="595" on="1"/>
        <pt x="45" y="615" on="0"/>
        <pt x="53" y="633" on="0"/>
        <pt x="64" y="641" on="1"/>
        <pt x="300" y="641" on="1"/>
        <pt x="300" y="607" on="0"/>
        <pt x="284" y="602" on="1"/>
        <pt x="210" y="579" on="1"/>
        <pt x="210" y="67" on="1"/>
        <pt x="300" y="46" on="1"/>
        <pt x="300" y="26" on="0"/>
        <pt x="292" y="8" on="0"/>
        <pt x="281" y="0" on="1"/>
      </contour>
    </TTGlyph>
    <TTGlyph name="Idieresis" xMin="24" yMin="0" xMax="324" yMax="828">
      <contour>
        <pt x="24" y="782" on="1"/>
        <pt x="24" y="800" on="0"/>
        <pt x="52" y="828" on="0"/>
        <pt x="93" y="828" on="0"/>
        <pt x="117" y="803" on="0"/>
        <pt x="117" y="764" on="0"/>
        <pt x="88" y="736" on="0"/>
        <pt x="70" y="736" on="1"/>
        <pt x="24" y="736" on="0"/>
      </contour>
      <contour>
        <pt x="45" y="0" on="1"/>
        <pt x="45" y="34" on="0"/>
        <pt x="61" y="39" on="1"/>
        <pt x="124" y="62" on="1"/>
        <pt x="124" y="574" on="1"/>
        <pt x="45" y="595" on="1"/>
        <pt x="45" y="615" on="0"/>
        <pt x="53" y="633" on="0"/>
        <pt x="64" y="641" on="1"/>
        <pt x="300" y="641" on="1"/>
        <pt x="300" y="607" on="0"/>
        <pt x="284" y="602" on="1"/>
        <pt x="210" y="579" on="1"/>
        <pt x="210" y="67" on="1"/>
        <pt x="300" y="46" on="1"/>
        <pt x="300" y="26" on="0"/>
        <pt x="292" y="8" on="0"/>
        <pt x="281" y="0" on="1"/>
      </contour>
      <contour>
        <pt x="255" y="736" on="0"/>
        <pt x="230" y="761" on="0"/>
        <pt x="231" y="800" on="0"/>
        <pt x="259" y="828" on="0"/>
        <pt x="300" y="828" on="0"/>
        <pt x="324" y="803" on="0"/>
        <pt x="324" y="764" on="0"/>
        <pt x="295" y="736" on="0"/>
      </contour>
    </TTGlyph>
    <TTGlyph name="Igrave" xMin="30" yMin="0" xMax="300" yMax="858">
      <contour>
        <pt x="30" y="816" on="1"/>
        <pt x="30" y="831" on="0"/>
        <pt x="48" y="858" on="0"/>
        <pt x="84" y="858" on="0"/>
        <pt x="160" y="818" on="0"/>
        <pt x="264" y="755" on="1"/>
        <pt x="284" y="743" on="1"/>
        <pt x="285" y="741" on="0"/>
        <pt x="285" y="723" on="0"/>
        <pt x="271" y="715" on="1"/>
        <pt x="100" y="766" on="0"/>
        <pt x="74" y="777" on="1"/>
        <pt x="30" y="796" on="0"/>
      </contour>
      <contour>
        <pt x="45" y="0" on="1"/>
        <pt x="45" y="34" on="0"/>
        <pt x="61" y="39" on="1"/>
        <pt x="124" y="62" on="1"/>
        <pt x="124" y="574" on="1"/>
        <pt x="45" y="595" on="1"/>
        <pt x="45" y="615" on="0"/>
        <pt x="53" y="633" on="0"/>
        <pt x="64" y="641" on="1"/>
        <pt x="300" y="641" on="1"/>
        <pt x="300" y="607" on="0"/>
        <pt x="284" y="602" on="1"/>
        <pt x="210" y="579" on="1"/>
        <pt x="210" y="67" on="1"/>
        <pt x="300" y="46" on="1"/>
        <pt x="300" y="26" on="0"/>
        <pt x="292" y="8" on="0"/>
        <pt x="281" y="0" on="1"/>
      </contour>
    </TTGlyph>
    <TTGlyph name="J" xMin="-52" yMin="-183" xMax="291" yMax="641">
      <contour>
        <pt x="-19" y="-183" on="0"/>
        <pt x="-52" y="-158" on="0"/>
        <pt x="-52" y="-144" on="1"/>
        <pt x="-52" y="-105" on="0"/>
        <pt x="-36" y="-105" on="1"/>
        <pt x="63" y="-105" on="0"/>
        <pt x="82" y="-83" on="1"/>
        <pt x="107" y="-53" on="0"/>
        <pt x="115" y="24" on="0"/>
        <pt x="115" y="67" on="1"/>
        <pt x="115" y="574" on="1"/>
        <pt x="36" y="595" on="1"/>
        <pt x="36" y="615" on="0"/>
        <pt x="44" y="633" on="0"/>
        <pt x="55" y="641" on="1"/>
        <pt x="291" y="641" on="1"/>
        <pt x="291" y="607" on="0"/>
        <pt x="275" y="602" on="1"/>
        <pt x="201" y="574" on="1"/>
        <pt x="201" y="169" on="1"/>
        <pt x="201" y="81" on="0"/>
        <pt x="140" y="-85" on="0"/>
        <pt x="48" y="-183" on="0"/>
        <pt x="3" y="-183" on="1"/>
      </contour>
    </TTGlyph>
    <TTGlyph name="K" xMin="45" yMin="-12" xMax="641" yMax="641">
      <contour>
        <pt x="45" y="0" on="1"/>
        <pt x="45" y="34" on="0"/>
        <pt x="61" y="39" on="1"/>
        <pt x="124" y="62" on="1"/>
        <pt x="124" y="574" on="1"/>
        <pt x="45" y="595" on="1"/>
        <pt x="45" y="615" on="0"/>
        <pt x="53" y="633" on="0"/>
        <pt x="64" y="641" on="1"/>
        <pt x="300" y="641" on="1"/>
        <pt x="300" y="607" on="0"/>
        <pt x="284" y="602" on="1"/>
        <pt x="210" y="579" on="1"/>
        <pt x="210" y="67" on="1"/>
        <pt x="300" y="46" on="1"/>
        <pt x="300" y="26" on="0"/>
        <pt x="292" y="8" on="0"/>
        <pt x="281" y="0" on="1"/>
      </contour>
      <contour>
        <pt x="223" y="357" on="1"/>
        <pt x="452" y="574" on="1"/>
        <pt x="374" y="595" on="1"/>
        <pt x="374" y="615" on="0"/>
        <pt x="382" y="633" on="0"/>
        <pt x="393" y="641" on="1"/>
        <pt x="620" y="641" on="1"/>
        <pt x="620" y="607" on="0"/>
        <pt x="604" y="602" on="1"/>
        <pt x="533" y="579" on="1"/>
        <pt x="308" y="368" on="1"/>
        <pt x="377" y="264" on="0"/>
        <pt x="558" y="69" on="0"/>
        <pt x="641" y="24" on="1"/>
        <pt x="641" y="9" on="0"/>
        <pt x="610" y="-12" on="0"/>
        <pt x="540" y="-12" on="0"/>
        <pt x="447" y="50" on="0"/>
        <pt x="399" y="108" on="1"/>
        <pt x="311" y="213" on="0"/>
      </contour>
    </TTGlyph>
    <TTGlyph name="L" xMin="45" yMin="0" xMax="526" yMax="641">
      <contour>
        <pt x="45" y="0" on="1"/>
        <pt x="45" y="34" on="0"/>
        <pt x="61" y="39" on="1"/>
        <pt x="124" y="62" on="1"/>
        <pt x="124" y="574" on="1"/>
        <pt x="45" y="595" on="1"/>
        <pt x="45" y="615" on="0"/>
        <pt x="53" y="633" on="0"/>
        <pt x="64" y="641" on="1"/>
        <pt x="300" y="641" on="1"/>
        <pt x="300" y="607" on="0"/>
        <pt x="284" y="602" on="1"/>
        <pt x="210" y="579" on="1"/>
        <pt x="210" y="67" on="1"/>
        <pt x="459" y="46" on="1"/>
        <pt x="480" y="168" on="1"/>
        <pt x="500" y="168" on="0"/>
        <pt x="518" y="160" on="0"/>
        <pt x="526" y="149" on="1"/>
        <pt x="526" y="0" on="1"/>
      </contour>
    </TTGlyph>
    <TTGlyph name="Lslash" xMin="48" yMin="0" xMax="529" yMax="641">
      <contour>
        <pt x="48" y="0" on="1"/>
        <pt x="48" y="34" on="0"/>
        <pt x="64" y="39" on="1"/>
        <pt x="127" y="62" on="1"/>
        <pt x="127" y="307" on="1"/>
        <pt x="63" y="296" on="1"/>
        <pt x="48" y="308" on="0"/>
        <pt x="48" y="331" on="1"/>
        <pt x="48" y="334" on="1"/>
        <pt x="127" y="348" on="1"/>
        <pt x="127" y="574" on="1"/>
        <pt x="48" y="595" on="1"/>
        <pt x="48" y="615" on="0"/>
        <pt x="56" y="633" on="0"/>
        <pt x="67" y="641" on="1"/>
        <pt x="303" y="641" on="1"/>
        <pt x="303" y="607" on="0"/>
        <pt x="287" y="602" on="1"/>
        <pt x="213" y="579" on="1"/>
        <pt x="213" y="363" on="1"/>
        <pt x="328" y="384" on="1"/>
        <pt x="343" y="372" on="0"/>
        <pt x="343" y="351" on="1"/>
        <pt x="343" y="346" on="1"/>
        <pt x="213" y="323" on="1"/>
        <pt x="213" y="67" on="1"/>
        <pt x="462" y="46" on="1"/>
        <pt x="483" y="168" on="1"/>
        <pt x="503" y="168" on="0"/>
        <pt x="521" y="160" on="0"/>
        <pt x="529" y="149" on="1"/>
        <pt x="529" y="0" on="1"/>
      </contour>
    </TTGlyph>
    <TTGlyph name="M" xMin="27" yMin="-3" xMax="866" yMax="641">
      <contour>
        <pt x="27" y="0" on="1"/>
        <pt x="27" y="34" on="0"/>
        <pt x="43" y="40" on="1"/>
        <pt x="105" y="63" on="1"/>
        <pt x="152" y="574" on="1"/>
        <pt x="73" y="595" on="1"/>
        <pt x="73" y="615" on="0"/>
        <pt x="81" y="633" on="0"/>
        <pt x="92" y="641" on="1"/>
        <pt x="260" y="641" on="1"/>
        <pt x="448" y="151" on="1"/>
        <pt x="623" y="641" on="1"/>
        <pt x="824" y="641" on="1"/>
        <pt x="824" y="607" on="0"/>
        <pt x="808" y="602" on="1"/>
        <pt x="734" y="579" on="1"/>
        <pt x="775" y="67" on="1"/>
        <pt x="866" y="46" on="1"/>
        <pt x="866" y="27" on="0"/>
        <pt x="858" y="10" on="0"/>
        <pt x="846" y="0" on="1"/>
        <pt x="611" y="0" on="1"/>
        <pt x="611" y="33" on="0"/>
        <pt x="627" y="40" on="1"/>
        <pt x="690" y="63" on="1"/>
        <pt x="651" y="544" on="1"/>
        <pt x="460" y="23" on="1"/>
        <pt x="451" y="-3" on="0"/>
        <pt x="435" y="-3" on="1"/>
        <pt x="424" y="-3" on="0"/>
        <pt x="415" y="4" on="1"/>
        <pt x="207" y="544" on="1"/>
        <pt x="164" y="67" on="1"/>
        <pt x="254" y="46" on="1"/>
        <pt x="254" y="26" on="0"/>
        <pt x="246" y="9" on="0"/>
        <pt x="234" y="0" on="1"/>
      </contour>
    </TTGlyph>
    <TTGlyph name="N" xMin="45" yMin="-3" xMax="718" yMax="641">
      <contour>
        <pt x="45" y="0" on="1"/>
        <pt x="45" y="34" on="0"/>
        <pt x="61" y="39" on="1"/>
        <pt x="124" y="62" on="1"/>
        <pt x="124" y="574" on="1"/>
        <pt x="45" y="595" on="1"/>
        <pt x="45" y="615" on="0"/>
        <pt x="53" y="633" on="0"/>
        <pt x="64" y="641" on="1"/>
        <pt x="215" y="641" on="1"/>
        <pt x="573" y="157" on="1"/>
        <pt x="573" y="574" on="1"/>
        <pt x="494" y="595" on="1"/>
        <pt x="494" y="615" on="0"/>
        <pt x="502" y="633" on="0"/>
        <pt x="513" y="641" on="1"/>
        <pt x="718" y="641" on="1"/>
        <pt x="718" y="607" on="0"/>
        <pt x="702" y="602" on="1"/>
        <pt x="633" y="579" on="1"/>
        <pt x="633" y="27" on="1"/>
        <pt x="633" y="12" on="0"/>
        <pt x="615" y="-3" on="0"/>
        <pt x="590" y="-3" on="0"/>
        <pt x="580" y="3" on="1"/>
        <pt x="184" y="535" on="1"/>
        <pt x="184" y="67" on="1"/>
        <pt x="274" y="46" on="1"/>
        <pt x="274" y="26" on="0"/>
        <pt x="266" y="8" on="0"/>
        <pt x="255" y="0" on="1"/>
      </contour>
    </TTGlyph>
    <TTGlyph name="Ntilde" xMin="45" yMin="-3" xMax="718" yMax="833">
      <contour>
        <pt x="45" y="0" on="1"/>
        <pt x="45" y="34" on="0"/>
        <pt x="61" y="39" on="1"/>
        <pt x="124" y="62" on="1"/>
        <pt x="124" y="574" on="1"/>
        <pt x="45" y="595" on="1"/>
        <pt x="45" y="615" on="0"/>
        <pt x="53" y="633" on="0"/>
        <pt x="64" y="641" on="1"/>
        <pt x="215" y="641" on="1"/>
        <pt x="573" y="157" on="1"/>
        <pt x="573" y="574" on="1"/>
        <pt x="494" y="595" on="1"/>
        <pt x="494" y="615" on="0"/>
        <pt x="502" y="633" on="0"/>
        <pt x="513" y="641" on="1"/>
        <pt x="718" y="641" on="1"/>
        <pt x="718" y="607" on="0"/>
        <pt x="702" y="602" on="1"/>
        <pt x="633" y="579" on="1"/>
        <pt x="633" y="27" on="1"/>
        <pt x="633" y="12" on="0"/>
        <pt x="615" y="-3" on="0"/>
        <pt x="590" y="-3" on="0"/>
        <pt x="580" y="3" on="1"/>
        <pt x="184" y="535" on="1"/>
        <pt x="184" y="67" on="1"/>
        <pt x="274" y="46" on="1"/>
        <pt x="274" y="26" on="0"/>
        <pt x="266" y="8" on="0"/>
        <pt x="255" y="0" on="1"/>
      </contour>
      <contour>
        <pt x="206" y="737" on="1"/>
        <pt x="206" y="765" on="0"/>
        <pt x="273" y="824" on="0"/>
        <pt x="320" y="824" on="1"/>
        <pt x="345" y="824" on="0"/>
        <pt x="444" y="783" on="0"/>
        <pt x="467" y="783" on="1"/>
        <pt x="508" y="783" on="0"/>
        <pt x="537" y="833" on="1"/>
        <pt x="547" y="822" on="0"/>
        <pt x="547" y="808" on="1"/>
        <pt x="547" y="782" on="0"/>
        <pt x="473" y="722" on="0"/>
        <pt x="427" y="722" on="1"/>
        <pt x="403" y="722" on="0"/>
        <pt x="307" y="762" on="0"/>
        <pt x="284" y="762" on="1"/>
        <pt x="244" y="762" on="0"/>
        <pt x="216" y="714" on="1"/>
        <pt x="206" y="725" on="0"/>
      </contour>
    </TTGlyph>
    <TTGlyph name="O" xMin="48" yMin="-12" xMax="691" yMax="655">
      <contour>
        <pt x="86" y="127" on="0"/>
        <pt x="48" y="235" on="0"/>
        <pt x="48" y="363" on="0"/>
        <pt x="93" y="490" on="0"/>
        <pt x="175" y="593" on="0"/>
        <pt x="302" y="655" on="0"/>
        <pt x="378" y="655" on="1"/>
        <pt x="530" y="655" on="0"/>
        <pt x="691" y="476" on="0"/>
        <pt x="691" y="347" on="1"/>
        <pt x="691" y="210" on="0"/>
        <pt x="605" y="102" on="1"/>
        <pt x="564" y="50" on="0"/>
        <pt x="437" y="-12" on="0"/>
        <pt x="283" y="-12" on="0"/>
        <pt x="160" y="40" on="0"/>
      </contour>
      <contour>
        <pt x="257" y="606" on="0"/>
        <pt x="149" y="450" on="0"/>
        <pt x="149" y="204" on="0"/>
        <pt x="266" y="37" on="0"/>
        <pt x="479" y="37" on="0"/>
        <pt x="589" y="192" on="0"/>
        <pt x="589" y="439" on="0"/>
        <pt x="472" y="606" on="0"/>
      </contour>
    </TTGlyph>
    <TTGlyph name="OE" xMin="48" yMin="-12" xMax="915" yMax="655">
      <contour>
        <pt x="86" y="127" on="0"/>
        <pt x="48" y="235" on="0"/>
        <pt x="48" y="363" on="0"/>
        <pt x="93" y="490" on="0"/>
        <pt x="175" y="593" on="0"/>
        <pt x="302" y="655" on="0"/>
        <pt x="433" y="655" on="0"/>
        <pt x="483" y="641" on="1"/>
        <pt x="884" y="641" on="1"/>
        <pt x="884" y="488" on="1"/>
        <pt x="850" y="488" on="0"/>
        <pt x="845" y="504" on="1"/>
        <pt x="812" y="595" on="1"/>
        <pt x="589" y="579" on="1"/>
        <pt x="589" y="351" on="1"/>
        <pt x="779" y="351" on="1"/>
        <pt x="799" y="411" on="1"/>
        <pt x="816" y="411" on="0"/>
        <pt x="829" y="405" on="0"/>
        <pt x="838" y="395" on="1"/>
        <pt x="838" y="255" on="1"/>
        <pt x="829" y="245" on="0"/>
        <pt x="816" y="239" on="0"/>
        <pt x="799" y="239" on="1"/>
        <pt x="779" y="299" on="1"/>
        <pt x="589" y="299" on="1"/>
        <pt x="589" y="67" on="1"/>
        <pt x="838" y="46" on="1"/>
        <pt x="869" y="168" on="1"/>
        <pt x="889" y="168" on="0"/>
        <pt x="907" y="160" on="0"/>
        <pt x="915" y="149" on="1"/>
        <pt x="915" y="0" on="1"/>
        <pt x="450" y="0" on="1"/>
        <pt x="408" y="-12" on="0"/>
        <pt x="283" y="-12" on="0"/>
        <pt x="160" y="40" on="0"/>
      </contour>
      <contour>
        <pt x="257" y="606" on="0"/>
        <pt x="149" y="450" on="0"/>
        <pt x="149" y="204" on="0"/>
        <pt x="266" y="37" on="0"/>
        <pt x="368" y="37" on="1"/>
        <pt x="447" y="37" on="0"/>
        <pt x="503" y="82" on="1"/>
        <pt x="503" y="555" on="1"/>
        <pt x="447" y="606" on="0"/>
        <pt x="370" y="606" on="1"/>
      </contour>
    </TTGlyph>
    <TTGlyph name="Oacute" xMin="48" yMin="-12" xMax="691" yMax="858">
      <contour>
        <pt x="86" y="127" on="0"/>
        <pt x="48" y="235" on="0"/>
        <pt x="48" y="363" on="0"/>
        <pt x="93" y="490" on="0"/>
        <pt x="175" y="593" on="0"/>
        <pt x="302" y="655" on="0"/>
        <pt x="378" y="655" on="1"/>
        <pt x="530" y="655" on="0"/>
        <pt x="691" y="476" on="0"/>
        <pt x="691" y="347" on="1"/>
        <pt x="691" y="210" on="0"/>
        <pt x="605" y="102" on="1"/>
        <pt x="564" y="50" on="0"/>
        <pt x="437" y="-12" on="0"/>
        <pt x="283" y="-12" on="0"/>
        <pt x="160" y="40" on="0"/>
      </contour>
      <contour>
        <pt x="257" y="606" on="0"/>
        <pt x="149" y="450" on="0"/>
        <pt x="149" y="204" on="0"/>
        <pt x="266" y="37" on="0"/>
        <pt x="479" y="37" on="0"/>
        <pt x="589" y="192" on="0"/>
        <pt x="589" y="439" on="0"/>
        <pt x="472" y="606" on="0"/>
      </contour>
      <contour>
        <pt x="281" y="715" on="1"/>
        <pt x="267" y="723" on="0"/>
        <pt x="267" y="741" on="0"/>
        <pt x="268" y="743" on="1"/>
        <pt x="430" y="841" on="0"/>
        <pt x="462" y="852" on="1"/>
        <pt x="477" y="858" on="0"/>
        <pt x="504" y="858" on="0"/>
        <pt x="522" y="831" on="0"/>
        <pt x="522" y="816" on="1"/>
        <pt x="522" y="786" on="0"/>
        <pt x="338" y="732" on="1"/>
      </contour>
    </TTGlyph>
    <TTGlyph name="Ocircumflex" xMin="48" yMin="-12" xMax="691" yMax="858">
      <contour>
        <pt x="86" y="127" on="0"/>
        <pt x="48" y="235" on="0"/>
        <pt x="48" y="363" on="0"/>
        <pt x="93" y="490" on="0"/>
        <pt x="175" y="593" on="0"/>
        <pt x="302" y="655" on="0"/>
        <pt x="378" y="655" on="1"/>
        <pt x="530" y="655" on="0"/>
        <pt x="691" y="476" on="0"/>
        <pt x="691" y="347" on="1"/>
        <pt x="691" y="210" on="0"/>
        <pt x="605" y="102" on="1"/>
        <pt x="564" y="50" on="0"/>
        <pt x="437" y="-12" on="0"/>
        <pt x="283" y="-12" on="0"/>
        <pt x="160" y="40" on="0"/>
      </contour>
      <contour>
        <pt x="257" y="606" on="0"/>
        <pt x="149" y="450" on="0"/>
        <pt x="149" y="204" on="0"/>
        <pt x="266" y="37" on="0"/>
        <pt x="479" y="37" on="0"/>
        <pt x="589" y="192" on="0"/>
        <pt x="589" y="439" on="0"/>
        <pt x="472" y="606" on="0"/>
      </contour>
      <contour>
        <pt x="193" y="737" on="1"/>
        <pt x="194" y="743" on="1"/>
        <pt x="331" y="839" on="1"/>
        <pt x="358" y="858" on="0"/>
        <pt x="394" y="858" on="0"/>
        <pt x="419" y="839" on="1"/>
        <pt x="556" y="743" on="1"/>
        <pt x="557" y="740" on="0"/>
        <pt x="557" y="737" on="1"/>
        <pt x="557" y="723" on="0"/>
        <pt x="543" y="715" on="1"/>
        <pt x="375" y="787" on="1"/>
        <pt x="207" y="715" on="1"/>
        <pt x="193" y="723" on="0"/>
      </contour>
    </TTGlyph>
    <TTGlyph name="Odieresis" xMin="48" yMin="-12" xMax="691" yMax="828">
      <contour>
        <pt x="86" y="127" on="0"/>
        <pt x="48" y="235" on="0"/>
        <pt x="48" y="363" on="0"/>
        <pt x="93" y="490" on="0"/>
        <pt x="175" y="593" on="0"/>
        <pt x="302" y="655" on="0"/>
        <pt x="378" y="655" on="1"/>
        <pt x="530" y="655" on="0"/>
        <pt x="691" y="476" on="0"/>
        <pt x="691" y="347" on="1"/>
        <pt x="691" y="210" on="0"/>
        <pt x="605" y="102" on="1"/>
        <pt x="564" y="50" on="0"/>
        <pt x="437" y="-12" on="0"/>
        <pt x="283" y="-12" on="0"/>
        <pt x="160" y="40" on="0"/>
      </contour>
      <contour>
        <pt x="257" y="606" on="0"/>
        <pt x="149" y="450" on="0"/>
        <pt x="149" y="204" on="0"/>
        <pt x="266" y="37" on="0"/>
        <pt x="479" y="37" on="0"/>
        <pt x="589" y="192" on="0"/>
        <pt x="589" y="439" on="0"/>
        <pt x="472" y="606" on="0"/>
      </contour>
      <contour>
        <pt x="230" y="782" on="1"/>
        <pt x="230" y="800" on="0"/>
        <pt x="258" y="828" on="0"/>
        <pt x="299" y="828" on="0"/>
        <pt x="323" y="803" on="0"/>
        <pt x="323" y="764" on="0"/>
        <pt x="294" y="736" on="0"/>
        <pt x="276" y="736" on="1"/>
        <pt x="230" y="736" on="0"/>
      </contour>
      <contour>
        <pt x="437" y="782" on="1"/>
        <pt x="437" y="800" on="0"/>
        <pt x="465" y="828" on="0"/>
        <pt x="506" y="828" on="0"/>
        <pt x="530" y="803" on="0"/>
        <pt x="530" y="764" on="0"/>
        <pt x="501" y="736" on="0"/>
        <pt x="483" y="736" on="1"/>
        <pt x="437" y="736" on="0"/>
      </contour>
    </TTGlyph>
    <TTGlyph name="Ograve" xMin="48" yMin="-12" xMax="691" yMax="858">
      <contour>
        <pt x="86" y="127" on="0"/>
        <pt x="48" y="235" on="0"/>
        <pt x="48" y="363" on="0"/>
        <pt x="93" y="490" on="0"/>
        <pt x="175" y="593" on="0"/>
        <pt x="302" y="655" on="0"/>
        <pt x="378" y="655" on="1"/>
        <pt x="530" y="655" on="0"/>
        <pt x="691" y="476" on="0"/>
        <pt x="691" y="347" on="1"/>
        <pt x="691" y="210" on="0"/>
        <pt x="605" y="102" on="1"/>
        <pt x="564" y="50" on="0"/>
        <pt x="437" y="-12" on="0"/>
        <pt x="283" y="-12" on="0"/>
        <pt x="160" y="40" on="0"/>
      </contour>
      <contour>
        <pt x="257" y="606" on="0"/>
        <pt x="149" y="450" on="0"/>
        <pt x="149" y="204" on="0"/>
        <pt x="266" y="37" on="0"/>
        <pt x="479" y="37" on="0"/>
        <pt x="589" y="192" on="0"/>
        <pt x="589" y="439" on="0"/>
        <pt x="472" y="606" on="0"/>
      </contour>
      <contour>
        <pt x="219" y="816" on="1"/>
        <pt x="219" y="831" on="0"/>
        <pt x="237" y="858" on="0"/>
        <pt x="273" y="858" on="0"/>
        <pt x="349" y="818" on="0"/>
        <pt x="453" y="755" on="1"/>
        <pt x="473" y="743" on="1"/>
        <pt x="474" y="741" on="0"/>
        <pt x="474" y="723" on="0"/>
        <pt x="460" y="715" on="1"/>
        <pt x="289" y="766" on="0"/>
        <pt x="263" y="777" on="1"/>
        <pt x="219" y="796" on="0"/>
      </contour>
    </TTGlyph>
    <TTGlyph name="Oslash" xMin="48" yMin="-100" xMax="691" yMax="734">
      <contour>
        <pt x="134" y="542" on="1"/>
        <pt x="175" y="593" on="0"/>
        <pt x="302" y="655" on="0"/>
        <pt x="475" y="655" on="0"/>
        <pt x="545" y="616" on="1"/>
        <pt x="629" y="734" on="1"/>
        <pt x="665" y="734" on="0"/>
        <pt x="678" y="723" on="1"/>
        <pt x="681" y="720" on="0"/>
        <pt x="688" y="712" on="1"/>
        <pt x="595" y="581" on="1"/>
        <pt x="691" y="492" on="0"/>
        <pt x="691" y="347" on="1"/>
        <pt x="691" y="210" on="0"/>
        <pt x="605" y="102" on="1"/>
        <pt x="564" y="50" on="0"/>
        <pt x="437" y="-12" on="0"/>
        <pt x="266" y="-12" on="0"/>
        <pt x="199" y="24" on="1"/>
        <pt x="110" y="-100" on="1"/>
        <pt x="67" y="-100" on="0"/>
        <pt x="51" y="-78" on="1"/>
        <pt x="148" y="59" on="1"/>
        <pt x="48" y="146" on="0"/>
        <pt x="48" y="433" on="0"/>
      </contour>
      <contour>
        <pt x="257" y="606" on="0"/>
        <pt x="149" y="450" on="0"/>
        <pt x="149" y="210" on="0"/>
        <pt x="200" y="131" on="1"/>
        <pt x="502" y="555" on="1"/>
        <pt x="446" y="606" on="0"/>
        <pt x="370" y="606" on="1"/>
      </contour>
      <contour>
        <pt x="241" y="84" on="1"/>
        <pt x="294" y="37" on="0"/>
        <pt x="368" y="37" on="1"/>
        <pt x="479" y="37" on="0"/>
        <pt x="589" y="193" on="0"/>
        <pt x="589" y="429" on="0"/>
        <pt x="542" y="506" on="1"/>
      </contour>
    </TTGlyph>
    <TTGlyph name="Otilde" xMin="48" yMin="-12" xMax="691" yMax="833">
      <contour>
        <pt x="86" y="127" on="0"/>
        <pt x="48" y="235" on="0"/>
        <pt x="48" y="363" on="0"/>
        <pt x="93" y="490" on="0"/>
        <pt x="175" y="593" on="0"/>
        <pt x="302" y="655" on="0"/>
        <pt x="378" y="655" on="1"/>
        <pt x="530" y="655" on="0"/>
        <pt x="691" y="476" on="0"/>
        <pt x="691" y="347" on="1"/>
        <pt x="691" y="210" on="0"/>
        <pt x="605" y="102" on="1"/>
        <pt x="564" y="50" on="0"/>
        <pt x="437" y="-12" on="0"/>
        <pt x="283" y="-12" on="0"/>
        <pt x="160" y="40" on="0"/>
      </contour>
      <contour>
        <pt x="257" y="606" on="0"/>
        <pt x="149" y="450" on="0"/>
        <pt x="149" y="204" on="0"/>
        <pt x="266" y="37" on="0"/>
        <pt x="479" y="37" on="0"/>
        <pt x="589" y="192" on="0"/>
        <pt x="589" y="439" on="0"/>
        <pt x="472" y="606" on="0"/>
      </contour>
      <contour>
        <pt x="205" y="737" on="1"/>
        <pt x="205" y="765" on="0"/>
        <pt x="272" y="824" on="0"/>
        <pt x="319" y="824" on="1"/>
        <pt x="344" y="824" on="0"/>
        <pt x="443" y="783" on="0"/>
        <pt x="466" y="783" on="1"/>
        <pt x="507" y="783" on="0"/>
        <pt x="536" y="833" on="1"/>
        <pt x="546" y="822" on="0"/>
        <pt x="546" y="808" on="1"/>
        <pt x="546" y="782" on="0"/>
        <pt x="472" y="722" on="0"/>
        <pt x="426" y="722" on="1"/>
        <pt x="402" y="722" on="0"/>
        <pt x="306" y="762" on="0"/>
        <pt x="283" y="762" on="1"/>
        <pt x="243" y="762" on="0"/>
        <pt x="215" y="714" on="1"/>
        <pt x="205" y="725" on="0"/>
      </contour>
    </TTGlyph>
    <TTGlyph name="P" xMin="45" yMin="0" xMax="530" yMax="641">
      <contour>
        <pt x="45" y="0" on="1"/>
        <pt x="45" y="34" on="0"/>
        <pt x="61" y="39" on="1"/>
        <pt x="124" y="62" on="1"/>
        <pt x="124" y="574" on="1"/>
        <pt x="45" y="595" on="1"/>
        <pt x="45" y="628" on="0"/>
        <pt x="64" y="641" on="1"/>
        <pt x="312" y="641" on="1"/>
        <pt x="418" y="641" on="0"/>
        <pt x="530" y="542" on="0"/>
        <pt x="530" y="390" on="0"/>
        <pt x="396" y="263" on="0"/>
        <pt x="289" y="263" on="1"/>
        <pt x="246" y="263" on="0"/>
        <pt x="210" y="272" on="1"/>
        <pt x="210" y="67" on="1"/>
        <pt x="310" y="46" on="1"/>
        <pt x="310" y="26" on="0"/>
        <pt x="302" y="8" on="0"/>
        <pt x="291" y="0" on="1"/>
      </contour>
      <contour>
        <pt x="210" y="316" on="1"/>
        <pt x="239" y="308" on="0"/>
        <pt x="286" y="308" on="1"/>
        <pt x="352" y="308" on="0"/>
        <pt x="432" y="400" on="0"/>
        <pt x="432" y="515" on="0"/>
        <pt x="363" y="591" on="0"/>
        <pt x="299" y="591" on="1"/>
        <pt x="268" y="591" on="0"/>
        <pt x="210" y="579" on="1"/>
      </contour>
    </TTGlyph>
    <TTGlyph name="Q" xMin="48" yMin="-183" xMax="1015" yMax="655">
      <contour>
        <pt x="86" y="127" on="0"/>
        <pt x="48" y="235" on="0"/>
        <pt x="48" y="363" on="0"/>
        <pt x="93" y="490" on="0"/>
        <pt x="175" y="593" on="0"/>
        <pt x="302" y="655" on="0"/>
        <pt x="378" y="655" on="1"/>
        <pt x="530" y="655" on="0"/>
        <pt x="691" y="476" on="0"/>
        <pt x="691" y="347" on="1"/>
        <pt x="691" y="243" on="0"/>
        <pt x="586" y="58" on="0"/>
        <pt x="494" y="16" on="1"/>
        <pt x="594" y="-25" on="0"/>
        <pt x="884" y="-105" on="0"/>
        <pt x="1005" y="-105" on="1"/>
        <pt x="1015" y="-115" on="0"/>
        <pt x="1015" y="-150" on="0"/>
        <pt x="973" y="-183" on="0"/>
        <pt x="932" y="-183" on="1"/>
        <pt x="848" y="-183" on="0"/>
        <pt x="544" y="-76" on="0"/>
        <pt x="400" y="-9" on="1"/>
        <pt x="380" y="-12" on="0"/>
        <pt x="361" y="-12" on="1"/>
        <pt x="283" y="-12" on="0"/>
        <pt x="160" y="40" on="0"/>
      </contour>
      <contour>
        <pt x="257" y="606" on="0"/>
        <pt x="149" y="450" on="0"/>
        <pt x="149" y="204" on="0"/>
        <pt x="266" y="37" on="0"/>
        <pt x="479" y="37" on="0"/>
        <pt x="589" y="192" on="0"/>
        <pt x="589" y="439" on="0"/>
        <pt x="472" y="606" on="0"/>
      </contour>
    </TTGlyph>
    <TTGlyph name="R" xMin="45" yMin="-12" xMax="627" yMax="641">
      <contour>
        <pt x="45" y="0" on="1"/>
        <pt x="45" y="34" on="0"/>
        <pt x="61" y="39" on="1"/>
        <pt x="124" y="62" on="1"/>
        <pt x="124" y="574" on="1"/>
        <pt x="45" y="595" on="1"/>
        <pt x="45" y="628" on="0"/>
        <pt x="64" y="641" on="1"/>
        <pt x="312" y="641" on="1"/>
        <pt x="415" y="641" on="0"/>
        <pt x="527" y="549" on="0"/>
        <pt x="527" y="426" on="0"/>
        <pt x="457" y="328" on="0"/>
        <pt x="394" y="303" on="1"/>
        <pt x="512" y="111" on="0"/>
        <pt x="627" y="24" on="1"/>
        <pt x="627" y="10" on="0"/>
        <pt x="600" y="-12" on="0"/>
        <pt x="578" y="-12" on="1"/>
        <pt x="518" y="-12" on="0"/>
        <pt x="394" y="148" on="0"/>
        <pt x="324" y="286" on="1"/>
        <pt x="309" y="283" on="0"/>
        <pt x="251" y="283" on="0"/>
        <pt x="210" y="295" on="1"/>
        <pt x="210" y="67" on="1"/>
        <pt x="300" y="46" on="1"/>
        <pt x="300" y="26" on="0"/>
        <pt x="292" y="8" on="0"/>
        <pt x="281" y="0" on="1"/>
      </contour>
      <contour>
        <pt x="210" y="340" on="1"/>
        <pt x="238" y="332" on="0"/>
        <pt x="274" y="332" on="1"/>
        <pt x="340" y="332" on="0"/>
        <pt x="431" y="401" on="0"/>
        <pt x="431" y="468" on="1"/>
        <pt x="431" y="518" on="0"/>
        <pt x="362" y="591" on="0"/>
        <pt x="299" y="591" on="1"/>
        <pt x="268" y="591" on="0"/>
        <pt x="210" y="579" on="1"/>
      </contour>
    </TTGlyph>
    <TTGlyph name="S" xMin="43" yMin="-12" xMax="477" yMax="655">
      <contour>
        <pt x="43" y="50" on="1"/>
        <pt x="59" y="185" on="1"/>
        <pt x="75" y="201" on="0"/>
        <pt x="102" y="201" on="1"/>
        <pt x="110" y="201" on="0"/>
        <pt x="116" y="198" on="1"/>
        <pt x="127" y="76" on="1"/>
        <pt x="143" y="62" on="0"/>
        <pt x="211" y="35" on="0"/>
        <pt x="313" y="35" on="0"/>
        <pt x="385" y="100" on="0"/>
        <pt x="385" y="202" on="0"/>
        <pt x="320" y="261" on="0"/>
        <pt x="228" y="296" on="0"/>
        <pt x="136" y="336" on="0"/>
        <pt x="71" y="416" on="0"/>
        <pt x="71" y="553" on="0"/>
        <pt x="170" y="655" on="0"/>
        <pt x="258" y="655" on="1"/>
        <pt x="298" y="655" on="0"/>
        <pt x="385" y="630" on="0"/>
        <pt x="415" y="616" on="0"/>
        <pt x="448" y="599" on="1"/>
        <pt x="429" y="463" on="1"/>
        <pt x="385" y="466" on="0"/>
        <pt x="382" y="484" on="1"/>
        <pt x="368" y="570" on="1"/>
        <pt x="316" y="608" on="0"/>
        <pt x="208" y="608" on="0"/>
        <pt x="150" y="551" on="0"/>
        <pt x="150" y="500" on="1"/>
        <pt x="150" y="441" on="0"/>
        <pt x="215" y="408" on="1"/>
        <pt x="244" y="394" on="0"/>
        <pt x="314" y="367" on="0"/>
        <pt x="383" y="335" on="0"/>
        <pt x="441" y="294" on="0"/>
        <pt x="477" y="224" on="0"/>
        <pt x="477" y="178" on="1"/>
        <pt x="477" y="98" on="0"/>
        <pt x="362" y="-12" on="0"/>
        <pt x="156" y="-12" on="0"/>
      </contour>
    </TTGlyph>
    <TTGlyph name="Scaron" xMin="43" yMin="-12" xMax="477" yMax="858">
      <contour>
        <pt x="43" y="50" on="1"/>
        <pt x="59" y="185" on="1"/>
        <pt x="73" y="199" on="0"/>
        <pt x="107" y="199" on="1"/>
        <pt x="113" y="199" on="0"/>
        <pt x="116" y="198" on="1"/>
        <pt x="127" y="76" on="1"/>
        <pt x="143" y="62" on="0"/>
        <pt x="211" y="35" on="0"/>
        <pt x="313" y="35" on="0"/>
        <pt x="385" y="100" on="0"/>
        <pt x="385" y="202" on="0"/>
        <pt x="320" y="261" on="0"/>
        <pt x="228" y="296" on="0"/>
        <pt x="136" y="336" on="0"/>
        <pt x="71" y="416" on="0"/>
        <pt x="71" y="553" on="0"/>
        <pt x="170" y="655" on="0"/>
        <pt x="258" y="655" on="1"/>
        <pt x="298" y="655" on="0"/>
        <pt x="385" y="630" on="0"/>
        <pt x="415" y="616" on="0"/>
        <pt x="448" y="599" on="1"/>
        <pt x="429" y="463" on="1"/>
        <pt x="385" y="466" on="0"/>
        <pt x="382" y="484" on="1"/>
        <pt x="368" y="570" on="1"/>
        <pt x="316" y="608" on="0"/>
        <pt x="208" y="608" on="0"/>
        <pt x="150" y="551" on="0"/>
        <pt x="150" y="500" on="1"/>
        <pt x="150" y="441" on="0"/>
        <pt x="215" y="408" on="1"/>
        <pt x="244" y="394" on="0"/>
        <pt x="314" y="367" on="0"/>
        <pt x="383" y="335" on="0"/>
        <pt x="441" y="294" on="0"/>
        <pt x="477" y="224" on="0"/>
        <pt x="477" y="178" on="1"/>
        <pt x="477" y="99" on="0"/>
        <pt x="363" y="-12" on="0"/>
        <pt x="156" y="-12" on="0"/>
      </contour>
      <contour>
        <pt x="76" y="836" on="1"/>
        <pt x="76" y="850" on="0"/>
        <pt x="90" y="858" on="1"/>
        <pt x="258" y="786" on="1"/>
        <pt x="426" y="858" on="1"/>
        <pt x="440" y="850" on="0"/>
        <pt x="440" y="836" on="1"/>
        <pt x="439" y="830" on="1"/>
        <pt x="302" y="734" on="1"/>
        <pt x="275" y="715" on="0"/>
        <pt x="240" y="715" on="0"/>
        <pt x="214" y="734" on="1"/>
        <pt x="77" y="830" on="1"/>
        <pt x="76" y="833" on="0"/>
      </contour>
    </TTGlyph>
    <TTGlyph name="T" xMin="23" yMin="0" xMax="577" yMax="641">
      <contour>
        <pt x="23" y="478" on="1"/>
        <pt x="23" y="641" on="1"/>
        <pt x="577" y="641" on="1"/>
        <pt x="577" y="478" on="1"/>
        <pt x="542" y="478" on="0"/>
        <pt x="538" y="494" on="1"/>
        <pt x="505" y="595" on="1"/>
        <pt x="343" y="579" on="1"/>
        <pt x="343" y="67" on="1"/>
        <pt x="433" y="46" on="1"/>
        <pt x="433" y="26" on="0"/>
        <pt x="425" y="8" on="0"/>
        <pt x="414" y="0" on="1"/>
        <pt x="178" y="0" on="1"/>
        <pt x="178" y="34" on="0"/>
        <pt x="194" y="39" on="1"/>
        <pt x="257" y="62" on="1"/>
        <pt x="257" y="579" on="1"/>
        <pt x="95" y="595" on="1"/>
        <pt x="62" y="494" on="1"/>
        <pt x="58" y="478" on="0"/>
      </contour>
    </TTGlyph>
    <TTGlyph name="Thorn" xMin="45" yMin="0" xMax="530" yMax="641">
      <contour>
        <pt x="45" y="0" on="1"/>
        <pt x="45" y="34" on="0"/>
        <pt x="61" y="39" on="1"/>
        <pt x="124" y="62" on="1"/>
        <pt x="124" y="574" on="1"/>
        <pt x="45" y="595" on="1"/>
        <pt x="45" y="615" on="0"/>
        <pt x="53" y="633" on="0"/>
        <pt x="64" y="641" on="1"/>
        <pt x="300" y="641" on="1"/>
        <pt x="300" y="607" on="0"/>
        <pt x="284" y="602" on="1"/>
        <pt x="210" y="579" on="1"/>
        <pt x="210" y="520" on="1"/>
        <pt x="312" y="520" on="1"/>
        <pt x="418" y="520" on="0"/>
        <pt x="530" y="421" on="0"/>
        <pt x="530" y="269" on="0"/>
        <pt x="396" y="142" on="0"/>
        <pt x="289" y="142" on="1"/>
        <pt x="246" y="142" on="0"/>
        <pt x="210" y="151" on="1"/>
        <pt x="210" y="67" on="1"/>
        <pt x="300" y="46" on="1"/>
        <pt x="300" y="26" on="0"/>
        <pt x="292" y="8" on="0"/>
        <pt x="281" y="0" on="1"/>
      </contour>
      <contour>
        <pt x="210" y="195" on="1"/>
        <pt x="240" y="191" on="1"/>
        <pt x="269" y="187" on="0"/>
        <pt x="285" y="187" on="1"/>
        <pt x="351" y="187" on="0"/>
        <pt x="432" y="279" on="0"/>
        <pt x="432" y="394" on="0"/>
        <pt x="363" y="470" on="0"/>
        <pt x="299" y="470" on="1"/>
        <pt x="268" y="470" on="0"/>
        <pt x="210" y="458" on="1"/>
      </contour>
    </TTGlyph>
    <TTGlyph name="U" xMin="28" yMin="-12" xMax="696" yMax="641">
      <contour>
        <pt x="28" y="595" on="1"/>
        <pt x="28" y="615" on="0"/>
        <pt x="36" y="633" on="0"/>
        <pt x="47" y="641" on="1"/>
        <pt x="287" y="641" on="1"/>
        <pt x="287" y="607" on="0"/>
        <pt x="271" y="602" on="1"/>
        <pt x="197" y="579" on="1"/>
        <pt x="197" y="204" on="1"/>
        <pt x="197" y="41" on="0"/>
        <pt x="366" y="41" on="1"/>
        <pt x="455" y="41" on="0"/>
        <pt x="545" y="116" on="0"/>
        <pt x="545" y="206" on="1"/>
        <pt x="545" y="574" on="1"/>
        <pt x="466" y="595" on="1"/>
        <pt x="466" y="615" on="0"/>
        <pt x="474" y="633" on="0"/>
        <pt x="485" y="641" on="1"/>
        <pt x="696" y="641" on="1"/>
        <pt x="696" y="607" on="0"/>
        <pt x="680" y="602" on="1"/>
        <pt x="611" y="579" on="1"/>
        <pt x="611" y="214" on="1"/>
        <pt x="611" y="112" on="0"/>
        <pt x="487" y="-12" on="0"/>
        <pt x="235" y="-12" on="0"/>
        <pt x="107" y="106" on="0"/>
        <pt x="107" y="211" on="1"/>
        <pt x="107" y="574" on="1"/>
      </contour>
    </TTGlyph>
    <TTGlyph name="Uacute" xMin="28" yMin="-12" xMax="696" yMax="858">
      <contour>
        <pt x="28" y="595" on="1"/>
        <pt x="28" y="615" on="0"/>
        <pt x="36" y="633" on="0"/>
        <pt x="47" y="641" on="1"/>
        <pt x="287" y="641" on="1"/>
        <pt x="287" y="607" on="0"/>
        <pt x="271" y="602" on="1"/>
        <pt x="197" y="579" on="1"/>
        <pt x="197" y="204" on="1"/>
        <pt x="197" y="41" on="0"/>
        <pt x="366" y="41" on="1"/>
        <pt x="455" y="41" on="0"/>
        <pt x="545" y="116" on="0"/>
        <pt x="545" y="206" on="1"/>
        <pt x="545" y="574" on="1"/>
        <pt x="466" y="595" on="1"/>
        <pt x="466" y="615" on="0"/>
        <pt x="474" y="633" on="0"/>
        <pt x="485" y="641" on="1"/>
        <pt x="696" y="641" on="1"/>
        <pt x="696" y="607" on="0"/>
        <pt x="680" y="602" on="1"/>
        <pt x="611" y="579" on="1"/>
        <pt x="611" y="214" on="1"/>
        <pt x="611" y="112" on="0"/>
        <pt x="487" y="-12" on="0"/>
        <pt x="235" y="-12" on="0"/>
        <pt x="107" y="106" on="0"/>
        <pt x="107" y="211" on="1"/>
        <pt x="107" y="574" on="1"/>
      </contour>
      <contour>
        <pt x="304" y="715" on="1"/>
        <pt x="290" y="723" on="0"/>
        <pt x="290" y="741" on="0"/>
        <pt x="291" y="743" on="1"/>
        <pt x="453" y="841" on="0"/>
        <pt x="485" y="852" on="1"/>
        <pt x="500" y="858" on="0"/>
        <pt x="527" y="858" on="0"/>
        <pt x="545" y="831" on="0"/>
        <pt x="545" y="816" on="1"/>
        <pt x="545" y="786" on="0"/>
        <pt x="361" y="732" on="1"/>
      </contour>
    </TTGlyph>
    <TTGlyph name="Ucircumflex" xMin="28" yMin="-12" xMax="696" yMax="858">
      <contour>
        <pt x="28" y="595" on="1"/>
        <pt x="28" y="615" on="0"/>
        <pt x="36" y="633" on="0"/>
        <pt x="47" y="641" on="1"/>
        <pt x="287" y="641" on="1"/>
        <pt x="287" y="607" on="0"/>
        <pt x="271" y="602" on="1"/>
        <pt x="197" y="579" on="1"/>
        <pt x="197" y="204" on="1"/>
        <pt x="197" y="41" on="0"/>
        <pt x="366" y="41" on="1"/>
        <pt x="455" y="41" on="0"/>
        <pt x="545" y="116" on="0"/>
        <pt x="545" y="206" on="1"/>
        <pt x="545" y="574" on="1"/>
        <pt x="466" y="595" on="1"/>
        <pt x="466" y="615" on="0"/>
        <pt x="474" y="633" on="0"/>
        <pt x="485" y="641" on="1"/>
        <pt x="696" y="641" on="1"/>
        <pt x="696" y="607" on="0"/>
        <pt x="680" y="602" on="1"/>
        <pt x="611" y="579" on="1"/>
        <pt x="611" y="214" on="1"/>
        <pt x="611" y="112" on="0"/>
        <pt x="487" y="-12" on="0"/>
        <pt x="235" y="-12" on="0"/>
        <pt x="107" y="106" on="0"/>
        <pt x="107" y="211" on="1"/>
        <pt x="107" y="574" on="1"/>
      </contour>
      <contour>
        <pt x="191" y="737" on="1"/>
        <pt x="192" y="743" on="1"/>
        <pt x="329" y="839" on="1"/>
        <pt x="356" y="858" on="0"/>
        <pt x="392" y="858" on="0"/>
        <pt x="417" y="839" on="1"/>
        <pt x="554" y="743" on="1"/>
        <pt x="555" y="740" on="0"/>
        <pt x="555" y="737" on="1"/>
        <pt x="555" y="723" on="0"/>
        <pt x="541" y="715" on="1"/>
        <pt x="373" y="787" on="1"/>
        <pt x="205" y="715" on="1"/>
        <pt x="191" y="723" on="0"/>
      </contour>
    </TTGlyph>
    <TTGlyph name="Udieresis" xMin="28" yMin="-12" xMax="696" yMax="848">
      <contour>
        <pt x="28" y="595" on="1"/>
        <pt x="28" y="615" on="0"/>
        <pt x="36" y="633" on="0"/>
        <pt x="47" y="641" on="1"/>
        <pt x="287" y="641" on="1"/>
        <pt x="287" y="607" on="0"/>
        <pt x="271" y="602" on="1"/>
        <pt x="197" y="579" on="1"/>
        <pt x="197" y="204" on="1"/>
        <pt x="197" y="41" on="0"/>
        <pt x="366" y="41" on="1"/>
        <pt x="455" y="41" on="0"/>
        <pt x="545" y="116" on="0"/>
        <pt x="545" y="206" on="1"/>
        <pt x="545" y="574" on="1"/>
        <pt x="466" y="595" on="1"/>
        <pt x="466" y="615" on="0"/>
        <pt x="474" y="633" on="0"/>
        <pt x="485" y="641" on="1"/>
        <pt x="696" y="641" on="1"/>
        <pt x="696" y="607" on="0"/>
        <pt x="680" y="602" on="1"/>
        <pt x="611" y="579" on="1"/>
        <pt x="611" y="214" on="1"/>
        <pt x="611" y="112" on="0"/>
        <pt x="487" y="-12" on="0"/>
        <pt x="235" y="-12" on="0"/>
        <pt x="107" y="106" on="0"/>
        <pt x="107" y="211" on="1"/>
        <pt x="107" y="574" on="1"/>
      </contour>
      <contour>
        <pt x="223" y="802" on="1"/>
        <pt x="223" y="820" on="0"/>
        <pt x="251" y="848" on="0"/>
        <pt x="292" y="848" on="0"/>
        <pt x="316" y="823" on="0"/>
        <pt x="316" y="784" on="0"/>
        <pt x="287" y="756" on="0"/>
        <pt x="269" y="756" on="1"/>
        <pt x="223" y="756" on="0"/>
      </contour>
      <contour>
        <pt x="430" y="802" on="1"/>
        <pt x="430" y="820" on="0"/>
        <pt x="458" y="848" on="0"/>
        <pt x="499" y="848" on="0"/>
        <pt x="523" y="823" on="0"/>
        <pt x="523" y="784" on="0"/>
        <pt x="494" y="756" on="0"/>
        <pt x="476" y="756" on="1"/>
        <pt x="430" y="756" on="0"/>
      </contour>
    </TTGlyph>
    <TTGlyph name="Ugrave" xMin="28" yMin="-12" xMax="696" yMax="858">
      <contour>
        <pt x="28" y="595" on="1"/>
        <pt x="28" y="615" on="0"/>
        <pt x="36" y="633" on="0"/>
        <pt x="47" y="641" on="1"/>
        <pt x="287" y="641" on="1"/>
        <pt x="287" y="607" on="0"/>
        <pt x="271" y="602" on="1"/>
        <pt x="197" y="579" on="1"/>
        <pt x="197" y="204" on="1"/>
        <pt x="197" y="41" on="0"/>
        <pt x="366" y="41" on="1"/>
        <pt x="455" y="41" on="0"/>
        <pt x="545" y="116" on="0"/>
        <pt x="545" y="206" on="1"/>
        <pt x="545" y="574" on="1"/>
        <pt x="466" y="595" on="1"/>
        <pt x="466" y="615" on="0"/>
        <pt x="474" y="633" on="0"/>
        <pt x="485" y="641" on="1"/>
        <pt x="696" y="641" on="1"/>
        <pt x="696" y="607" on="0"/>
        <pt x="680" y="602" on="1"/>
        <pt x="611" y="579" on="1"/>
        <pt x="611" y="214" on="1"/>
        <pt x="611" y="112" on="0"/>
        <pt x="487" y="-12" on="0"/>
        <pt x="235" y="-12" on="0"/>
        <pt x="107" y="106" on="0"/>
        <pt x="107" y="211" on="1"/>
        <pt x="107" y="574" on="1"/>
      </contour>
      <contour>
        <pt x="196" y="816" on="1"/>
        <pt x="196" y="831" on="0"/>
        <pt x="214" y="858" on="0"/>
        <pt x="250" y="858" on="0"/>
        <pt x="326" y="818" on="0"/>
        <pt x="430" y="755" on="1"/>
        <pt x="450" y="743" on="1"/>
        <pt x="451" y="741" on="0"/>
        <pt x="451" y="723" on="0"/>
        <pt x="437" y="715" on="1"/>
        <pt x="266" y="766" on="0"/>
        <pt x="240" y="777" on="1"/>
        <pt x="196" y="796" on="0"/>
      </contour>
    </TTGlyph>
    <TTGlyph name="V" xMin="-14" yMin="-12" xMax="651" yMax="641">
      <contour>
        <pt x="-14" y="595" on="1"/>
        <pt x="-14" y="615" on="0"/>
        <pt x="-6" y="633" on="0"/>
        <pt x="5" y="641" on="1"/>
        <pt x="241" y="641" on="1"/>
        <pt x="241" y="607" on="0"/>
        <pt x="225" y="602" on="1"/>
        <pt x="162" y="579" on="1"/>
        <pt x="341" y="112" on="1"/>
        <pt x="511" y="574" on="1"/>
        <pt x="422" y="595" on="1"/>
        <pt x="422" y="615" on="0"/>
        <pt x="430" y="633" on="0"/>
        <pt x="441" y="641" on="1"/>
        <pt x="651" y="641" on="1"/>
        <pt x="651" y="607" on="0"/>
        <pt x="635" y="602" on="1"/>
        <pt x="573" y="579" on="1"/>
        <pt x="368" y="25" on="1"/>
        <pt x="354" y="-12" on="0"/>
        <pt x="328" y="-12" on="1"/>
        <pt x="312" y="-12" on="0"/>
        <pt x="296" y="-5" on="1"/>
        <pt x="72" y="574" on="1"/>
      </contour>
    </TTGlyph>
    <TTGlyph name="W" xMin="-7" yMin="-12" xMax="952" yMax="641">
      <contour>
        <pt x="-7" y="595" on="1"/>
        <pt x="-7" y="615" on="0"/>
        <pt x="1" y="633" on="0"/>
        <pt x="12" y="641" on="1"/>
        <pt x="247" y="641" on="1"/>
        <pt x="247" y="607" on="0"/>
        <pt x="231" y="602" on="1"/>
        <pt x="158" y="579" on="1"/>
        <pt x="313" y="120" on="1"/>
        <pt x="454" y="579" on="1"/>
        <pt x="519" y="579" on="1"/>
        <pt x="670" y="120" on="1"/>
        <pt x="802" y="574" on="1"/>
        <pt x="723" y="595" on="1"/>
        <pt x="723" y="615" on="0"/>
        <pt x="731" y="633" on="0"/>
        <pt x="742" y="641" on="1"/>
        <pt x="952" y="641" on="1"/>
        <pt x="952" y="607" on="0"/>
        <pt x="936" y="602" on="1"/>
        <pt x="863" y="579" on="1"/>
        <pt x="699" y="25" on="1"/>
        <pt x="695" y="10" on="0"/>
        <pt x="666" y="-12" on="0"/>
        <pt x="637" y="-12" on="0"/>
        <pt x="621" y="-5" on="1"/>
        <pt x="473" y="449" on="1"/>
        <pt x="342" y="25" on="1"/>
        <pt x="337" y="9" on="0"/>
        <pt x="310" y="-12" on="0"/>
        <pt x="280" y="-12" on="0"/>
        <pt x="264" y="-5" on="1"/>
        <pt x="71" y="574" on="1"/>
      </contour>
    </TTGlyph>
    <TTGlyph name="X" xMin="7" yMin="0" xMax="628" yMax="641">
      <contour>
        <pt x="7" y="0" on="1"/>
        <pt x="7" y="32" on="0"/>
        <pt x="23" y="39" on="1"/>
        <pt x="85" y="62" on="1"/>
        <pt x="261" y="326" on="1"/>
        <pt x="95" y="574" on="1"/>
        <pt x="17" y="595" on="1"/>
        <pt x="17" y="615" on="0"/>
        <pt x="25" y="633" on="0"/>
        <pt x="36" y="641" on="1"/>
        <pt x="285" y="641" on="1"/>
        <pt x="285" y="607" on="0"/>
        <pt x="269" y="602" on="1"/>
        <pt x="195" y="579" on="1"/>
        <pt x="329" y="379" on="1"/>
        <pt x="457" y="574" on="1"/>
        <pt x="378" y="595" on="1"/>
        <pt x="378" y="615" on="0"/>
        <pt x="386" y="633" on="0"/>
        <pt x="397" y="641" on="1"/>
        <pt x="617" y="641" on="1"/>
        <pt x="617" y="607" on="0"/>
        <pt x="601" y="602" on="1"/>
        <pt x="527" y="579" on="1"/>
        <pt x="363" y="329" on="1"/>
        <pt x="538" y="67" on="1"/>
        <pt x="628" y="46" on="1"/>
        <pt x="628" y="26" on="0"/>
        <pt x="620" y="8" on="0"/>
        <pt x="609" y="0" on="1"/>
        <pt x="360" y="0" on="1"/>
        <pt x="360" y="32" on="0"/>
        <pt x="376" y="39" on="1"/>
        <pt x="438" y="62" on="1"/>
        <pt x="295" y="275" on="1"/>
        <pt x="156" y="67" on="1"/>
        <pt x="246" y="46" on="1"/>
        <pt x="246" y="26" on="0"/>
        <pt x="238" y="8" on="0"/>
        <pt x="227" y="0" on="1"/>
      </contour>
    </TTGlyph>
    <TTGlyph name="Y" xMin="-14" yMin="0" xMax="617" yMax="641">
      <contour>
        <pt x="-14" y="595" on="1"/>
        <pt x="-14" y="615" on="0"/>
        <pt x="-6" y="633" on="0"/>
        <pt x="5" y="641" on="1"/>
        <pt x="253" y="641" on="1"/>
        <pt x="253" y="607" on="0"/>
        <pt x="237" y="602" on="1"/>
        <pt x="163" y="579" on="1"/>
        <pt x="325" y="322" on="1"/>
        <pt x="460" y="574" on="1"/>
        <pt x="381" y="595" on="1"/>
        <pt x="381" y="615" on="0"/>
        <pt x="389" y="633" on="0"/>
        <pt x="400" y="641" on="1"/>
        <pt x="617" y="641" on="1"/>
        <pt x="617" y="607" on="0"/>
        <pt x="601" y="602" on="1"/>
        <pt x="527" y="579" on="1"/>
        <pt x="352" y="260" on="1"/>
        <pt x="352" y="67" on="1"/>
        <pt x="442" y="46" on="1"/>
        <pt x="442" y="26" on="0"/>
        <pt x="434" y="8" on="0"/>
        <pt x="423" y="0" on="1"/>
        <pt x="187" y="0" on="1"/>
        <pt x="187" y="34" on="0"/>
        <pt x="203" y="39" on="1"/>
        <pt x="266" y="62" on="1"/>
        <pt x="266" y="260" on="1"/>
        <pt x="65" y="574" on="1"/>
      </contour>
    </TTGlyph>
    <TTGlyph name="Yacute" xMin="-14" yMin="0" xMax="617" yMax="858">
      <contour>
        <pt x="-14" y="595" on="1"/>
        <pt x="-14" y="615" on="0"/>
        <pt x="-6" y="633" on="0"/>
        <pt x="5" y="641" on="1"/>
        <pt x="253" y="641" on="1"/>
        <pt x="253" y="607" on="0"/>
        <pt x="237" y="602" on="1"/>
        <pt x="163" y="579" on="1"/>
        <pt x="325" y="322" on="1"/>
        <pt x="460" y="574" on="1"/>
        <pt x="381" y="595" on="1"/>
        <pt x="381" y="615" on="0"/>
        <pt x="389" y="633" on="0"/>
        <pt x="400" y="641" on="1"/>
        <pt x="617" y="641" on="1"/>
        <pt x="617" y="607" on="0"/>
        <pt x="601" y="602" on="1"/>
        <pt x="527" y="579" on="1"/>
        <pt x="352" y="260" on="1"/>
        <pt x="352" y="67" on="1"/>
        <pt x="442" y="46" on="1"/>
        <pt x="442" y="26" on="0"/>
        <pt x="434" y="8" on="0"/>
        <pt x="423" y="0" on="1"/>
        <pt x="187" y="0" on="1"/>
        <pt x="187" y="34" on="0"/>
        <pt x="203" y="39" on="1"/>
        <pt x="266" y="62" on="1"/>
        <pt x="266" y="260" on="1"/>
        <pt x="65" y="574" on="1"/>
      </contour>
      <contour>
        <pt x="226" y="715" on="1"/>
        <pt x="212" y="723" on="0"/>
        <pt x="212" y="741" on="0"/>
        <pt x="213" y="743" on="1"/>
        <pt x="375" y="841" on="0"/>
        <pt x="407" y="852" on="1"/>
        <pt x="422" y="858" on="0"/>
        <pt x="449" y="858" on="0"/>
        <pt x="467" y="831" on="0"/>
        <pt x="467" y="816" on="1"/>
        <pt x="467" y="786" on="0"/>
        <pt x="283" y="732" on="1"/>
      </contour>
    </TTGlyph>
    <TTGlyph name="Ydieresis" xMin="-14" yMin="0" xMax="617" yMax="848">
      <contour>
        <pt x="-14" y="595" on="1"/>
        <pt x="-14" y="615" on="0"/>
        <pt x="-6" y="633" on="0"/>
        <pt x="5" y="641" on="1"/>
        <pt x="253" y="641" on="1"/>
        <pt x="253" y="607" on="0"/>
        <pt x="237" y="602" on="1"/>
        <pt x="163" y="579" on="1"/>
        <pt x="325" y="322" on="1"/>
        <pt x="460" y="574" on="1"/>
        <pt x="381" y="595" on="1"/>
        <pt x="381" y="615" on="0"/>
        <pt x="389" y="633" on="0"/>
        <pt x="400" y="641" on="1"/>
        <pt x="617" y="641" on="1"/>
        <pt x="617" y="607" on="0"/>
        <pt x="601" y="602" on="1"/>
        <pt x="527" y="579" on="1"/>
        <pt x="352" y="260" on="1"/>
        <pt x="352" y="67" on="1"/>
        <pt x="442" y="46" on="1"/>
        <pt x="442" y="26" on="0"/>
        <pt x="434" y="8" on="0"/>
        <pt x="423" y="0" on="1"/>
        <pt x="187" y="0" on="1"/>
        <pt x="187" y="34" on="0"/>
        <pt x="203" y="39" on="1"/>
        <pt x="266" y="62" on="1"/>
        <pt x="266" y="260" on="1"/>
        <pt x="65" y="574" on="1"/>
      </contour>
      <contour>
        <pt x="160" y="802" on="1"/>
        <pt x="160" y="820" on="0"/>
        <pt x="188" y="848" on="0"/>
        <pt x="229" y="848" on="0"/>
        <pt x="253" y="823" on="0"/>
        <pt x="253" y="784" on="0"/>
        <pt x="224" y="756" on="0"/>
        <pt x="206" y="756" on="1"/>
        <pt x="160" y="756" on="0"/>
      </contour>
      <contour>
        <pt x="367" y="802" on="1"/>
        <pt x="367" y="820" on="0"/>
        <pt x="395" y="848" on="0"/>
        <pt x="436" y="848" on="0"/>
        <pt x="460" y="823" on="0"/>
        <pt x="460" y="784" on="0"/>
        <pt x="431" y="756" on="0"/>
        <pt x="413" y="756" on="1"/>
        <pt x="367" y="756" on="0"/>
      </contour>
    </TTGlyph>
    <TTGlyph name="Z" xMin="38" yMin="0" xMax="533" yMax="641">
      <contour>
        <pt x="38" y="25" on="1"/>
        <pt x="38" y="36" on="0"/>
        <pt x="45" y="46" on="1"/>
        <pt x="395" y="579" on="1"/>
        <pt x="129" y="595" on="1"/>
        <pt x="96" y="494" on="1"/>
        <pt x="91" y="478" on="0"/>
        <pt x="57" y="478" on="1"/>
        <pt x="57" y="641" on="1"/>
        <pt x="490" y="641" on="1"/>
        <pt x="515" y="641" on="0"/>
        <pt x="515" y="617" on="1"/>
        <pt x="515" y="605" on="0"/>
        <pt x="508" y="595" on="1"/>
        <pt x="161" y="67" on="1"/>
        <pt x="456" y="46" on="1"/>
        <pt x="487" y="178" on="1"/>
        <pt x="507" y="178" on="0"/>
        <pt x="525" y="170" on="0"/>
        <pt x="533" y="159" on="1"/>
        <pt x="533" y="0" on="1"/>
        <pt x="64" y="0" on="1"/>
        <pt x="38" y="0" on="0"/>
      </contour>
    </TTGlyph>
    <TTGlyph name="Zcaron" xMin="38" yMin="0" xMax="533" yMax="858">
      <contour>
        <pt x="38" y="25" on="1"/>
        <pt x="38" y="36" on="0"/>
        <pt x="45" y="46" on="1"/>
        <pt x="395" y="579" on="1"/>
        <pt x="129" y="595" on="1"/>
        <pt x="96" y="494" on="1"/>
        <pt x="91" y="478" on="0"/>
        <pt x="57" y="478" on="1"/>
        <pt x="57" y="641" on="1"/>
        <pt x="490" y="641" on="1"/>
        <pt x="515" y="641" on="0"/>
        <pt x="515" y="617" on="1"/>
        <pt x="515" y="605" on="0"/>
        <pt x="508" y="595" on="1"/>
        <pt x="161" y="67" on="1"/>
        <pt x="456" y="46" on="1"/>
        <pt x="487" y="178" on="1"/>
        <pt x="507" y="178" on="0"/>
        <pt x="525" y="170" on="0"/>
        <pt x="533" y="159" on="1"/>
        <pt x="533" y="0" on="1"/>
        <pt x="64" y="0" on="1"/>
        <pt x="38" y="0" on="0"/>
      </contour>
      <contour>
        <pt x="122" y="830" on="1"/>
        <pt x="121" y="831" on="0"/>
        <pt x="121" y="850" on="0"/>
        <pt x="135" y="858" on="1"/>
        <pt x="303" y="786" on="1"/>
        <pt x="471" y="858" on="1"/>
        <pt x="485" y="850" on="0"/>
        <pt x="485" y="831" on="0"/>
        <pt x="484" y="830" on="1"/>
        <pt x="347" y="734" on="1"/>
        <pt x="320" y="715" on="0"/>
        <pt x="285" y="715" on="0"/>
        <pt x="259" y="734" on="1"/>
      </contour>
    </TTGlyph>
    <TTGlyph name="a" xMin="34" yMin="-12" xMax="467" yMax="462">
      <contour>
        <pt x="34" y="89" on="1"/>
        <pt x="34" y="205" on="0"/>
        <pt x="178" y="238" on="1"/>
        <pt x="296" y="265" on="1"/>
        <pt x="296" y="316" on="1"/>
        <pt x="296" y="419" on="0"/>
        <pt x="224" y="419" on="1"/>
        <pt x="180" y="419" on="0"/>
        <pt x="142" y="375" on="0"/>
        <pt x="142" y="327" on="1"/>
        <pt x="125" y="315" on="0"/>
        <pt x="85" y="315" on="0"/>
        <pt x="59" y="342" on="0"/>
        <pt x="59" y="361" on="1"/>
        <pt x="59" y="399" on="0"/>
        <pt x="165" y="462" on="0"/>
        <pt x="309" y="462" on="0"/>
        <pt x="378" y="392" on="0"/>
        <pt x="378" y="309" on="1"/>
        <pt x="378" y="90" on="1"/>
        <pt x="378" y="51" on="0"/>
        <pt x="405" y="51" on="1"/>
        <pt x="427" y="51" on="0"/>
        <pt x="450" y="68" on="1"/>
        <pt x="467" y="44" on="1"/>
        <pt x="418" y="-12" on="0"/>
        <pt x="367" y="-12" on="1"/>
        <pt x="296" y="-12" on="0"/>
        <pt x="296" y="87" on="1"/>
        <pt x="278" y="61" on="0"/>
        <pt x="187" y="-12" on="0"/>
        <pt x="90" y="-12" on="0"/>
        <pt x="34" y="46" on="0"/>
      </contour>
      <contour>
        <pt x="147" y="191" on="0"/>
        <pt x="110" y="145" on="0"/>
        <pt x="110" y="92" on="0"/>
        <pt x="143" y="55" on="0"/>
        <pt x="202" y="55" on="0"/>
        <pt x="273" y="98" on="0"/>
        <pt x="296" y="123" on="1"/>
        <pt x="296" y="227" on="1"/>
        <pt x="183" y="200" on="1"/>
      </contour>
    </TTGlyph>
    <TTGlyph name="aacute" xMin="34" yMin="-12" xMax="467" yMax="715">
      <contour>
        <pt x="34" y="89" on="1"/>
        <pt x="34" y="205" on="0"/>
        <pt x="178" y="238" on="1"/>
        <pt x="296" y="265" on="1"/>
        <pt x="296" y="316" on="1"/>
        <pt x="296" y="419" on="0"/>
        <pt x="224" y="419" on="1"/>
        <pt x="180" y="419" on="0"/>
        <pt x="142" y="375" on="0"/>
        <pt x="142" y="327" on="1"/>
        <pt x="125" y="315" on="0"/>
        <pt x="85" y="315" on="0"/>
        <pt x="59" y="342" on="0"/>
        <pt x="59" y="361" on="1"/>
        <pt x="59" y="399" on="0"/>
        <pt x="165" y="462" on="0"/>
        <pt x="309" y="462" on="0"/>
        <pt x="378" y="392" on="0"/>
        <pt x="378" y="309" on="1"/>
        <pt x="378" y="90" on="1"/>
        <pt x="378" y="51" on="0"/>
        <pt x="405" y="51" on="1"/>
        <pt x="427" y="51" on="0"/>
        <pt x="450" y="68" on="1"/>
        <pt x="467" y="44" on="1"/>
        <pt x="418" y="-12" on="0"/>
        <pt x="367" y="-12" on="1"/>
        <pt x="296" y="-12" on="0"/>
        <pt x="296" y="87" on="1"/>
        <pt x="278" y="61" on="0"/>
        <pt x="187" y="-12" on="0"/>
        <pt x="90" y="-12" on="0"/>
        <pt x="34" y="46" on="0"/>
      </contour>
      <contour>
        <pt x="147" y="191" on="0"/>
        <pt x="110" y="145" on="0"/>
        <pt x="110" y="92" on="0"/>
        <pt x="143" y="55" on="0"/>
        <pt x="202" y="55" on="0"/>
        <pt x="273" y="98" on="0"/>
        <pt x="296" y="123" on="1"/>
        <pt x="296" y="227" on="1"/>
        <pt x="183" y="200" on="1"/>
      </contour>
      <contour>
        <pt x="132" y="540" on="1"/>
        <pt x="238" y="657" on="1"/>
        <pt x="280" y="702" on="0"/>
        <pt x="305" y="715" on="0"/>
        <pt x="330" y="715" on="0"/>
        <pt x="358" y="687" on="0"/>
        <pt x="358" y="665" on="0"/>
        <pt x="351" y="651" on="0"/>
        <pt x="342" y="642" on="1"/>
        <pt x="328" y="630" on="0"/>
        <pt x="292" y="606" on="1"/>
        <pt x="153" y="518" on="1"/>
        <pt x="132" y="523" on="0"/>
      </contour>
    </TTGlyph>
    <TTGlyph name="acircumflex" xMin="34" yMin="-12" xMax="467" yMax="715">
      <contour>
        <pt x="34" y="89" on="1"/>
        <pt x="34" y="205" on="0"/>
        <pt x="178" y="238" on="1"/>
        <pt x="296" y="265" on="1"/>
        <pt x="296" y="316" on="1"/>
        <pt x="296" y="419" on="0"/>
        <pt x="224" y="419" on="1"/>
        <pt x="180" y="419" on="0"/>
        <pt x="142" y="375" on="0"/>
        <pt x="142" y="327" on="1"/>
        <pt x="125" y="315" on="0"/>
        <pt x="85" y="315" on="0"/>
        <pt x="59" y="342" on="0"/>
        <pt x="59" y="361" on="1"/>
        <pt x="59" y="399" on="0"/>
        <pt x="165" y="462" on="0"/>
        <pt x="309" y="462" on="0"/>
        <pt x="378" y="392" on="0"/>
        <pt x="378" y="309" on="1"/>
        <pt x="378" y="90" on="1"/>
        <pt x="378" y="51" on="0"/>
        <pt x="405" y="51" on="1"/>
        <pt x="427" y="51" on="0"/>
        <pt x="450" y="68" on="1"/>
        <pt x="467" y="44" on="1"/>
        <pt x="418" y="-12" on="0"/>
        <pt x="367" y="-12" on="1"/>
        <pt x="296" y="-12" on="0"/>
        <pt x="296" y="87" on="1"/>
        <pt x="278" y="61" on="0"/>
        <pt x="187" y="-12" on="0"/>
        <pt x="90" y="-12" on="0"/>
        <pt x="34" y="46" on="0"/>
      </contour>
      <contour>
        <pt x="90" y="540" on="1"/>
        <pt x="201" y="688" on="1"/>
        <pt x="221" y="715" on="0"/>
        <pt x="266" y="715" on="0"/>
        <pt x="285" y="688" on="1"/>
        <pt x="396" y="540" on="1"/>
        <pt x="396" y="530" on="0"/>
        <pt x="380" y="518" on="0"/>
        <pt x="375" y="518" on="1"/>
        <pt x="243" y="627" on="1"/>
        <pt x="111" y="518" on="1"/>
        <pt x="106" y="518" on="0"/>
        <pt x="90" y="530" on="0"/>
      </contour>
      <contour>
        <pt x="147" y="191" on="0"/>
        <pt x="110" y="145" on="0"/>
        <pt x="110" y="92" on="0"/>
        <pt x="143" y="55" on="0"/>
        <pt x="202" y="55" on="0"/>
        <pt x="273" y="98" on="0"/>
        <pt x="296" y="123" on="1"/>
        <pt x="296" y="227" on="1"/>
        <pt x="183" y="200" on="1"/>
      </contour>
    </TTGlyph>
    <TTGlyph name="acute" xMin="20" yMin="518" xMax="246" yMax="715">
      <contour>
        <pt x="20" y="540" on="1"/>
        <pt x="126" y="657" on="1"/>
        <pt x="168" y="702" on="0"/>
        <pt x="193" y="715" on="0"/>
        <pt x="218" y="715" on="0"/>
        <pt x="246" y="687" on="0"/>
        <pt x="246" y="665" on="0"/>
        <pt x="239" y="651" on="0"/>
        <pt x="230" y="642" on="1"/>
        <pt x="216" y="630" on="0"/>
        <pt x="180" y="606" on="1"/>
        <pt x="41" y="518" on="1"/>
        <pt x="20" y="523" on="0"/>
      </contour>
    </TTGlyph>
    <TTGlyph name="adieresis" xMin="34" yMin="-12" xMax="467" yMax="650">
      <contour>
        <pt x="34" y="89" on="1"/>
        <pt x="34" y="205" on="0"/>
        <pt x="178" y="238" on="1"/>
        <pt x="296" y="265" on="1"/>
        <pt x="296" y="316" on="1"/>
        <pt x="296" y="419" on="0"/>
        <pt x="224" y="419" on="1"/>
        <pt x="180" y="419" on="0"/>
        <pt x="142" y="375" on="0"/>
        <pt x="142" y="327" on="1"/>
        <pt x="125" y="315" on="0"/>
        <pt x="85" y="315" on="0"/>
        <pt x="59" y="342" on="0"/>
        <pt x="59" y="361" on="1"/>
        <pt x="59" y="399" on="0"/>
        <pt x="165" y="462" on="0"/>
        <pt x="309" y="462" on="0"/>
        <pt x="378" y="392" on="0"/>
        <pt x="378" y="309" on="1"/>
        <pt x="378" y="90" on="1"/>
        <pt x="378" y="51" on="0"/>
        <pt x="405" y="51" on="1"/>
        <pt x="427" y="51" on="0"/>
        <pt x="450" y="68" on="1"/>
        <pt x="467" y="44" on="1"/>
        <pt x="418" y="-12" on="0"/>
        <pt x="367" y="-12" on="1"/>
        <pt x="296" y="-12" on="0"/>
        <pt x="296" y="87" on="1"/>
        <pt x="278" y="61" on="0"/>
        <pt x="187" y="-12" on="0"/>
        <pt x="90" y="-12" on="0"/>
        <pt x="34" y="46" on="0"/>
      </contour>
      <contour>
        <pt x="93" y="604" on="1"/>
        <pt x="93" y="622" on="0"/>
        <pt x="121" y="650" on="0"/>
        <pt x="162" y="650" on="0"/>
        <pt x="186" y="625" on="0"/>
        <pt x="186" y="586" on="0"/>
        <pt x="157" y="558" on="0"/>
        <pt x="139" y="558" on="1"/>
        <pt x="93" y="558" on="0"/>
      </contour>
      <contour>
        <pt x="147" y="191" on="0"/>
        <pt x="110" y="145" on="0"/>
        <pt x="110" y="92" on="0"/>
        <pt x="143" y="55" on="0"/>
        <pt x="202" y="55" on="0"/>
        <pt x="273" y="98" on="0"/>
        <pt x="296" y="123" on="1"/>
        <pt x="296" y="227" on="1"/>
        <pt x="183" y="200" on="1"/>
      </contour>
      <contour>
        <pt x="300" y="604" on="1"/>
        <pt x="300" y="622" on="0"/>
        <pt x="328" y="650" on="0"/>
        <pt x="369" y="650" on="0"/>
        <pt x="393" y="625" on="0"/>
        <pt x="393" y="586" on="0"/>
        <pt x="364" y="558" on="0"/>
        <pt x="346" y="558" on="1"/>
        <pt x="300" y="558" on="0"/>
      </contour>
    </TTGlyph>
    <TTGlyph name="ae" xMin="34" yMin="-12" xMax="686" yMax="462">
      <contour>
        <pt x="34" y="89" on="1"/>
        <pt x="34" y="205" on="0"/>
        <pt x="178" y="238" on="1"/>
        <pt x="296" y="265" on="1"/>
        <pt x="296" y="316" on="1"/>
        <pt x="296" y="419" on="0"/>
        <pt x="224" y="419" on="1"/>
        <pt x="180" y="419" on="0"/>
        <pt x="142" y="375" on="0"/>
        <pt x="142" y="327" on="1"/>
        <pt x="125" y="315" on="0"/>
        <pt x="85" y="315" on="0"/>
        <pt x="59" y="342" on="0"/>
        <pt x="59" y="361" on="1"/>
        <pt x="59" y="399" on="0"/>
        <pt x="165" y="462" on="0"/>
        <pt x="331" y="462" on="0"/>
        <pt x="361" y="400" on="1"/>
        <pt x="423" y="462" on="0"/>
        <pt x="509" y="462" on="1"/>
        <pt x="576" y="462" on="0"/>
        <pt x="624" y="420" on="1"/>
        <pt x="682" y="372" on="0"/>
        <pt x="686" y="246" on="1"/>
        <pt x="385" y="246" on="1"/>
        <pt x="385" y="151" on="0"/>
        <pt x="466" y="55" on="0"/>
        <pt x="530" y="55" on="1"/>
        <pt x="565" y="55" on="0"/>
        <pt x="643" y="89" on="0"/>
        <pt x="666" y="112" on="1"/>
        <pt x="683" y="88" on="1"/>
        <pt x="657" y="51" on="0"/>
        <pt x="556" y="-12" on="0"/>
        <pt x="508" y="-12" on="1"/>
        <pt x="367" y="-12" on="0"/>
        <pt x="317" y="101" on="1"/>
        <pt x="227" y="-12" on="0"/>
        <pt x="141" y="-12" on="1"/>
        <pt x="90" y="-12" on="0"/>
        <pt x="34" y="46" on="0"/>
      </contour>
      <contour>
        <pt x="147" y="191" on="0"/>
        <pt x="110" y="145" on="0"/>
        <pt x="110" y="92" on="0"/>
        <pt x="143" y="55" on="0"/>
        <pt x="171" y="55" on="1"/>
        <pt x="236" y="55" on="0"/>
        <pt x="307" y="126" on="1"/>
        <pt x="293" y="167" on="0"/>
        <pt x="293" y="226" on="1"/>
        <pt x="183" y="200" on="1"/>
      </contour>
      <contour>
        <pt x="386" y="288" on="1"/>
        <pt x="591" y="291" on="1"/>
        <pt x="590" y="357" on="0"/>
        <pt x="539" y="419" on="0"/>
        <pt x="501" y="419" on="1"/>
        <pt x="399" y="419" on="0"/>
      </contour>
    </TTGlyph>
    <TTGlyph name="agrave" xMin="34" yMin="-12" xMax="467" yMax="711">
      <contour>
        <pt x="34" y="89" on="1"/>
        <pt x="34" y="205" on="0"/>
        <pt x="178" y="238" on="1"/>
        <pt x="296" y="265" on="1"/>
        <pt x="296" y="316" on="1"/>
        <pt x="296" y="419" on="0"/>
        <pt x="224" y="419" on="1"/>
        <pt x="180" y="419" on="0"/>
        <pt x="142" y="375" on="0"/>
        <pt x="142" y="327" on="1"/>
        <pt x="125" y="315" on="0"/>
        <pt x="85" y="315" on="0"/>
        <pt x="59" y="342" on="0"/>
        <pt x="59" y="361" on="1"/>
        <pt x="59" y="399" on="0"/>
        <pt x="165" y="462" on="0"/>
        <pt x="309" y="462" on="0"/>
        <pt x="378" y="392" on="0"/>
        <pt x="378" y="309" on="1"/>
        <pt x="378" y="90" on="1"/>
        <pt x="378" y="51" on="0"/>
        <pt x="405" y="51" on="1"/>
        <pt x="427" y="51" on="0"/>
        <pt x="450" y="68" on="1"/>
        <pt x="467" y="44" on="1"/>
        <pt x="418" y="-12" on="0"/>
        <pt x="367" y="-12" on="1"/>
        <pt x="296" y="-12" on="0"/>
        <pt x="296" y="87" on="1"/>
        <pt x="278" y="61" on="0"/>
        <pt x="187" y="-12" on="0"/>
        <pt x="90" y="-12" on="0"/>
        <pt x="34" y="46" on="0"/>
      </contour>
      <contour>
        <pt x="147" y="191" on="0"/>
        <pt x="110" y="145" on="0"/>
        <pt x="110" y="92" on="0"/>
        <pt x="143" y="55" on="0"/>
        <pt x="202" y="55" on="0"/>
        <pt x="273" y="98" on="0"/>
        <pt x="296" y="123" on="1"/>
        <pt x="296" y="227" on="1"/>
        <pt x="183" y="200" on="1"/>
      </contour>
      <contour>
        <pt x="120" y="654" on="1"/>
        <pt x="116" y="661" on="0"/>
        <pt x="116" y="683" on="0"/>
        <pt x="144" y="711" on="0"/>
        <pt x="169" y="711" on="0"/>
        <pt x="178" y="706" on="1"/>
        <pt x="195" y="698" on="0"/>
        <pt x="232" y="656" on="1"/>
        <pt x="342" y="536" on="1"/>
        <pt x="342" y="519" on="0"/>
        <pt x="321" y="514" on="1"/>
        <pt x="181" y="602" on="1"/>
        <pt x="130" y="635" on="0"/>
      </contour>
    </TTGlyph>
    <TTGlyph name="ampersand" xMin="49" yMin="-12" xMax="663" yMax="655">
      <contour>
        <pt x="49" y="166" on="1"/>
        <pt x="49" y="270" on="0"/>
        <pt x="204" y="358" on="1"/>
        <pt x="172" y="390" on="0"/>
        <pt x="128" y="461" on="0"/>
        <pt x="116" y="504" on="0"/>
        <pt x="116" y="526" on="1"/>
        <pt x="116" y="583" on="0"/>
        <pt x="197" y="655" on="0"/>
        <pt x="326" y="655" on="0"/>
        <pt x="412" y="589" on="0"/>
        <pt x="412" y="526" on="1"/>
        <pt x="412" y="432" on="0"/>
        <pt x="291" y="362" on="1"/>
        <pt x="460" y="173" on="1"/>
        <pt x="486" y="258" on="0"/>
        <pt x="487" y="398" on="1"/>
        <pt x="428" y="403" on="1"/>
        <pt x="428" y="437" on="0"/>
        <pt x="447" y="446" on="1"/>
        <pt x="654" y="462" on="1"/>
        <pt x="663" y="452" on="0"/>
        <pt x="663" y="421" on="0"/>
        <pt x="628" y="389" on="0"/>
        <pt x="598" y="389" on="1"/>
        <pt x="558" y="392" on="1"/>
        <pt x="558" y="239" on="0"/>
        <pt x="501" y="131" on="1"/>
        <pt x="550" y="82" on="0"/>
        <pt x="611" y="49" on="0"/>
        <pt x="663" y="35" on="1"/>
        <pt x="663" y="-12" on="0"/>
        <pt x="594" y="-12" on="1"/>
        <pt x="555" y="-12" on="0"/>
        <pt x="490" y="24" on="0"/>
        <pt x="453" y="63" on="1"/>
        <pt x="381" y="-12" on="0"/>
        <pt x="264" y="-12" on="1"/>
        <pt x="143" y="-12" on="0"/>
        <pt x="82" y="64" on="1"/>
        <pt x="49" y="105" on="0"/>
      </contour>
      <contour>
        <pt x="187" y="302" on="0"/>
        <pt x="142" y="240" on="0"/>
        <pt x="142" y="131" on="0"/>
        <pt x="234" y="37" on="0"/>
        <pt x="294" y="37" on="1"/>
        <pt x="379" y="37" on="0"/>
        <pt x="423" y="96" on="1"/>
        <pt x="396" y="126" on="0"/>
        <pt x="333" y="204" on="1"/>
        <pt x="230" y="329" on="1"/>
      </contour>
      <contour>
        <pt x="194" y="486" on="1"/>
        <pt x="200" y="472" on="1"/>
        <pt x="203" y="467" on="0"/>
        <pt x="210" y="458" on="1"/>
        <pt x="218" y="444" on="1"/>
        <pt x="231" y="431" on="0"/>
        <pt x="237" y="424" on="1"/>
        <pt x="251" y="406" on="0"/>
        <pt x="266" y="391" on="1"/>
        <pt x="342" y="443" on="0"/>
        <pt x="342" y="522" on="1"/>
        <pt x="342" y="561" on="0"/>
        <pt x="293" y="608" on="0"/>
        <pt x="225" y="608" on="0"/>
        <pt x="184" y="565" on="0"/>
        <pt x="184" y="506" on="0"/>
      </contour>
    </TTGlyph>
    <TTGlyph name="approxequal" xMin="65" yMin="116" xMax="474" yMax="419">
      <contour>
        <pt x="65" y="144" on="1"/>
        <pt x="65" y="177" on="0"/>
        <pt x="147" y="248" on="0"/>
        <pt x="202" y="248" on="1"/>
        <pt x="232" y="248" on="0"/>
        <pt x="352" y="199" on="0"/>
        <pt x="378" y="199" on="1"/>
        <pt x="427" y="199" on="0"/>
        <pt x="462" y="259" on="1"/>
        <pt x="474" y="246" on="0"/>
        <pt x="474" y="229" on="1"/>
        <pt x="474" y="197" on="0"/>
        <pt x="385" y="126" on="0"/>
        <pt x="330" y="126" on="1"/>
        <pt x="301" y="126" on="0"/>
        <pt x="185" y="174" on="0"/>
        <pt x="158" y="174" on="1"/>
        <pt x="111" y="174" on="0"/>
        <pt x="77" y="116" on="1"/>
        <pt x="65" y="131" on="0"/>
      </contour>
      <contour>
        <pt x="65" y="304" on="1"/>
        <pt x="65" y="337" on="0"/>
        <pt x="147" y="408" on="0"/>
        <pt x="202" y="408" on="1"/>
        <pt x="232" y="408" on="0"/>
        <pt x="352" y="359" on="0"/>
        <pt x="378" y="359" on="1"/>
        <pt x="427" y="359" on="0"/>
        <pt x="462" y="419" on="1"/>
        <pt x="474" y="406" on="0"/>
        <pt x="474" y="389" on="1"/>
        <pt x="474" y="357" on="0"/>
        <pt x="385" y="286" on="0"/>
        <pt x="330" y="286" on="1"/>
        <pt x="301" y="286" on="0"/>
        <pt x="185" y="334" on="0"/>
        <pt x="158" y="334" on="1"/>
        <pt x="111" y="334" on="0"/>
        <pt x="77" y="276" on="1"/>
        <pt x="65" y="291" on="0"/>
      </contour>
    </TTGlyph>
    <TTGlyph name="aring" xMin="34" yMin="-12" xMax="467" yMax="715">
      <contour>
        <pt x="34" y="89" on="1"/>
        <pt x="34" y="205" on="0"/>
        <pt x="178" y="238" on="1"/>
        <pt x="296" y="265" on="1"/>
        <pt x="296" y="316" on="1"/>
        <pt x="296" y="419" on="0"/>
        <pt x="224" y="419" on="1"/>
        <pt x="180" y="419" on="0"/>
        <pt x="142" y="375" on="0"/>
        <pt x="142" y="327" on="1"/>
        <pt x="125" y="315" on="0"/>
        <pt x="85" y="315" on="0"/>
        <pt x="59" y="342" on="0"/>
        <pt x="59" y="361" on="1"/>
        <pt x="59" y="399" on="0"/>
        <pt x="165" y="462" on="0"/>
        <pt x="309" y="462" on="0"/>
        <pt x="378" y="392" on="0"/>
        <pt x="378" y="309" on="1"/>
        <pt x="378" y="90" on="1"/>
        <pt x="378" y="51" on="0"/>
        <pt x="405" y="51" on="1"/>
        <pt x="427" y="51" on="0"/>
        <pt x="450" y="68" on="1"/>
        <pt x="467" y="44" on="1"/>
        <pt x="418" y="-12" on="0"/>
        <pt x="367" y="-12" on="1"/>
        <pt x="296" y="-12" on="0"/>
        <pt x="296" y="87" on="1"/>
        <pt x="278" y="61" on="0"/>
        <pt x="187" y="-12" on="0"/>
        <pt x="90" y="-12" on="0"/>
        <pt x="34" y="46" on="0"/>
      </contour>
      <contour>
        <pt x="147" y="191" on="0"/>
        <pt x="110" y="145" on="0"/>
        <pt x="110" y="92" on="0"/>
        <pt x="143" y="55" on="0"/>
        <pt x="202" y="55" on="0"/>
        <pt x="273" y="98" on="0"/>
        <pt x="296" y="123" on="1"/>
        <pt x="296" y="227" on="1"/>
        <pt x="183" y="200" on="1"/>
      </contour>
      <contour>
        <pt x="124" y="590" on="0"/>
        <pt x="124" y="664" on="0"/>
        <pt x="188" y="715" on="0"/>
        <pt x="288" y="715" on="0"/>
        <pt x="339" y="667" on="0"/>
        <pt x="339" y="598" on="0"/>
        <pt x="276" y="539" on="0"/>
        <pt x="172" y="539" on="0"/>
      </contour>
      <contour>
        <pt x="177" y="622" on="1"/>
        <pt x="177" y="596" on="0"/>
        <pt x="209" y="562" on="0"/>
        <pt x="257" y="562" on="0"/>
        <pt x="286" y="596" on="0"/>
        <pt x="286" y="655" on="0"/>
        <pt x="255" y="694" on="0"/>
        <pt x="228" y="694" on="1"/>
        <pt x="177" y="694" on="0"/>
      </contour>
    </TTGlyph>
    <TTGlyph name="asciicircum" xMin="107" yMin="290" xMax="497" yMax="708">
      <contour>
        <pt x="107" y="316" on="1"/>
        <pt x="268" y="693" on="1"/>
        <pt x="283" y="708" on="0"/>
        <pt x="321" y="708" on="0"/>
        <pt x="336" y="693" on="1"/>
        <pt x="497" y="316" on="1"/>
        <pt x="485" y="298" on="0"/>
        <pt x="467" y="290" on="0"/>
        <pt x="448" y="290" on="1"/>
        <pt x="302" y="612" on="1"/>
        <pt x="156" y="290" on="1"/>
        <pt x="137" y="290" on="0"/>
        <pt x="119" y="298" on="0"/>
      </contour>
    </TTGlyph>
    <TTGlyph name="asciitilde" xMin="51" yMin="226" xMax="460" yMax="369">
      <contour>
        <pt x="51" y="254" on="1"/>
        <pt x="51" y="287" on="0"/>
        <pt x="133" y="358" on="0"/>
        <pt x="188" y="358" on="1"/>
        <pt x="218" y="358" on="0"/>
        <pt x="338" y="309" on="0"/>
        <pt x="364" y="309" on="1"/>
        <pt x="413" y="309" on="0"/>
        <pt x="448" y="369" on="1"/>
        <pt x="460" y="356" on="0"/>
        <pt x="460" y="339" on="1"/>
        <pt x="460" y="307" on="0"/>
        <pt x="371" y="236" on="0"/>
        <pt x="316" y="236" on="1"/>
        <pt x="287" y="236" on="0"/>
        <pt x="171" y="284" on="0"/>
        <pt x="144" y="284" on="1"/>
        <pt x="97" y="284" on="0"/>
        <pt x="63" y="226" on="1"/>
        <pt x="51" y="241" on="0"/>
      </contour>
    </TTGlyph>
    <TTGlyph name="asterisk" xMin="43" yMin="380" xMax="408" yMax="734">
      <contour>
        <pt x="48" y="555" on="1"/>
        <pt x="43" y="568" on="0"/>
        <pt x="43" y="599" on="0"/>
        <pt x="61" y="632" on="0"/>
        <pt x="74" y="640" on="1"/>
        <pt x="211" y="566" on="1"/>
        <pt x="181" y="718" on="1"/>
        <pt x="203" y="734" on="0"/>
        <pt x="247" y="734" on="0"/>
        <pt x="269" y="718" on="1"/>
        <pt x="241" y="566" on="1"/>
        <pt x="376" y="642" on="1"/>
        <pt x="408" y="618" on="0"/>
        <pt x="408" y="584" on="1"/>
        <pt x="408" y="567" on="0"/>
        <pt x="404" y="558" on="1"/>
        <pt x="250" y="538" on="1"/>
        <pt x="364" y="433" on="1"/>
        <pt x="355" y="409" on="0"/>
        <pt x="316" y="380" on="0"/>
        <pt x="292" y="380" on="1"/>
        <pt x="226" y="520" on="1"/>
        <pt x="161" y="380" on="1"/>
        <pt x="155" y="380" on="1"/>
        <pt x="131" y="380" on="0"/>
        <pt x="95" y="411" on="0"/>
        <pt x="89" y="431" on="1"/>
        <pt x="202" y="538" on="1"/>
      </contour>
    </TTGlyph>
    <TTGlyph name="at" xMin="44" yMin="-166" xMax="789" yMax="607">
      <contour>
        <pt x="89" y="-5" on="0"/>
        <pt x="44" y="121" on="0"/>
        <pt x="44" y="268" on="0"/>
        <pt x="96" y="414" on="0"/>
        <pt x="189" y="534" on="0"/>
        <pt x="337" y="607" on="0"/>
        <pt x="515" y="607" on="0"/>
        <pt x="658" y="546" on="0"/>
        <pt x="701" y="495" on="1"/>
        <pt x="789" y="391" on="0"/>
        <pt x="789" y="249" on="1"/>
        <pt x="789" y="132" on="0"/>
        <pt x="640" y="-9" on="0"/>
        <pt x="526" y="-9" on="1"/>
        <pt x="471" y="-9" on="0"/>
        <pt x="471" y="52" on="1"/>
        <pt x="471" y="66" on="0"/>
        <pt x="483" y="140" on="1"/>
        <pt x="468" y="91" on="0"/>
        <pt x="377" y="-9" on="0"/>
        <pt x="324" y="-9" on="1"/>
        <pt x="256" y="-9" on="0"/>
        <pt x="188" y="84" on="0"/>
        <pt x="188" y="163" on="1"/>
        <pt x="188" y="264" on="0"/>
        <pt x="249" y="356" on="1"/>
        <pt x="279" y="402" on="0"/>
        <pt x="379" y="460" on="0"/>
        <pt x="493" y="460" on="0"/>
        <pt x="588" y="419" on="0"/>
        <pt x="610" y="401" on="1"/>
        <pt x="559" y="95" on="1"/>
        <pt x="557" y="81" on="0"/>
        <pt x="557" y="73" on="1"/>
        <pt x="557" y="51" on="0"/>
        <pt x="577" y="51" on="1"/>
        <pt x="634" y="51" on="0"/>
        <pt x="724" y="146" on="0"/>
        <pt x="724" y="243" on="1"/>
        <pt x="724" y="365" on="0"/>
        <pt x="559" y="550" on="0"/>
        <pt x="262" y="550" on="0"/>
        <pt x="108" y="371" on="0"/>
        <pt x="108" y="85" on="0"/>
        <pt x="272" y="-109" on="0"/>
        <pt x="544" y="-109" on="0"/>
        <pt x="619" y="-48" on="1"/>
        <pt x="635" y="-71" on="1"/>
        <pt x="562" y="-137" on="0"/>
        <pt x="489" y="-156" on="1"/>
        <pt x="451" y="-166" on="0"/>
        <pt x="408" y="-166" on="1"/>
        <pt x="317" y="-166" on="0"/>
        <pt x="175" y="-106" on="0"/>
      </contour>
      <contour>
        <pt x="310" y="346" on="0"/>
        <pt x="274" y="246" on="0"/>
        <pt x="274" y="140" on="0"/>
        <pt x="321" y="54" on="0"/>
        <pt x="389" y="54" on="0"/>
        <pt x="456" y="130" on="0"/>
        <pt x="491" y="200" on="0"/>
        <pt x="496" y="218" on="1"/>
        <pt x="524" y="382" on="1"/>
        <pt x="479" y="421" on="0"/>
        <pt x="389" y="421" on="0"/>
      </contour>
    </TTGlyph>
    <TTGlyph name="atilde" xMin="34" yMin="-12" xMax="467" yMax="655">
      <contour>
        <pt x="34" y="89" on="1"/>
        <pt x="34" y="205" on="0"/>
        <pt x="178" y="238" on="1"/>
        <pt x="296" y="265" on="1"/>
        <pt x="296" y="316" on="1"/>
        <pt x="296" y="419" on="0"/>
        <pt x="224" y="419" on="1"/>
        <pt x="180" y="419" on="0"/>
        <pt x="142" y="375" on="0"/>
        <pt x="142" y="327" on="1"/>
        <pt x="125" y="315" on="0"/>
        <pt x="85" y="315" on="0"/>
        <pt x="59" y="342" on="0"/>
        <pt x="59" y="361" on="1"/>
        <pt x="59" y="399" on="0"/>
        <pt x="165" y="462" on="0"/>
        <pt x="309" y="462" on="0"/>
        <pt x="378" y="392" on="0"/>
        <pt x="378" y="309" on="1"/>
        <pt x="378" y="90" on="1"/>
        <pt x="378" y="51" on="0"/>
        <pt x="405" y="51" on="1"/>
        <pt x="427" y="51" on="0"/>
        <pt x="450" y="68" on="1"/>
        <pt x="467" y="44" on="1"/>
        <pt x="418" y="-12" on="0"/>
        <pt x="367" y="-12" on="1"/>
        <pt x="296" y="-12" on="0"/>
        <pt x="296" y="87" on="1"/>
        <pt x="278" y="61" on="0"/>
        <pt x="187" y="-12" on="0"/>
        <pt x="90" y="-12" on="0"/>
        <pt x="34" y="46" on="0"/>
      </contour>
      <contour>
        <pt x="60" y="559" on="1"/>
        <pt x="60" y="587" on="0"/>
        <pt x="127" y="646" on="0"/>
        <pt x="174" y="646" on="1"/>
        <pt x="199" y="646" on="0"/>
        <pt x="298" y="605" on="0"/>
        <pt x="321" y="605" on="1"/>
        <pt x="362" y="605" on="0"/>
        <pt x="391" y="655" on="1"/>
        <pt x="401" y="644" on="0"/>
        <pt x="401" y="630" on="1"/>
        <pt x="401" y="604" on="0"/>
        <pt x="327" y="544" on="0"/>
        <pt x="281" y="544" on="1"/>
        <pt x="257" y="544" on="0"/>
        <pt x="161" y="584" on="0"/>
        <pt x="138" y="584" on="1"/>
        <pt x="98" y="584" on="0"/>
        <pt x="70" y="536" on="1"/>
        <pt x="60" y="547" on="0"/>
      </contour>
      <contour>
        <pt x="147" y="191" on="0"/>
        <pt x="110" y="145" on="0"/>
        <pt x="110" y="92" on="0"/>
        <pt x="143" y="55" on="0"/>
        <pt x="202" y="55" on="0"/>
        <pt x="273" y="98" on="0"/>
        <pt x="296" y="123" on="1"/>
        <pt x="296" y="227" on="1"/>
        <pt x="183" y="200" on="1"/>
      </contour>
    </TTGlyph>
    <TTGlyph name="b" xMin="-5" yMin="-12" xMax="485" yMax="734">
      <contour>
        <pt x="-5" y="726" on="1"/>
        <pt x="63" y="734" on="0"/>
        <pt x="96" y="734" on="1"/>
        <pt x="149" y="734" on="0"/>
        <pt x="149" y="680" on="1"/>
        <pt x="149" y="363" on="1"/>
        <pt x="240" y="462" on="0"/>
        <pt x="313" y="462" on="1"/>
        <pt x="403" y="462" on="0"/>
        <pt x="485" y="336" on="0"/>
        <pt x="485" y="135" on="0"/>
        <pt x="357" y="-12" on="0"/>
        <pt x="144" y="-12" on="0"/>
        <pt x="67" y="35" on="1"/>
        <pt x="67" y="664" on="1"/>
        <pt x="11" y="687" on="1"/>
        <pt x="-5" y="693" on="0"/>
      </contour>
      <contour>
        <pt x="149" y="71" on="1"/>
        <pt x="188" y="34" on="0"/>
        <pt x="247" y="34" on="1"/>
        <pt x="322" y="34" on="0"/>
        <pt x="392" y="138" on="0"/>
        <pt x="392" y="228" on="1"/>
        <pt x="392" y="391" on="0"/>
        <pt x="277" y="391" on="1"/>
        <pt x="218" y="391" on="0"/>
        <pt x="149" y="322" on="1"/>
      </contour>
    </TTGlyph>
    <TTGlyph name="backslash" xMin="28" yMin="-200" xMax="380" yMax="734">
      <contour>
        <pt x="28" y="712" on="1"/>
        <pt x="46" y="734" on="0"/>
        <pt x="87" y="734" on="1"/>
        <pt x="380" y="-178" on="1"/>
        <pt x="374" y="-186" on="0"/>
        <pt x="370" y="-190" on="1"/>
        <pt x="358" y="-200" on="0"/>
        <pt x="321" y="-200" on="1"/>
      </contour>
    </TTGlyph>
    <TTGlyph name="bar" xMin="78" yMin="-200" xMax="147" yMax="734">
      <contour>
        <pt x="78" y="-182" on="1"/>
        <pt x="78" y="734" on="1"/>
        <pt x="127" y="734" on="0"/>
        <pt x="147" y="716" on="1"/>
        <pt x="147" y="-200" on="1"/>
        <pt x="98" y="-200" on="0"/>
      </contour>
    </TTGlyph>
    <TTGlyph name="braceleft" xMin="-4" yMin="-270" xMax="335" yMax="778">
      <contour>
        <pt x="217" y="63" on="1"/>
        <pt x="211" y="-86" on="1"/>
        <pt x="211" y="-137" on="0"/>
        <pt x="254" y="-190" on="0"/>
        <pt x="322" y="-212" on="1"/>
        <pt x="335" y="-223" on="0"/>
        <pt x="335" y="-260" on="0"/>
        <pt x="333" y="-270" on="1"/>
        <pt x="281" y="-270" on="0"/>
        <pt x="203" y="-233" on="0"/>
        <pt x="159" y="-189" on="0"/>
        <pt x="128" y="-111" on="0"/>
        <pt x="128" y="-61" on="1"/>
        <pt x="132" y="-9" on="0"/>
        <pt x="132" y="135" on="0"/>
        <pt x="82" y="224" on="0"/>
        <pt x="9" y="224" on="1"/>
        <pt x="-4" y="235" on="0"/>
        <pt x="-4" y="264" on="1"/>
        <pt x="-4" y="270" on="0"/>
        <pt x="-2" y="284" on="1"/>
        <pt x="76" y="284" on="0"/>
        <pt x="132" y="374" on="0"/>
        <pt x="132" y="466" on="1"/>
        <pt x="128" y="583" on="1"/>
        <pt x="128" y="640" on="0"/>
        <pt x="174" y="723" on="0"/>
        <pt x="209" y="742" on="1"/>
        <pt x="273" y="778" on="0"/>
        <pt x="333" y="778" on="1"/>
        <pt x="335" y="768" on="0"/>
        <pt x="335" y="731" on="0"/>
        <pt x="322" y="720" on="1"/>
        <pt x="254" y="698" on="0"/>
        <pt x="211" y="645" on="0"/>
        <pt x="211" y="594" on="1"/>
        <pt x="217" y="445" on="1"/>
        <pt x="217" y="365" on="0"/>
        <pt x="146" y="281" on="0"/>
        <pt x="78" y="259" on="1"/>
        <pt x="78" y="254" on="0"/>
        <pt x="81" y="252" on="1"/>
        <pt x="148" y="230" on="0"/>
        <pt x="217" y="143" on="0"/>
      </contour>
    </TTGlyph>
    <TTGlyph name="braceright" xMin="6" yMin="-270" xMax="345" yMax="778">
      <contour>
        <pt x="209" y="45" on="1"/>
        <pt x="213" y="-75" on="1"/>
        <pt x="213" y="-123" on="0"/>
        <pt x="180" y="-196" on="0"/>
        <pt x="132" y="-237" on="0"/>
        <pt x="102" y="-250" on="1"/>
        <pt x="53" y="-270" on="0"/>
        <pt x="8" y="-270" on="1"/>
        <pt x="6" y="-260" on="0"/>
        <pt x="6" y="-223" on="0"/>
        <pt x="19" y="-212" on="1"/>
        <pt x="87" y="-190" on="0"/>
        <pt x="130" y="-137" on="0"/>
        <pt x="130" y="-86" on="1"/>
        <pt x="124" y="63" on="1"/>
        <pt x="124" y="144" on="0"/>
        <pt x="193" y="230" on="0"/>
        <pt x="260" y="252" on="1"/>
        <pt x="263" y="254" on="0"/>
        <pt x="263" y="259" on="1"/>
        <pt x="196" y="280" on="0"/>
        <pt x="124" y="366" on="0"/>
        <pt x="124" y="445" on="1"/>
        <pt x="130" y="594" on="1"/>
        <pt x="130" y="645" on="0"/>
        <pt x="87" y="698" on="0"/>
        <pt x="19" y="720" on="1"/>
        <pt x="6" y="731" on="0"/>
        <pt x="6" y="768" on="0"/>
        <pt x="8" y="778" on="1"/>
        <pt x="53" y="778" on="0"/>
        <pt x="132" y="745" on="0"/>
        <pt x="180" y="705" on="0"/>
        <pt x="213" y="631" on="0"/>
        <pt x="213" y="583" on="1"/>
        <pt x="209" y="466" on="1"/>
        <pt x="209" y="374" on="0"/>
        <pt x="265" y="284" on="0"/>
        <pt x="343" y="284" on="1"/>
        <pt x="345" y="270" on="0"/>
        <pt x="345" y="264" on="1"/>
        <pt x="345" y="235" on="0"/>
        <pt x="332" y="224" on="1"/>
        <pt x="260" y="224" on="0"/>
        <pt x="209" y="134" on="0"/>
      </contour>
    </TTGlyph>
    <TTGlyph name="bracketleft" xMin="77" yMin="-258" xMax="269" yMax="778">
      <contour>
        <pt x="77" y="-258" on="1"/>
        <pt x="77" y="778" on="1"/>
        <pt x="267" y="778" on="1"/>
        <pt x="269" y="764" on="0"/>
        <pt x="269" y="758" on="1"/>
        <pt x="269" y="726" on="0"/>
        <pt x="256" y="715" on="1"/>
        <pt x="157" y="715" on="1"/>
        <pt x="157" y="-195" on="1"/>
        <pt x="256" y="-195" on="1"/>
        <pt x="269" y="-206" on="0"/>
        <pt x="269" y="-238" on="1"/>
        <pt x="269" y="-244" on="0"/>
        <pt x="267" y="-258" on="1"/>
      </contour>
    </TTGlyph>
    <TTGlyph name="bracketright" xMin="14" yMin="-258" xMax="206" yMax="778">
      <contour>
        <pt x="14" y="-238" on="1"/>
        <pt x="14" y="-206" on="0"/>
        <pt x="27" y="-195" on="1"/>
        <pt x="126" y="-195" on="1"/>
        <pt x="126" y="715" on="1"/>
        <pt x="27" y="715" on="1"/>
        <pt x="14" y="726" on="0"/>
        <pt x="14" y="758" on="1"/>
        <pt x="14" y="764" on="0"/>
        <pt x="16" y="778" on="1"/>
        <pt x="206" y="778" on="1"/>
        <pt x="206" y="-258" on="1"/>
        <pt x="16" y="-258" on="1"/>
        <pt x="14" y="-244" on="0"/>
      </contour>
    </TTGlyph>
    <TTGlyph name="breve" xMin="20" yMin="543" xMax="322" yMax="696">
      <contour>
        <pt x="20" y="673" on="1"/>
        <pt x="20" y="696" on="0"/>
        <pt x="51" y="696" on="1"/>
        <pt x="53" y="674" on="0"/>
        <pt x="123" y="613" on="0"/>
        <pt x="220" y="613" on="0"/>
        <pt x="285" y="665" on="0"/>
        <pt x="291" y="696" on="1"/>
        <pt x="322" y="696" on="0"/>
        <pt x="322" y="673" on="1"/>
        <pt x="322" y="627" on="0"/>
        <pt x="229" y="543" on="0"/>
        <pt x="112" y="543" on="0"/>
        <pt x="20" y="627" on="0"/>
      </contour>
    </TTGlyph>
    <TTGlyph name="brokenbar" xMin="81" yMin="-170" xMax="148" yMax="704">
      <contour>
        <pt x="81" y="-152" on="1"/>
        <pt x="84" y="143" on="1"/>
        <pt x="148" y="143" on="1"/>
        <pt x="147" y="-170" on="1"/>
        <pt x="101" y="-170" on="0"/>
      </contour>
      <contour>
        <pt x="83" y="391" on="1"/>
        <pt x="83" y="704" on="1"/>
        <pt x="129" y="704" on="0"/>
        <pt x="147" y="686" on="1"/>
        <pt x="147" y="391" on="1"/>
      </contour>
    </TTGlyph>
    <TTGlyph name="bullet" xMin="61" yMin="171" xMax="254" yMax="363">
      <contour>
        <pt x="110" y="171" on="0"/>
        <pt x="61" y="222" on="0"/>
        <pt x="61" y="306" on="0"/>
        <pt x="120" y="363" on="0"/>
        <pt x="204" y="363" on="0"/>
        <pt x="254" y="311" on="0"/>
        <pt x="254" y="227" on="0"/>
        <pt x="196" y="171" on="0"/>
      </contour>
    </TTGlyph>
    <TTGlyph name="c" xMin="39" yMin="-12" xMax="429" yMax="462">
      <contour>
        <pt x="147" y="-12" on="0"/>
        <pt x="39" y="121" on="0"/>
        <pt x="39" y="324" on="0"/>
        <pt x="163" y="462" on="0"/>
        <pt x="259" y="462" on="1"/>
        <pt x="322" y="462" on="0"/>
        <pt x="424" y="397" on="0"/>
        <pt x="424" y="342" on="1"/>
        <pt x="424" y="320" on="0"/>
        <pt x="400" y="296" on="0"/>
        <pt x="356" y="296" on="0"/>
        <pt x="336" y="316" on="1"/>
        <pt x="332" y="419" on="0"/>
        <pt x="253" y="419" on="1"/>
        <pt x="132" y="419" on="0"/>
        <pt x="132" y="238" on="1"/>
        <pt x="132" y="153" on="0"/>
        <pt x="208" y="55" on="0"/>
        <pt x="276" y="55" on="1"/>
        <pt x="309" y="55" on="0"/>
        <pt x="343" y="70" on="1"/>
        <pt x="389" y="89" on="0"/>
        <pt x="412" y="112" on="1"/>
        <pt x="429" y="88" on="1"/>
        <pt x="417" y="75" on="1"/>
        <pt x="337" y="-12" on="0"/>
        <pt x="253" y="-12" on="1"/>
      </contour>
    </TTGlyph>
    <TTGlyph name="caron" xMin="20" yMin="518" xMax="326" yMax="715">
      <contour>
        <pt x="20" y="693" on="1"/>
        <pt x="20" y="703" on="0"/>
        <pt x="36" y="715" on="0"/>
        <pt x="41" y="715" on="1"/>
        <pt x="173" y="606" on="1"/>
        <pt x="305" y="715" on="1"/>
        <pt x="310" y="715" on="0"/>
        <pt x="326" y="703" on="0"/>
        <pt x="326" y="693" on="1"/>
        <pt x="215" y="545" on="1"/>
        <pt x="196" y="518" on="0"/>
        <pt x="152" y="518" on="0"/>
        <pt x="131" y="545" on="1"/>
      </contour>
    </TTGlyph>
    <TTGlyph name="ccedilla" xMin="40" yMin="-270" xMax="430" yMax="462">
      <contour>
        <pt x="40" y="225" on="1"/>
        <pt x="40" y="324" on="0"/>
        <pt x="164" y="462" on="0"/>
        <pt x="260" y="462" on="1"/>
        <pt x="323" y="462" on="0"/>
        <pt x="425" y="397" on="0"/>
        <pt x="425" y="342" on="1"/>
        <pt x="425" y="320" on="0"/>
        <pt x="401" y="296" on="0"/>
        <pt x="357" y="296" on="0"/>
        <pt x="337" y="316" on="1"/>
        <pt x="333" y="419" on="0"/>
        <pt x="254" y="419" on="1"/>
        <pt x="133" y="419" on="0"/>
        <pt x="133" y="238" on="1"/>
        <pt x="133" y="153" on="0"/>
        <pt x="209" y="55" on="0"/>
        <pt x="277" y="55" on="1"/>
        <pt x="310" y="55" on="0"/>
        <pt x="344" y="70" on="1"/>
        <pt x="390" y="89" on="0"/>
        <pt x="413" y="112" on="1"/>
        <pt x="430" y="88" on="1"/>
        <pt x="418" y="75" on="1"/>
        <pt x="338" y="-12" on="0"/>
        <pt x="254" y="-12" on="1"/>
        <pt x="245" y="-53" on="1"/>
        <pt x="300" y="-53" on="0"/>
        <pt x="378" y="-103" on="0"/>
        <pt x="378" y="-203" on="0"/>
        <pt x="302" y="-270" on="0"/>
        <pt x="180" y="-270" on="0"/>
        <pt x="115" y="-221" on="0"/>
        <pt x="115" y="-150" on="0"/>
        <pt x="148" y="-150" on="1"/>
        <pt x="165" y="-150" on="0"/>
        <pt x="179" y="-164" on="1"/>
        <pt x="179" y="-238" on="0"/>
        <pt x="239" y="-238" on="1"/>
        <pt x="273" y="-238" on="0"/>
        <pt x="313" y="-202" on="0"/>
        <pt x="313" y="-132" on="0"/>
        <pt x="262" y="-95" on="0"/>
        <pt x="217" y="-95" on="1"/>
        <pt x="212" y="-95" on="0"/>
        <pt x="190" y="-97" on="1"/>
        <pt x="211" y="-9" on="1"/>
        <pt x="126" y="3" on="0"/>
        <pt x="42" y="131" on="0"/>
      </contour>
    </TTGlyph>
    <TTGlyph name="cedilla" xMin="20" yMin="-270" xMax="283" yMax="-9">
      <contour>
        <pt x="85" y="-270" on="0"/>
        <pt x="20" y="-221" on="0"/>
        <pt x="20" y="-150" on="0"/>
        <pt x="53" y="-150" on="1"/>
        <pt x="70" y="-150" on="0"/>
        <pt x="84" y="-164" on="1"/>
        <pt x="84" y="-238" on="0"/>
        <pt x="144" y="-238" on="1"/>
        <pt x="178" y="-238" on="0"/>
        <pt x="218" y="-202" on="0"/>
        <pt x="218" y="-132" on="0"/>
        <pt x="167" y="-95" on="0"/>
        <pt x="122" y="-95" on="1"/>
        <pt x="117" y="-95" on="0"/>
        <pt x="95" y="-97" on="1"/>
        <pt x="116" y="-9" on="1"/>
        <pt x="119" y="-9" on="0"/>
        <pt x="151" y="-11" on="0"/>
        <pt x="159" y="-11" on="1"/>
        <pt x="150" y="-53" on="1"/>
        <pt x="205" y="-53" on="0"/>
        <pt x="283" y="-103" on="0"/>
        <pt x="283" y="-203" on="0"/>
        <pt x="207" y="-270" on="0"/>
      </contour>
    </TTGlyph>
    <TTGlyph name="cent" xMin="52" yMin="-88" xMax="505" yMax="655">
      <contour>
        <pt x="175" y="-4" on="0"/>
        <pt x="52" y="151" on="0"/>
        <pt x="52" y="369" on="0"/>
        <pt x="186" y="561" on="0"/>
        <pt x="289" y="578" on="1"/>
        <pt x="289" y="655" on="1"/>
        <pt x="318" y="655" on="0"/>
        <pt x="328" y="645" on="1"/>
        <pt x="328" y="581" on="1"/>
        <pt x="433" y="581" on="0"/>
        <pt x="505" y="536" on="1"/>
        <pt x="487" y="404" on="1"/>
        <pt x="448" y="407" on="0"/>
        <pt x="444" y="421" on="1"/>
        <pt x="433" y="493" on="1"/>
        <pt x="388" y="533" on="0"/>
        <pt x="328" y="537" on="1"/>
        <pt x="328" y="34" on="1"/>
        <pt x="392" y="39" on="0"/>
        <pt x="433" y="86" on="1"/>
        <pt x="444" y="184" on="1"/>
        <pt x="482" y="184" on="0"/>
        <pt x="495" y="169" on="1"/>
        <pt x="505" y="65" on="1"/>
        <pt x="424" y="-6" on="0"/>
        <pt x="328" y="-12" on="1"/>
        <pt x="328" y="-88" on="1"/>
        <pt x="303" y="-88" on="0"/>
        <pt x="289" y="-78" on="1"/>
        <pt x="289" y="-11" on="1"/>
      </contour>
      <contour>
        <pt x="144" y="293" on="1"/>
        <pt x="144" y="195" on="0"/>
        <pt x="224" y="47" on="0"/>
        <pt x="289" y="35" on="1"/>
        <pt x="289" y="534" on="1"/>
        <pt x="220" y="522" on="0"/>
        <pt x="146" y="391" on="0"/>
      </contour>
    </TTGlyph>
    <TTGlyph name="circumflex" xMin="20" yMin="518" xMax="326" yMax="715">
      <contour>
        <pt x="20" y="540" on="1"/>
        <pt x="131" y="688" on="1"/>
        <pt x="151" y="715" on="0"/>
        <pt x="173" y="715" on="1"/>
        <pt x="197" y="712" on="0"/>
        <pt x="215" y="688" on="1"/>
        <pt x="326" y="540" on="1"/>
        <pt x="326" y="530" on="0"/>
        <pt x="310" y="518" on="0"/>
        <pt x="305" y="518" on="1"/>
        <pt x="173" y="627" on="1"/>
        <pt x="41" y="518" on="1"/>
        <pt x="36" y="518" on="0"/>
        <pt x="20" y="530" on="0"/>
      </contour>
    </TTGlyph>
    <TTGlyph name="colon" xMin="58" yMin="4" xMax="181" yMax="443">
      <contour>
        <pt x="90" y="4" on="0"/>
        <pt x="58" y="37" on="0"/>
        <pt x="58" y="91" on="0"/>
        <pt x="95" y="126" on="0"/>
        <pt x="149" y="126" on="0"/>
        <pt x="181" y="93" on="0"/>
        <pt x="181" y="39" on="0"/>
        <pt x="144" y="4" on="0"/>
      </contour>
      <contour>
        <pt x="90" y="321" on="0"/>
        <pt x="58" y="354" on="0"/>
        <pt x="58" y="408" on="0"/>
        <pt x="95" y="443" on="0"/>
        <pt x="149" y="443" on="0"/>
        <pt x="181" y="410" on="0"/>
        <pt x="181" y="356" on="0"/>
        <pt x="144" y="321" on="0"/>
      </contour>
    </TTGlyph>
    <TTGlyph name="comma" xMin="27" yMin="-150" xMax="173" yMax="99">
      <contour>
        <pt x="42" y="-150" on="1"/>
        <pt x="38" y="-149" on="1"/>
        <pt x="27" y="-148" on="0"/>
        <pt x="27" y="-127" on="1"/>
        <pt x="67" y="-114" on="0"/>
        <pt x="106" y="-67" on="0"/>
        <pt x="106" y="-25" on="0"/>
        <pt x="88" y="0" on="0"/>
        <pt x="78" y="6" on="1"/>
        <pt x="49" y="24" on="0"/>
        <pt x="49" y="72" on="0"/>
        <pt x="74" y="99" on="0"/>
        <pt x="95" y="99" on="1"/>
        <pt x="133" y="99" on="0"/>
        <pt x="173" y="40" on="0"/>
        <pt x="173" y="-38" on="0"/>
        <pt x="141" y="-100" on="0"/>
        <pt x="118" y="-116" on="1"/>
        <pt x="71" y="-150" on="0"/>
      </contour>
    </TTGlyph>
    <TTGlyph name="copyright" xMin="48" yMin="-12" xMax="691" yMax="655">
      <contour>
        <pt x="86" y="127" on="0"/>
        <pt x="48" y="235" on="0"/>
        <pt x="48" y="363" on="0"/>
        <pt x="93" y="490" on="0"/>
        <pt x="175" y="593" on="0"/>
        <pt x="302" y="655" on="0"/>
        <pt x="378" y="655" on="1"/>
        <pt x="530" y="655" on="0"/>
        <pt x="691" y="476" on="0"/>
        <pt x="691" y="347" on="1"/>
        <pt x="691" y="210" on="0"/>
        <pt x="605" y="102" on="1"/>
        <pt x="564" y="50" on="0"/>
        <pt x="437" y="-12" on="0"/>
        <pt x="283" y="-12" on="0"/>
        <pt x="160" y="40" on="0"/>
      </contour>
      <contour>
        <pt x="234" y="606" on="0"/>
        <pt x="103" y="451" on="0"/>
        <pt x="103" y="205" on="0"/>
        <pt x="244" y="37" on="0"/>
        <pt x="503" y="37" on="0"/>
        <pt x="635" y="192" on="0"/>
        <pt x="635" y="440" on="0"/>
        <pt x="494" y="606" on="0"/>
      </contour>
      <contour>
        <pt x="281" y="115" on="0"/>
        <pt x="181" y="223" on="0"/>
        <pt x="181" y="389" on="0"/>
        <pt x="297" y="528" on="0"/>
        <pt x="391" y="528" on="1"/>
        <pt x="466" y="528" on="0"/>
        <pt x="516" y="498" on="1"/>
        <pt x="505" y="403" on="1"/>
        <pt x="503" y="404" on="0"/>
        <pt x="493" y="406" on="0"/>
        <pt x="487" y="408" on="0"/>
        <pt x="484" y="409" on="1"/>
        <pt x="476" y="411" on="0"/>
        <pt x="476" y="417" on="1"/>
        <pt x="468" y="468" on="1"/>
        <pt x="435" y="499" on="0"/>
        <pt x="386" y="499" on="1"/>
        <pt x="314" y="499" on="0"/>
        <pt x="243" y="403" on="0"/>
        <pt x="243" y="250" on="0"/>
        <pt x="317" y="145" on="0"/>
        <pt x="434" y="145" on="0"/>
        <pt x="467" y="182" on="1"/>
        <pt x="474" y="252" on="1"/>
        <pt x="502" y="252" on="0"/>
        <pt x="510" y="244" on="1"/>
        <pt x="516" y="168" on="1"/>
        <pt x="457" y="115" on="0"/>
        <pt x="381" y="115" on="1"/>
      </contour>
    </TTGlyph>
    <TTGlyph name="currency" xMin="46" yMin="-12" xMax="623" yMax="581">
      <contour>
        <pt x="46" y="26" on="1"/>
        <pt x="162" y="147" on="1"/>
        <pt x="126" y="201" on="0"/>
        <pt x="126" y="349" on="0"/>
        <pt x="170" y="414" on="1"/>
        <pt x="46" y="543" on="1"/>
        <pt x="52" y="571" on="0"/>
        <pt x="93" y="581" on="1"/>
        <pt x="210" y="460" on="1"/>
        <pt x="268" y="508" on="0"/>
        <pt x="422" y="508" on="0"/>
        <pt x="471" y="472" on="1"/>
        <pt x="576" y="581" on="1"/>
        <pt x="617" y="571" on="0"/>
        <pt x="623" y="543" on="1"/>
        <pt x="513" y="429" on="1"/>
        <pt x="549" y="379" on="0"/>
        <pt x="549" y="222" on="0"/>
        <pt x="501" y="154" on="1"/>
        <pt x="623" y="26" on="1"/>
        <pt x="617" y="-2" on="0"/>
        <pt x="576" y="-12" on="1"/>
        <pt x="459" y="111" on="1"/>
        <pt x="406" y="68" on="0"/>
        <pt x="254" y="68" on="0"/>
        <pt x="204" y="104" on="1"/>
        <pt x="93" y="-12" on="1"/>
        <pt x="52" y="-2" on="0"/>
      </contour>
      <contour>
        <pt x="191" y="295" on="1"/>
        <pt x="191" y="226" on="0"/>
        <pt x="268" y="132" on="0"/>
        <pt x="412" y="132" on="0"/>
        <pt x="484" y="217" on="0"/>
        <pt x="484" y="355" on="0"/>
        <pt x="406" y="447" on="0"/>
        <pt x="265" y="447" on="0"/>
        <pt x="193" y="362" on="0"/>
      </contour>
    </TTGlyph>
    <TTGlyph name="d" xMin="40" yMin="-12" xMax="547" yMax="734">
      <contour>
        <pt x="139" y="-12" on="0"/>
        <pt x="40" y="125" on="0"/>
        <pt x="40" y="320" on="0"/>
        <pt x="160" y="462" on="0"/>
        <pt x="266" y="462" on="1"/>
        <pt x="321" y="462" on="0"/>
        <pt x="376" y="446" on="1"/>
        <pt x="376" y="664" on="1"/>
        <pt x="320" y="687" on="1"/>
        <pt x="304" y="693" on="0"/>
        <pt x="304" y="726" on="1"/>
        <pt x="372" y="734" on="0"/>
        <pt x="417" y="734" on="0"/>
        <pt x="435" y="731" on="0"/>
        <pt x="458" y="702" on="0"/>
        <pt x="458" y="676" on="1"/>
        <pt x="458" y="90" on="1"/>
        <pt x="458" y="51" on="0"/>
        <pt x="485" y="51" on="1"/>
        <pt x="507" y="51" on="0"/>
        <pt x="530" y="68" on="1"/>
        <pt x="547" y="44" on="1"/>
        <pt x="498" y="-12" on="0"/>
        <pt x="447" y="-12" on="1"/>
        <pt x="376" y="-12" on="0"/>
        <pt x="376" y="86" on="1"/>
        <pt x="348" y="42" on="0"/>
        <pt x="261" y="-12" on="0"/>
        <pt x="227" y="-12" on="1"/>
      </contour>
      <contour>
        <pt x="133" y="238" on="1"/>
        <pt x="133" y="155" on="0"/>
        <pt x="197" y="55" on="0"/>
        <pt x="263" y="55" on="1"/>
        <pt x="314" y="55" on="0"/>
        <pt x="376" y="124" on="1"/>
        <pt x="376" y="379" on="1"/>
        <pt x="327" y="416" on="0"/>
        <pt x="274" y="416" on="1"/>
        <pt x="133" y="416" on="0"/>
      </contour>
    </TTGlyph>
    <TTGlyph name="dagger" xMin="25" yMin="-270" xMax="449" yMax="655">
      <contour>
        <pt x="41" y="380" on="1"/>
        <pt x="25" y="400" on="0"/>
        <pt x="25" y="447" on="0"/>
        <pt x="41" y="467" on="1"/>
        <pt x="222" y="437" on="1"/>
        <pt x="192" y="639" on="1"/>
        <pt x="214" y="655" on="0"/>
        <pt x="258" y="655" on="0"/>
        <pt x="280" y="639" on="1"/>
        <pt x="252" y="437" on="1"/>
        <pt x="433" y="467" on="1"/>
        <pt x="449" y="447" on="0"/>
        <pt x="449" y="400" on="0"/>
        <pt x="433" y="380" on="1"/>
        <pt x="252" y="408" on="1"/>
        <pt x="280" y="236" on="1"/>
        <pt x="264" y="216" on="0"/>
        <pt x="264" y="172" on="0"/>
        <pt x="273" y="159" on="1"/>
        <pt x="257" y="-255" on="1"/>
        <pt x="246" y="-270" on="0"/>
        <pt x="217" y="-270" on="1"/>
        <pt x="199" y="159" on="1"/>
        <pt x="208" y="172" on="0"/>
        <pt x="208" y="216" on="0"/>
        <pt x="192" y="236" on="1"/>
        <pt x="222" y="408" on="1"/>
      </contour>
    </TTGlyph>
    <TTGlyph name="daggerdbl" xMin="34" yMin="-270" xMax="458" yMax="655">
      <contour>
        <pt x="50" y="-82" on="1"/>
        <pt x="34" y="-62" on="0"/>
        <pt x="34" y="-15" on="0"/>
        <pt x="50" y="5" on="1"/>
        <pt x="231" y="-23" on="1"/>
        <pt x="201" y="149" on="1"/>
        <pt x="217" y="169" on="0"/>
        <pt x="217" y="216" on="0"/>
        <pt x="201" y="236" on="1"/>
        <pt x="231" y="408" on="1"/>
        <pt x="50" y="380" on="1"/>
        <pt x="34" y="400" on="0"/>
        <pt x="34" y="447" on="0"/>
        <pt x="50" y="467" on="1"/>
        <pt x="231" y="437" on="1"/>
        <pt x="201" y="639" on="1"/>
        <pt x="223" y="655" on="0"/>
        <pt x="267" y="655" on="0"/>
        <pt x="289" y="639" on="1"/>
        <pt x="261" y="437" on="1"/>
        <pt x="442" y="467" on="1"/>
        <pt x="458" y="447" on="0"/>
        <pt x="458" y="400" on="0"/>
        <pt x="442" y="380" on="1"/>
        <pt x="261" y="408" on="1"/>
        <pt x="289" y="236" on="1"/>
        <pt x="273" y="216" on="0"/>
        <pt x="273" y="169" on="0"/>
        <pt x="289" y="149" on="1"/>
        <pt x="261" y="-23" on="1"/>
        <pt x="442" y="5" on="1"/>
        <pt x="458" y="-15" on="0"/>
        <pt x="458" y="-62" on="0"/>
        <pt x="442" y="-82" on="1"/>
        <pt x="261" y="-52" on="1"/>
        <pt x="289" y="-254" on="1"/>
        <pt x="267" y="-270" on="0"/>
        <pt x="223" y="-270" on="0"/>
        <pt x="201" y="-254" on="1"/>
        <pt x="231" y="-52" on="1"/>
      </contour>
    </TTGlyph>
    <TTGlyph name="degree" xMin="39" yMin="443" xMax="263" yMax="655">
      <contour>
        <pt x="91" y="443" on="0"/>
        <pt x="39" y="502" on="0"/>
        <pt x="39" y="592" on="0"/>
        <pt x="105" y="655" on="0"/>
        <pt x="207" y="655" on="0"/>
        <pt x="263" y="597" on="0"/>
        <pt x="263" y="513" on="0"/>
        <pt x="200" y="443" on="0"/>
      </contour>
      <contour>
        <pt x="115" y="621" on="0"/>
        <pt x="83" y="579" on="0"/>
        <pt x="83" y="515" on="0"/>
        <pt x="118" y="477" on="0"/>
        <pt x="152" y="477" on="1"/>
        <pt x="218" y="477" on="0"/>
        <pt x="218" y="545" on="1"/>
        <pt x="218" y="579" on="0"/>
        <pt x="184" y="621" on="0"/>
      </contour>
    </TTGlyph>
    <TTGlyph name="dieresis" xMin="20" yMin="558" xMax="320" yMax="650">
      <contour>
        <pt x="20" y="604" on="1"/>
        <pt x="20" y="622" on="0"/>
        <pt x="48" y="650" on="0"/>
        <pt x="89" y="650" on="0"/>
        <pt x="113" y="625" on="0"/>
        <pt x="113" y="586" on="0"/>
        <pt x="84" y="558" on="0"/>
        <pt x="66" y="558" on="1"/>
        <pt x="20" y="558" on="0"/>
      </contour>
      <contour>
        <pt x="227" y="604" on="1"/>
        <pt x="227" y="622" on="0"/>
        <pt x="255" y="650" on="0"/>
        <pt x="296" y="650" on="0"/>
        <pt x="320" y="625" on="0"/>
        <pt x="320" y="586" on="0"/>
        <pt x="291" y="558" on="0"/>
        <pt x="273" y="558" on="1"/>
        <pt x="227" y="558" on="0"/>
      </contour>
    </TTGlyph>
    <TTGlyph name="divide" xMin="53" yMin="66" xMax="459" yMax="470">
      <contour>
        <pt x="67" y="236" on="1"/>
        <pt x="53" y="247" on="0"/>
        <pt x="53" y="290" on="0"/>
        <pt x="56" y="298" on="1"/>
        <pt x="445" y="298" on="1"/>
        <pt x="459" y="287" on="0"/>
        <pt x="459" y="244" on="0"/>
        <pt x="456" y="236" on="1"/>
      </contour>
      <contour>
        <pt x="228" y="66" on="0"/>
        <pt x="200" y="95" on="0"/>
        <pt x="200" y="143" on="0"/>
        <pt x="232" y="174" on="0"/>
        <pt x="280" y="174" on="0"/>
        <pt x="309" y="145" on="0"/>
        <pt x="309" y="97" on="0"/>
        <pt x="276" y="66" on="0"/>
      </contour>
      <contour>
        <pt x="228" y="362" on="0"/>
        <pt x="200" y="391" on="0"/>
        <pt x="200" y="439" on="0"/>
        <pt x="232" y="470" on="0"/>
        <pt x="280" y="470" on="0"/>
        <pt x="309" y="441" on="0"/>
        <pt x="309" y="393" on="0"/>
        <pt x="276" y="362" on="0"/>
      </contour>
    </TTGlyph>
    <TTGlyph name="dollar" xMin="49" yMin="-88" xMax="451" yMax="655">
      <contour>
        <pt x="49" y="45" on="1"/>
        <pt x="64" y="164" on="1"/>
        <pt x="80" y="178" on="0"/>
        <pt x="107" y="178" on="0"/>
        <pt x="115" y="176" on="1"/>
        <pt x="126" y="69" on="1"/>
        <pt x="178" y="38" on="0"/>
        <pt x="230" y="34" on="1"/>
        <pt x="230" y="261" on="1"/>
        <pt x="191" y="276" on="0"/>
        <pt x="151" y="295" on="0"/>
        <pt x="124" y="314" on="1"/>
        <pt x="73" y="351" on="0"/>
        <pt x="73" y="485" on="0"/>
        <pt x="157" y="575" on="0"/>
        <pt x="230" y="581" on="1"/>
        <pt x="230" y="655" on="1"/>
        <pt x="259" y="655" on="0"/>
        <pt x="269" y="645" on="1"/>
        <pt x="269" y="581" on="1"/>
        <pt x="330" y="575" on="0"/>
        <pt x="376" y="554" on="1"/>
        <pt x="425" y="531" on="1"/>
        <pt x="407" y="411" on="1"/>
        <pt x="371" y="411" on="0"/>
        <pt x="365" y="428" on="1"/>
        <pt x="351" y="503" on="1"/>
        <pt x="317" y="531" on="0"/>
        <pt x="269" y="536" on="1"/>
        <pt x="269" y="332" on="1"/>
        <pt x="359" y="298" on="0"/>
        <pt x="389" y="278" on="1"/>
        <pt x="451" y="234" on="0"/>
        <pt x="451" y="90" on="0"/>
        <pt x="354" y="-8" on="0"/>
        <pt x="269" y="-12" on="1"/>
        <pt x="269" y="-88" on="1"/>
        <pt x="244" y="-88" on="0"/>
        <pt x="230" y="-78" on="1"/>
        <pt x="230" y="-11" on="1"/>
        <pt x="146" y="-5" on="0"/>
      </contour>
      <contour>
        <pt x="145" y="443" on="1"/>
        <pt x="145" y="408" on="0"/>
        <pt x="188" y="365" on="0"/>
        <pt x="230" y="347" on="1"/>
        <pt x="230" y="536" on="1"/>
        <pt x="145" y="524" on="0"/>
      </contour>
      <contour>
        <pt x="269" y="36" on="1"/>
        <pt x="315" y="41" on="0"/>
        <pt x="370" y="94" on="0"/>
        <pt x="370" y="179" on="0"/>
        <pt x="318" y="227" on="0"/>
        <pt x="269" y="246" on="1"/>
      </contour>
    </TTGlyph>
    <TTGlyph name="dotaccent" xMin="25" yMin="536" xMax="146" yMax="655">
      <contour>
        <pt x="56" y="536" on="0"/>
        <pt x="25" y="568" on="0"/>
        <pt x="25" y="621" on="0"/>
        <pt x="61" y="655" on="0"/>
        <pt x="114" y="655" on="0"/>
        <pt x="146" y="623" on="0"/>
        <pt x="146" y="571" on="0"/>
        <pt x="109" y="536" on="0"/>
      </contour>
    </TTGlyph>
    <TTGlyph name="dotlessi" xMin="29" yMin="0" xMax="265" yMax="451">
      <contour>
        <pt x="29" y="0" on="1"/>
        <pt x="29" y="33" on="0"/>
        <pt x="45" y="39" on="1"/>
        <pt x="101" y="62" on="1"/>
        <pt x="101" y="381" on="1"/>
        <pt x="45" y="404" on="1"/>
        <pt x="29" y="410" on="0"/>
        <pt x="29" y="443" on="1"/>
        <pt x="97" y="451" on="0"/>
        <pt x="130" y="451" on="1"/>
        <pt x="183" y="451" on="0"/>
        <pt x="183" y="397" on="1"/>
        <pt x="183" y="67" on="1"/>
        <pt x="265" y="46" on="1"/>
        <pt x="265" y="26" on="0"/>
        <pt x="257" y="8" on="0"/>
        <pt x="246" y="0" on="1"/>
      </contour>
    </TTGlyph>
    <TTGlyph name="e" xMin="40" yMin="-12" xMax="433" yMax="462">
      <contour>
        <pt x="40" y="326" on="0"/>
        <pt x="163" y="462" on="0"/>
        <pt x="256" y="462" on="1"/>
        <pt x="323" y="462" on="0"/>
        <pt x="372" y="420" on="1"/>
        <pt x="429" y="372" on="0"/>
        <pt x="433" y="246" on="1"/>
        <pt x="132" y="246" on="1"/>
        <pt x="132" y="151" on="0"/>
        <pt x="213" y="55" on="0"/>
        <pt x="346" y="55" on="0"/>
        <pt x="413" y="112" on="1"/>
        <pt x="430" y="88" on="1"/>
        <pt x="341" y="-12" on="0"/>
        <pt x="255" y="-12" on="1"/>
        <pt x="195" y="-12" on="0"/>
        <pt x="108" y="29" on="0"/>
        <pt x="84" y="64" on="1"/>
        <pt x="40" y="132" on="0"/>
      </contour>
      <contour>
        <pt x="133" y="288" on="1"/>
        <pt x="338" y="291" on="1"/>
        <pt x="337" y="357" on="0"/>
        <pt x="286" y="419" on="0"/>
        <pt x="248" y="419" on="1"/>
        <pt x="146" y="419" on="0"/>
      </contour>
    </TTGlyph>
    <TTGlyph name="eacute" xMin="40" yMin="-12" xMax="433" yMax="715">
      <contour>
        <pt x="40" y="326" on="0"/>
        <pt x="163" y="462" on="0"/>
        <pt x="256" y="462" on="1"/>
        <pt x="323" y="462" on="0"/>
        <pt x="372" y="420" on="1"/>
        <pt x="429" y="372" on="0"/>
        <pt x="433" y="246" on="1"/>
        <pt x="132" y="246" on="1"/>
        <pt x="132" y="151" on="0"/>
        <pt x="213" y="55" on="0"/>
        <pt x="346" y="55" on="0"/>
        <pt x="413" y="112" on="1"/>
        <pt x="430" y="88" on="1"/>
        <pt x="341" y="-12" on="0"/>
        <pt x="255" y="-12" on="1"/>
        <pt x="195" y="-12" on="0"/>
        <pt x="108" y="29" on="0"/>
        <pt x="84" y="64" on="1"/>
        <pt x="40" y="132" on="0"/>
      </contour>
      <contour>
        <pt x="133" y="288" on="1"/>
        <pt x="338" y="291" on="1"/>
        <pt x="337" y="357" on="0"/>
        <pt x="286" y="419" on="0"/>
        <pt x="248" y="419" on="1"/>
        <pt x="146" y="419" on="0"/>
      </contour>
      <contour>
        <pt x="153" y="540" on="1"/>
        <pt x="260" y="657" on="1"/>
        <pt x="298" y="700" on="0"/>
        <pt x="326" y="715" on="0"/>
        <pt x="351" y="715" on="0"/>
        <pt x="379" y="687" on="0"/>
        <pt x="379" y="665" on="0"/>
        <pt x="372" y="651" on="0"/>
        <pt x="363" y="642" on="1"/>
        <pt x="352" y="632" on="0"/>
        <pt x="314" y="606" on="1"/>
        <pt x="174" y="518" on="1"/>
        <pt x="153" y="523" on="0"/>
      </contour>
    </TTGlyph>
    <TTGlyph name="ecircumflex" xMin="40" yMin="-12" xMax="433" yMax="715">
      <contour>
        <pt x="40" y="326" on="0"/>
        <pt x="163" y="462" on="0"/>
        <pt x="256" y="462" on="1"/>
        <pt x="323" y="462" on="0"/>
        <pt x="372" y="420" on="1"/>
        <pt x="429" y="372" on="0"/>
        <pt x="433" y="246" on="1"/>
        <pt x="132" y="246" on="1"/>
        <pt x="132" y="151" on="0"/>
        <pt x="213" y="55" on="0"/>
        <pt x="346" y="55" on="0"/>
        <pt x="413" y="112" on="1"/>
        <pt x="430" y="88" on="1"/>
        <pt x="341" y="-12" on="0"/>
        <pt x="255" y="-12" on="1"/>
        <pt x="195" y="-12" on="0"/>
        <pt x="108" y="29" on="0"/>
        <pt x="84" y="64" on="1"/>
        <pt x="40" y="132" on="0"/>
      </contour>
      <contour>
        <pt x="108" y="540" on="1"/>
        <pt x="219" y="688" on="1"/>
        <pt x="239" y="715" on="0"/>
        <pt x="284" y="715" on="0"/>
        <pt x="303" y="688" on="1"/>
        <pt x="414" y="540" on="1"/>
        <pt x="414" y="530" on="0"/>
        <pt x="398" y="518" on="0"/>
        <pt x="393" y="518" on="1"/>
        <pt x="261" y="627" on="1"/>
        <pt x="129" y="518" on="1"/>
        <pt x="124" y="518" on="0"/>
        <pt x="108" y="530" on="0"/>
      </contour>
      <contour>
        <pt x="133" y="288" on="1"/>
        <pt x="338" y="291" on="1"/>
        <pt x="337" y="357" on="0"/>
        <pt x="286" y="419" on="0"/>
        <pt x="248" y="419" on="1"/>
        <pt x="146" y="419" on="0"/>
      </contour>
    </TTGlyph>
    <TTGlyph name="edieresis" xMin="40" yMin="-12" xMax="433" yMax="650">
      <contour>
        <pt x="40" y="326" on="0"/>
        <pt x="163" y="462" on="0"/>
        <pt x="256" y="462" on="1"/>
        <pt x="323" y="462" on="0"/>
        <pt x="372" y="420" on="1"/>
        <pt x="429" y="372" on="0"/>
        <pt x="433" y="246" on="1"/>
        <pt x="132" y="246" on="1"/>
        <pt x="132" y="151" on="0"/>
        <pt x="213" y="55" on="0"/>
        <pt x="346" y="55" on="0"/>
        <pt x="413" y="112" on="1"/>
        <pt x="430" y="88" on="1"/>
        <pt x="341" y="-12" on="0"/>
        <pt x="255" y="-12" on="1"/>
        <pt x="195" y="-12" on="0"/>
        <pt x="108" y="29" on="0"/>
        <pt x="84" y="64" on="1"/>
        <pt x="40" y="132" on="0"/>
      </contour>
      <contour>
        <pt x="115" y="604" on="1"/>
        <pt x="115" y="622" on="0"/>
        <pt x="143" y="650" on="0"/>
        <pt x="184" y="650" on="0"/>
        <pt x="208" y="625" on="0"/>
        <pt x="208" y="586" on="0"/>
        <pt x="179" y="558" on="0"/>
        <pt x="161" y="558" on="1"/>
        <pt x="115" y="558" on="0"/>
      </contour>
      <contour>
        <pt x="133" y="288" on="1"/>
        <pt x="338" y="291" on="1"/>
        <pt x="337" y="357" on="0"/>
        <pt x="286" y="419" on="0"/>
        <pt x="248" y="419" on="1"/>
        <pt x="146" y="419" on="0"/>
      </contour>
      <contour>
        <pt x="322" y="604" on="1"/>
        <pt x="322" y="622" on="0"/>
        <pt x="350" y="650" on="0"/>
        <pt x="391" y="650" on="0"/>
        <pt x="415" y="625" on="0"/>
        <pt x="415" y="586" on="0"/>
        <pt x="386" y="558" on="0"/>
        <pt x="368" y="558" on="1"/>
        <pt x="322" y="558" on="0"/>
      </contour>
    </TTGlyph>
    <TTGlyph name="egrave" xMin="40" yMin="-12" xMax="433" yMax="715">
      <contour>
        <pt x="40" y="326" on="0"/>
        <pt x="163" y="462" on="0"/>
        <pt x="256" y="462" on="1"/>
        <pt x="323" y="462" on="0"/>
        <pt x="372" y="420" on="1"/>
        <pt x="429" y="372" on="0"/>
        <pt x="433" y="246" on="1"/>
        <pt x="132" y="246" on="1"/>
        <pt x="132" y="151" on="0"/>
        <pt x="213" y="55" on="0"/>
        <pt x="346" y="55" on="0"/>
        <pt x="413" y="112" on="1"/>
        <pt x="430" y="88" on="1"/>
        <pt x="341" y="-12" on="0"/>
        <pt x="255" y="-12" on="1"/>
        <pt x="195" y="-12" on="0"/>
        <pt x="108" y="29" on="0"/>
        <pt x="84" y="64" on="1"/>
        <pt x="40" y="132" on="0"/>
      </contour>
      <contour>
        <pt x="133" y="288" on="1"/>
        <pt x="338" y="291" on="1"/>
        <pt x="337" y="357" on="0"/>
        <pt x="286" y="419" on="0"/>
        <pt x="248" y="419" on="1"/>
        <pt x="146" y="419" on="0"/>
      </contour>
      <contour>
        <pt x="142" y="658" on="1"/>
        <pt x="139" y="665" on="0"/>
        <pt x="139" y="687" on="0"/>
        <pt x="167" y="715" on="0"/>
        <pt x="192" y="715" on="0"/>
        <pt x="201" y="710" on="1"/>
        <pt x="218" y="702" on="0"/>
        <pt x="255" y="660" on="1"/>
        <pt x="365" y="540" on="1"/>
        <pt x="365" y="523" on="0"/>
        <pt x="344" y="518" on="1"/>
        <pt x="204" y="606" on="1"/>
        <pt x="151" y="640" on="0"/>
      </contour>
    </TTGlyph>
    <TTGlyph name="eight" xMin="51" yMin="-12" xMax="503" yMax="655">
      <contour>
        <pt x="51" y="157" on="1"/>
        <pt x="51" y="207" on="0"/>
        <pt x="126" y="298" on="0"/>
        <pt x="176" y="328" on="1"/>
        <pt x="88" y="378" on="0"/>
        <pt x="84" y="477" on="1"/>
        <pt x="84" y="550" on="0"/>
        <pt x="186" y="655" on="0"/>
        <pt x="370" y="655" on="0"/>
        <pt x="472" y="565" on="0"/>
        <pt x="472" y="416" on="0"/>
        <pt x="381" y="343" on="1"/>
        <pt x="440" y="316" on="0"/>
        <pt x="503" y="242" on="0"/>
        <pt x="503" y="100" on="0"/>
        <pt x="380" y="-12" on="0"/>
        <pt x="171" y="-12" on="0"/>
        <pt x="51" y="82" on="0"/>
      </contour>
      <contour>
        <pt x="183" y="298" on="0"/>
        <pt x="146" y="226" on="0"/>
        <pt x="146" y="108" on="0"/>
        <pt x="217" y="37" on="0"/>
        <pt x="338" y="37" on="0"/>
        <pt x="409" y="101" on="0"/>
        <pt x="409" y="158" on="1"/>
        <pt x="409" y="218" on="0"/>
        <pt x="361" y="248" on="1"/>
        <pt x="323" y="272" on="0"/>
        <pt x="223" y="306" on="0"/>
        <pt x="205" y="314" on="1"/>
      </contour>
      <contour>
        <pt x="160" y="498" on="1"/>
        <pt x="160" y="466" on="0"/>
        <pt x="182" y="436" on="0"/>
        <pt x="196" y="419" on="0"/>
        <pt x="210" y="411" on="1"/>
        <pt x="234" y="398" on="1"/>
        <pt x="242" y="393" on="0"/>
        <pt x="261" y="386" on="1"/>
        <pt x="289" y="376" on="1"/>
        <pt x="307" y="368" on="0"/>
        <pt x="349" y="356" on="1"/>
        <pt x="395" y="411" on="0"/>
        <pt x="395" y="489" on="1"/>
        <pt x="395" y="545" on="0"/>
        <pt x="332" y="606" on="0"/>
        <pt x="223" y="606" on="0"/>
        <pt x="160" y="549" on="0"/>
      </contour>
    </TTGlyph>
    <TTGlyph name="ellipsis" xMin="48" yMin="-12" xMax="557" yMax="96">
      <contour>
        <pt x="76" y="-12" on="0"/>
        <pt x="48" y="17" on="0"/>
        <pt x="48" y="65" on="0"/>
        <pt x="80" y="96" on="0"/>
        <pt x="128" y="96" on="0"/>
        <pt x="157" y="67" on="0"/>
        <pt x="157" y="19" on="0"/>
        <pt x="124" y="-12" on="0"/>
      </contour>
      <contour>
        <pt x="276" y="-12" on="0"/>
        <pt x="248" y="17" on="0"/>
        <pt x="248" y="65" on="0"/>
        <pt x="280" y="96" on="0"/>
        <pt x="328" y="96" on="0"/>
        <pt x="357" y="67" on="0"/>
        <pt x="357" y="19" on="0"/>
        <pt x="324" y="-12" on="0"/>
      </contour>
      <contour>
        <pt x="476" y="-12" on="0"/>
        <pt x="448" y="17" on="0"/>
        <pt x="448" y="65" on="0"/>
        <pt x="480" y="96" on="0"/>
        <pt x="528" y="96" on="0"/>
        <pt x="557" y="67" on="0"/>
        <pt x="557" y="19" on="0"/>
        <pt x="524" y="-12" on="0"/>
      </contour>
    </TTGlyph>
    <TTGlyph name="emdash" xMin="63" yMin="235" xMax="779" yMax="299">
      <contour>
        <pt x="77" y="235" on="1"/>
        <pt x="63" y="246" on="0"/>
        <pt x="63" y="292" on="0"/>
        <pt x="66" y="299" on="1"/>
        <pt x="765" y="299" on="1"/>
        <pt x="779" y="288" on="0"/>
        <pt x="779" y="242" on="0"/>
        <pt x="776" y="235" on="1"/>
      </contour>
    </TTGlyph>
    <TTGlyph name="endash" xMin="63" yMin="235" xMax="619" yMax="299">
      <contour>
        <pt x="77" y="235" on="1"/>
        <pt x="63" y="246" on="0"/>
        <pt x="63" y="292" on="0"/>
        <pt x="66" y="299" on="1"/>
        <pt x="605" y="299" on="1"/>
        <pt x="619" y="288" on="0"/>
        <pt x="619" y="242" on="0"/>
        <pt x="616" y="235" on="1"/>
      </contour>
    </TTGlyph>
    <TTGlyph name="equal" xMin="68" yMin="165" xMax="464" yMax="369">
      <contour>
        <pt x="82" y="165" on="1"/>
        <pt x="68" y="176" on="0"/>
        <pt x="68" y="222" on="0"/>
        <pt x="71" y="229" on="1"/>
        <pt x="450" y="229" on="1"/>
        <pt x="464" y="218" on="0"/>
        <pt x="464" y="172" on="0"/>
        <pt x="461" y="165" on="1"/>
      </contour>
      <contour>
        <pt x="82" y="305" on="1"/>
        <pt x="68" y="316" on="0"/>
        <pt x="68" y="362" on="0"/>
        <pt x="71" y="369" on="1"/>
        <pt x="450" y="369" on="1"/>
        <pt x="464" y="358" on="0"/>
        <pt x="464" y="312" on="0"/>
        <pt x="461" y="305" on="1"/>
      </contour>
    </TTGlyph>
    <TTGlyph name="eth" xMin="41" yMin="-12" xMax="513" yMax="734">
      <contour>
        <pt x="162" y="-12" on="0"/>
        <pt x="41" y="110" on="0"/>
        <pt x="41" y="287" on="0"/>
        <pt x="149" y="420" on="0"/>
        <pt x="246" y="420" on="1"/>
        <pt x="306" y="420" on="0"/>
        <pt x="401" y="386" on="0"/>
        <pt x="425" y="362" on="1"/>
        <pt x="423" y="422" on="0"/>
        <pt x="336" y="557" on="0"/>
        <pt x="260" y="613" on="1"/>
        <pt x="102" y="517" on="1"/>
        <pt x="65" y="517" on="0"/>
        <pt x="65" y="541" on="1"/>
        <pt x="223" y="637" on="1"/>
        <pt x="155" y="682" on="0"/>
        <pt x="60" y="710" on="1"/>
        <pt x="60" y="734" on="0"/>
        <pt x="125" y="734" on="0"/>
        <pt x="237" y="688" on="0"/>
        <pt x="274" y="668" on="1"/>
        <pt x="382" y="734" on="1"/>
        <pt x="419" y="734" on="0"/>
        <pt x="419" y="710" on="1"/>
        <pt x="312" y="645" on="1"/>
        <pt x="513" y="511" on="0"/>
        <pt x="513" y="276" on="1"/>
        <pt x="513" y="164" on="0"/>
        <pt x="456" y="80" on="1"/>
        <pt x="427" y="38" on="0"/>
        <pt x="326" y="-12" on="0"/>
        <pt x="260" y="-12" on="1"/>
      </contour>
      <contour>
        <pt x="201" y="365" on="0"/>
        <pt x="131" y="260" on="0"/>
        <pt x="131" y="130" on="0"/>
        <pt x="205" y="37" on="0"/>
        <pt x="268" y="37" on="1"/>
        <pt x="425" y="37" on="0"/>
        <pt x="425" y="311" on="1"/>
        <pt x="404" y="332" on="0"/>
        <pt x="323" y="365" on="0"/>
      </contour>
    </TTGlyph>
    <TTGlyph name="exclam" xMin="72" yMin="-12" xMax="175" yMax="655">
      <contour>
        <pt x="99" y="-12" on="0"/>
        <pt x="72" y="15" on="0"/>
        <pt x="72" y="60" on="0"/>
        <pt x="103" y="90" on="0"/>
        <pt x="123" y="90" on="1"/>
        <pt x="175" y="90" on="0"/>
        <pt x="175" y="39" on="1"/>
        <pt x="175" y="18" on="0"/>
        <pt x="144" y="-12" on="0"/>
      </contour>
      <contour>
        <pt x="73" y="587" on="1"/>
        <pt x="73" y="655" on="0"/>
        <pt x="173" y="655" on="0"/>
        <pt x="173" y="587" on="1"/>
        <pt x="173" y="560" on="0"/>
        <pt x="147" y="185" on="1"/>
        <pt x="137" y="178" on="0"/>
        <pt x="109" y="178" on="0"/>
        <pt x="99" y="185" on="1"/>
        <pt x="73" y="560" on="0"/>
      </contour>
    </TTGlyph>
    <TTGlyph name="exclamdown" xMin="60" yMin="-183" xMax="163" yMax="484">
      <contour>
        <pt x="60" y="433" on="1"/>
        <pt x="60" y="454" on="0"/>
        <pt x="91" y="484" on="0"/>
        <pt x="136" y="484" on="0"/>
        <pt x="163" y="457" on="0"/>
        <pt x="163" y="412" on="0"/>
        <pt x="132" y="382" on="0"/>
        <pt x="112" y="382" on="1"/>
        <pt x="60" y="382" on="0"/>
      </contour>
      <contour>
        <pt x="62" y="-115" on="1"/>
        <pt x="62" y="-88" on="0"/>
        <pt x="88" y="287" on="1"/>
        <pt x="98" y="294" on="0"/>
        <pt x="126" y="294" on="0"/>
        <pt x="136" y="287" on="1"/>
        <pt x="162" y="-88" on="0"/>
        <pt x="162" y="-115" on="1"/>
        <pt x="162" y="-183" on="0"/>
        <pt x="62" y="-183" on="0"/>
      </contour>
    </TTGlyph>
    <TTGlyph name="f" xMin="26" yMin="0" xMax="391" yMax="734">
      <contour>
        <pt x="26" y="0" on="1"/>
        <pt x="26" y="33" on="0"/>
        <pt x="42" y="39" on="1"/>
        <pt x="98" y="62" on="1"/>
        <pt x="98" y="397" on="1"/>
        <pt x="35" y="401" on="1"/>
        <pt x="35" y="436" on="0"/>
        <pt x="54" y="445" on="1"/>
        <pt x="98" y="449" on="1"/>
        <pt x="98" y="512" on="0"/>
        <pt x="164" y="644" on="0"/>
        <pt x="274" y="734" on="0"/>
        <pt x="331" y="734" on="1"/>
        <pt x="360" y="734" on="0"/>
        <pt x="391" y="702" on="0"/>
        <pt x="391" y="658" on="0"/>
        <pt x="379" y="642" on="1"/>
        <pt x="323" y="642" on="1"/>
        <pt x="249" y="642" on="0"/>
        <pt x="231" y="635" on="1"/>
        <pt x="191" y="620" on="0"/>
        <pt x="183" y="548" on="1"/>
        <pt x="180" y="523" on="0"/>
        <pt x="180" y="488" on="1"/>
        <pt x="180" y="453" on="1"/>
        <pt x="311" y="462" on="1"/>
        <pt x="320" y="452" on="0"/>
        <pt x="320" y="420" on="0"/>
        <pt x="282" y="390" on="0"/>
        <pt x="243" y="390" on="1"/>
        <pt x="180" y="393" on="1"/>
        <pt x="180" y="67" on="1"/>
        <pt x="272" y="46" on="1"/>
        <pt x="272" y="26" on="0"/>
        <pt x="264" y="8" on="0"/>
        <pt x="253" y="0" on="1"/>
      </contour>
    </TTGlyph>
    <TTGlyph name="figuredash" xMin="59" yMin="218" xMax="302" yMax="304">
      <contour>
        <pt x="249" y="220" on="1"/>
        <pt x="138" y="222" on="1"/>
        <pt x="95" y="222" on="0"/>
        <pt x="62" y="218" on="1"/>
        <pt x="59" y="223" on="0"/>
        <pt x="59" y="237" on="1"/>
        <pt x="59" y="248" on="1"/>
        <pt x="59" y="302" on="0"/>
        <pt x="112" y="302" on="1"/>
        <pt x="223" y="300" on="1"/>
        <pt x="266" y="300" on="0"/>
        <pt x="299" y="304" on="1"/>
        <pt x="302" y="289" on="0"/>
        <pt x="302" y="285" on="1"/>
        <pt x="302" y="274" on="1"/>
        <pt x="302" y="220" on="0"/>
      </contour>
    </TTGlyph>
    <TTGlyph name="five" xMin="39" yMin="-12" xMax="483" yMax="641">
      <contour>
        <pt x="39" y="127" on="1"/>
        <pt x="39" y="150" on="0"/>
        <pt x="64" y="177" on="0"/>
        <pt x="98" y="177" on="0"/>
        <pt x="125" y="164" on="0"/>
        <pt x="129" y="155" on="1"/>
        <pt x="129" y="91" on="0"/>
        <pt x="191" y="37" on="0"/>
        <pt x="317" y="37" on="0"/>
        <pt x="382" y="118" on="0"/>
        <pt x="384" y="179" on="1"/>
        <pt x="384" y="245" on="0"/>
        <pt x="315" y="339" on="0"/>
        <pt x="249" y="339" on="1"/>
        <pt x="156" y="339" on="0"/>
        <pt x="91" y="289" on="1"/>
        <pt x="80" y="294" on="0"/>
        <pt x="74" y="310" on="0"/>
        <pt x="74" y="329" on="1"/>
        <pt x="104" y="641" on="1"/>
        <pt x="449" y="641" on="1"/>
        <pt x="426" y="479" on="1"/>
        <pt x="382" y="482" on="0"/>
        <pt x="379" y="500" on="1"/>
        <pt x="364" y="595" on="1"/>
        <pt x="150" y="579" on="1"/>
        <pt x="150" y="359" on="1"/>
        <pt x="214" y="390" on="0"/>
        <pt x="278" y="390" on="1"/>
        <pt x="374" y="390" on="0"/>
        <pt x="483" y="285" on="0"/>
        <pt x="483" y="118" on="0"/>
        <pt x="356" y="-12" on="0"/>
        <pt x="155" y="-12" on="0"/>
        <pt x="39" y="75" on="0"/>
      </contour>
    </TTGlyph>
    <TTGlyph name="florin" xMin="-100" yMin="-200" xMax="404" yMax="734">
      <contour>
        <pt x="-100" y="-168" on="0"/>
        <pt x="-100" y="-124" on="0"/>
        <pt x="-88" y="-108" on="1"/>
        <pt x="-32" y="-108" on="1"/>
        <pt x="42" y="-108" on="0"/>
        <pt x="62" y="-100" on="1"/>
        <pt x="103" y="-83" on="0"/>
        <pt x="109" y="-3" on="1"/>
        <pt x="111" y="19" on="0"/>
        <pt x="111" y="46" on="1"/>
        <pt x="111" y="274" on="1"/>
        <pt x="18" y="274" on="1"/>
        <pt x="18" y="299" on="0"/>
        <pt x="28" y="313" on="1"/>
        <pt x="111" y="313" on="1"/>
        <pt x="111" y="448" on="1"/>
        <pt x="111" y="546" on="0"/>
        <pt x="257" y="734" on="0"/>
        <pt x="344" y="734" on="1"/>
        <pt x="373" y="734" on="0"/>
        <pt x="404" y="702" on="0"/>
        <pt x="404" y="658" on="0"/>
        <pt x="392" y="642" on="1"/>
        <pt x="336" y="642" on="1"/>
        <pt x="262" y="642" on="0"/>
        <pt x="244" y="635" on="1"/>
        <pt x="204" y="620" on="0"/>
        <pt x="196" y="548" on="1"/>
        <pt x="193" y="523" on="0"/>
        <pt x="193" y="488" on="1"/>
        <pt x="193" y="313" on="1"/>
        <pt x="305" y="313" on="1"/>
        <pt x="305" y="284" on="0"/>
        <pt x="295" y="274" on="1"/>
        <pt x="193" y="274" on="1"/>
        <pt x="193" y="86" on="1"/>
        <pt x="193" y="-15" on="0"/>
        <pt x="44" y="-200" on="0"/>
        <pt x="-40" y="-200" on="1"/>
        <pt x="-69" y="-200" on="0"/>
      </contour>
    </TTGlyph>
    <TTGlyph name="four" xMin="10" yMin="0" xMax="485" yMax="655">
      <contour>
        <pt x="10" y="222" on="1"/>
        <pt x="336" y="655" on="1"/>
        <pt x="395" y="655" on="0"/>
        <pt x="395" y="602" on="1"/>
        <pt x="395" y="217" on="1"/>
        <pt x="459" y="217" on="1"/>
        <pt x="459" y="160" on="1"/>
        <pt x="395" y="160" on="1"/>
        <pt x="395" y="67" on="1"/>
        <pt x="485" y="46" on="1"/>
        <pt x="485" y="26" on="0"/>
        <pt x="477" y="8" on="0"/>
        <pt x="466" y="0" on="1"/>
        <pt x="217" y="0" on="1"/>
        <pt x="217" y="32" on="0"/>
        <pt x="233" y="39" on="1"/>
        <pt x="309" y="62" on="1"/>
        <pt x="309" y="160" on="1"/>
        <pt x="36" y="160" on="1"/>
        <pt x="21" y="171" on="0"/>
        <pt x="10" y="196" on="0"/>
      </contour>
      <contour>
        <pt x="78" y="217" on="1"/>
        <pt x="309" y="217" on="1"/>
        <pt x="309" y="533" on="1"/>
      </contour>
    </TTGlyph>
    <TTGlyph name="fraction" xMin="2" yMin="-6" xMax="262" yMax="655">
      <contour>
        <pt x="2" y="15" on="1"/>
        <pt x="210" y="655" on="1"/>
        <pt x="225" y="655" on="1"/>
        <pt x="244" y="655" on="0"/>
        <pt x="253" y="646" on="1"/>
        <pt x="262" y="634" on="1"/>
        <pt x="54" y="-6" on="1"/>
        <pt x="39" y="-6" on="1"/>
        <pt x="18" y="-6" on="0"/>
        <pt x="11" y="4" on="1"/>
      </contour>
    </TTGlyph>
    <TTGlyph name="g" xMin="25" yMin="-270" xMax="488" yMax="462">
      <contour>
        <pt x="25" y="-135" on="1"/>
        <pt x="25" y="-110" on="0"/>
        <pt x="55" y="-79" on="0"/>
        <pt x="107" y="-79" on="0"/>
        <pt x="124" y="-94" on="1"/>
        <pt x="124" y="-168" on="0"/>
        <pt x="183" y="-230" on="0"/>
        <pt x="314" y="-230" on="0"/>
        <pt x="397" y="-162" on="0"/>
        <pt x="397" y="-88" on="0"/>
        <pt x="374" y="-55" on="0"/>
        <pt x="327" y="-45" on="0"/>
        <pt x="302" y="-44" on="1"/>
        <pt x="104" y="-36" on="0"/>
        <pt x="104" y="37" on="1"/>
        <pt x="104" y="65" on="0"/>
        <pt x="137" y="116" on="0"/>
        <pt x="158" y="132" on="1"/>
        <pt x="39" y="161" on="0"/>
        <pt x="39" y="286" on="1"/>
        <pt x="39" y="359" on="0"/>
        <pt x="153" y="462" on="0"/>
        <pt x="240" y="462" on="1"/>
        <pt x="307" y="462" on="0"/>
        <pt x="351" y="439" on="1"/>
        <pt x="479" y="451" on="1"/>
        <pt x="488" y="440" on="0"/>
        <pt x="488" y="429" on="1"/>
        <pt x="488" y="382" on="0"/>
        <pt x="412" y="382" on="1"/>
        <pt x="433" y="346" on="0"/>
        <pt x="433" y="293" on="1"/>
        <pt x="433" y="224" on="0"/>
        <pt x="313" y="125" on="0"/>
        <pt x="231" y="125" on="1"/>
        <pt x="206" y="125" on="1"/>
        <pt x="187" y="99" on="0"/>
        <pt x="187" y="73" on="1"/>
        <pt x="187" y="59" on="0"/>
        <pt x="210" y="48" on="0"/>
        <pt x="226" y="44" on="0"/>
        <pt x="249" y="40" on="0"/>
        <pt x="265" y="39" on="0"/>
        <pt x="289" y="37" on="0"/>
        <pt x="334" y="34" on="0"/>
        <pt x="376" y="28" on="0"/>
        <pt x="435" y="12" on="0"/>
        <pt x="449" y="-1" on="1"/>
        <pt x="485" y="-34" on="0"/>
        <pt x="485" y="-94" on="1"/>
        <pt x="485" y="-174" on="0"/>
        <pt x="350" y="-270" on="0"/>
        <pt x="146" y="-270" on="0"/>
        <pt x="25" y="-186" on="0"/>
      </contour>
      <contour>
        <pt x="125" y="293" on="1"/>
        <pt x="125" y="237" on="0"/>
        <pt x="182" y="169" on="0"/>
        <pt x="291" y="169" on="0"/>
        <pt x="346" y="235" on="0"/>
        <pt x="346" y="351" on="0"/>
        <pt x="286" y="420" on="0"/>
        <pt x="233" y="420" on="1"/>
        <pt x="125" y="420" on="0"/>
      </contour>
    </TTGlyph>
    <TTGlyph name="germandbls" xMin="26" yMin="-12" xMax="581" yMax="734">
      <contour>
        <pt x="26" y="0" on="1"/>
        <pt x="26" y="33" on="0"/>
        <pt x="42" y="39" on="1"/>
        <pt x="98" y="62" on="1"/>
        <pt x="98" y="397" on="1"/>
        <pt x="35" y="401" on="1"/>
        <pt x="35" y="437" on="0"/>
        <pt x="54" y="446" on="1"/>
        <pt x="98" y="448" on="1"/>
        <pt x="98" y="516" on="0"/>
        <pt x="146" y="643" on="0"/>
        <pt x="255" y="734" on="0"/>
        <pt x="426" y="734" on="0"/>
        <pt x="517" y="643" on="0"/>
        <pt x="517" y="575" on="1"/>
        <pt x="517" y="535" on="0"/>
        <pt x="483" y="476" on="0"/>
        <pt x="436" y="444" on="0"/>
        <pt x="412" y="430" on="1"/>
        <pt x="354" y="398" on="0"/>
        <pt x="354" y="365" on="1"/>
        <pt x="354" y="341" on="0"/>
        <pt x="401" y="304" on="0"/>
        <pt x="467" y="274" on="0"/>
        <pt x="534" y="238" on="0"/>
        <pt x="581" y="171" on="0"/>
        <pt x="581" y="68" on="0"/>
        <pt x="488" y="-12" on="0"/>
        <pt x="342" y="-12" on="0"/>
        <pt x="240" y="50" on="0"/>
        <pt x="240" y="102" on="1"/>
        <pt x="240" y="122" on="0"/>
        <pt x="265" y="144" on="0"/>
        <pt x="308" y="144" on="0"/>
        <pt x="328" y="124" on="1"/>
        <pt x="328" y="68" on="0"/>
        <pt x="372" y="29" on="0"/>
        <pt x="448" y="29" on="0"/>
        <pt x="494" y="75" on="0"/>
        <pt x="494" y="144" on="0"/>
        <pt x="446" y="189" on="0"/>
        <pt x="378" y="221" on="0"/>
        <pt x="311" y="256" on="0"/>
        <pt x="263" y="314" on="0"/>
        <pt x="263" y="394" on="0"/>
        <pt x="297" y="448" on="0"/>
        <pt x="322" y="462" on="1"/>
        <pt x="371" y="490" on="1"/>
        <pt x="430" y="523" on="0"/>
        <pt x="430" y="580" on="1"/>
        <pt x="430" y="621" on="0"/>
        <pt x="371" y="681" on="0"/>
        <pt x="252" y="681" on="0"/>
        <pt x="180" y="601" on="0"/>
        <pt x="180" y="498" on="1"/>
        <pt x="180" y="0" on="1"/>
      </contour>
    </TTGlyph>
    <TTGlyph name="grave" xMin="97" yMin="518" xMax="323" yMax="715">
      <contour>
        <pt x="100" y="658" on="1"/>
        <pt x="97" y="665" on="0"/>
        <pt x="97" y="687" on="0"/>
        <pt x="125" y="715" on="0"/>
        <pt x="150" y="715" on="0"/>
        <pt x="159" y="710" on="1"/>
        <pt x="176" y="702" on="0"/>
        <pt x="213" y="660" on="1"/>
        <pt x="323" y="540" on="1"/>
        <pt x="323" y="523" on="0"/>
        <pt x="302" y="518" on="1"/>
        <pt x="246" y="554" on="1"/>
        <pt x="162" y="606" on="1"/>
        <pt x="111" y="639" on="0"/>
      </contour>
    </TTGlyph>
    <TTGlyph name="greater" xMin="56" yMin="62" xMax="497" yMax="472">
      <contour>
        <pt x="59" y="62" on="1"/>
        <pt x="56" y="70" on="0"/>
        <pt x="56" y="116" on="0"/>
        <pt x="70" y="127" on="1"/>
        <pt x="401" y="267" on="1"/>
        <pt x="70" y="407" on="1"/>
        <pt x="56" y="418" on="0"/>
        <pt x="56" y="464" on="0"/>
        <pt x="59" y="472" on="1"/>
        <pt x="482" y="301" on="1"/>
        <pt x="497" y="286" on="0"/>
        <pt x="497" y="248" on="0"/>
        <pt x="482" y="233" on="1"/>
      </contour>
    </TTGlyph>
    <TTGlyph name="greaterequal" xMin="70" yMin="31" xMax="511" yMax="572">
      <contour>
        <pt x="73" y="31" on="1"/>
        <pt x="70" y="38" on="0"/>
        <pt x="70" y="82" on="0"/>
        <pt x="84" y="93" on="1"/>
        <pt x="503" y="93" on="1"/>
        <pt x="506" y="86" on="0"/>
        <pt x="506" y="42" on="0"/>
        <pt x="492" y="31" on="1"/>
      </contour>
      <contour>
        <pt x="73" y="162" on="1"/>
        <pt x="70" y="170" on="0"/>
        <pt x="70" y="216" on="0"/>
        <pt x="84" y="227" on="1"/>
        <pt x="415" y="367" on="1"/>
        <pt x="84" y="507" on="1"/>
        <pt x="70" y="518" on="0"/>
        <pt x="70" y="564" on="0"/>
        <pt x="73" y="572" on="1"/>
        <pt x="496" y="401" on="1"/>
        <pt x="511" y="386" on="0"/>
        <pt x="511" y="348" on="0"/>
        <pt x="496" y="333" on="1"/>
      </contour>
    </TTGlyph>
    <TTGlyph name="guillemotleft" xMin="40" yMin="85" xMax="406" yMax="449">
      <contour>
        <pt x="40" y="248" on="0"/>
        <pt x="40" y="286" on="0"/>
        <pt x="55" y="301" on="1"/>
        <pt x="199" y="449" on="1"/>
        <pt x="223" y="432" on="0"/>
        <pt x="223" y="404" on="1"/>
        <pt x="121" y="267" on="1"/>
        <pt x="223" y="130" on="1"/>
        <pt x="223" y="102" on="0"/>
        <pt x="199" y="85" on="1"/>
        <pt x="55" y="233" on="1"/>
      </contour>
      <contour>
        <pt x="223" y="248" on="0"/>
        <pt x="223" y="286" on="0"/>
        <pt x="238" y="301" on="1"/>
        <pt x="382" y="449" on="1"/>
        <pt x="406" y="432" on="0"/>
        <pt x="406" y="404" on="1"/>
        <pt x="304" y="267" on="1"/>
        <pt x="406" y="130" on="1"/>
        <pt x="406" y="102" on="0"/>
        <pt x="382" y="85" on="1"/>
        <pt x="238" y="233" on="1"/>
      </contour>
    </TTGlyph>
    <TTGlyph name="guillemotright" xMin="49" yMin="85" xMax="415" yMax="449">
      <contour>
        <pt x="49" y="130" on="1"/>
        <pt x="151" y="267" on="1"/>
        <pt x="49" y="404" on="1"/>
        <pt x="49" y="432" on="0"/>
        <pt x="73" y="449" on="1"/>
        <pt x="217" y="301" on="1"/>
        <pt x="232" y="286" on="0"/>
        <pt x="232" y="248" on="0"/>
        <pt x="217" y="233" on="1"/>
        <pt x="73" y="85" on="1"/>
        <pt x="49" y="102" on="0"/>
      </contour>
      <contour>
        <pt x="232" y="130" on="1"/>
        <pt x="334" y="267" on="1"/>
        <pt x="232" y="404" on="1"/>
        <pt x="232" y="432" on="0"/>
        <pt x="256" y="449" on="1"/>
        <pt x="400" y="301" on="1"/>
        <pt x="415" y="286" on="0"/>
        <pt x="415" y="248" on="0"/>
        <pt x="400" y="233" on="1"/>
        <pt x="256" y="85" on="1"/>
        <pt x="232" y="102" on="0"/>
      </contour>
    </TTGlyph>
    <TTGlyph name="guilsinglleft" xMin="40" yMin="86" xMax="223" yMax="449">
      <contour>
        <pt x="55" y="234" on="1"/>
        <pt x="40" y="249" on="0"/>
        <pt x="40" y="286" on="0"/>
        <pt x="55" y="301" on="1"/>
        <pt x="199" y="449" on="1"/>
        <pt x="215" y="438" on="0"/>
        <pt x="223" y="421" on="0"/>
        <pt x="223" y="404" on="1"/>
        <pt x="121" y="267" on="1"/>
        <pt x="223" y="131" on="1"/>
        <pt x="223" y="115" on="0"/>
        <pt x="215" y="97" on="0"/>
        <pt x="199" y="86" on="1"/>
      </contour>
    </TTGlyph>
    <TTGlyph name="guilsinglright" xMin="49" yMin="86" xMax="232" yMax="449">
      <contour>
        <pt x="49" y="131" on="1"/>
        <pt x="151" y="267" on="1"/>
        <pt x="49" y="404" on="1"/>
        <pt x="49" y="421" on="0"/>
        <pt x="57" y="438" on="0"/>
        <pt x="73" y="449" on="1"/>
        <pt x="217" y="301" on="1"/>
        <pt x="232" y="286" on="0"/>
        <pt x="232" y="249" on="0"/>
        <pt x="217" y="234" on="1"/>
        <pt x="73" y="86" on="1"/>
        <pt x="57" y="97" on="0"/>
        <pt x="49" y="115" on="0"/>
      </contour>
    </TTGlyph>
    <TTGlyph name="h" xMin="20" yMin="0" xMax="563" yMax="734">
      <contour>
        <pt x="20" y="0" on="1"/>
        <pt x="20" y="33" on="0"/>
        <pt x="36" y="39" on="1"/>
        <pt x="92" y="62" on="1"/>
        <pt x="92" y="664" on="1"/>
        <pt x="36" y="687" on="1"/>
        <pt x="20" y="693" on="0"/>
        <pt x="20" y="726" on="1"/>
        <pt x="88" y="734" on="0"/>
        <pt x="121" y="734" on="1"/>
        <pt x="174" y="734" on="0"/>
        <pt x="174" y="680" on="1"/>
        <pt x="174" y="363" on="1"/>
        <pt x="273" y="462" on="0"/>
        <pt x="352" y="462" on="1"/>
        <pt x="481" y="462" on="0"/>
        <pt x="481" y="314" on="1"/>
        <pt x="481" y="67" on="1"/>
        <pt x="563" y="46" on="1"/>
        <pt x="563" y="26" on="0"/>
        <pt x="555" y="8" on="0"/>
        <pt x="544" y="0" on="1"/>
        <pt x="327" y="0" on="1"/>
        <pt x="327" y="33" on="0"/>
        <pt x="343" y="39" on="1"/>
        <pt x="399" y="62" on="1"/>
        <pt x="399" y="299" on="1"/>
        <pt x="399" y="391" on="0"/>
        <pt x="312" y="391" on="1"/>
        <pt x="252" y="391" on="0"/>
        <pt x="174" y="322" on="1"/>
        <pt x="174" y="67" on="1"/>
        <pt x="256" y="46" on="1"/>
        <pt x="256" y="26" on="0"/>
        <pt x="248" y="8" on="0"/>
        <pt x="237" y="0" on="1"/>
      </contour>
    </TTGlyph>
    <TTGlyph name="hungarumlaut" xMin="20" yMin="518" xMax="415" yMax="715">
      <contour>
        <pt x="20" y="540" on="1"/>
        <pt x="126" y="657" on="1"/>
        <pt x="168" y="702" on="0"/>
        <pt x="193" y="715" on="0"/>
        <pt x="218" y="715" on="0"/>
        <pt x="246" y="687" on="0"/>
        <pt x="246" y="665" on="0"/>
        <pt x="239" y="651" on="0"/>
        <pt x="230" y="642" on="1"/>
        <pt x="216" y="630" on="0"/>
        <pt x="180" y="606" on="1"/>
        <pt x="41" y="518" on="1"/>
        <pt x="20" y="523" on="0"/>
      </contour>
      <contour>
        <pt x="189" y="540" on="1"/>
        <pt x="296" y="657" on="1"/>
        <pt x="334" y="700" on="0"/>
        <pt x="362" y="715" on="0"/>
        <pt x="387" y="715" on="0"/>
        <pt x="415" y="687" on="0"/>
        <pt x="415" y="665" on="0"/>
        <pt x="408" y="651" on="0"/>
        <pt x="399" y="642" on="1"/>
        <pt x="388" y="632" on="0"/>
        <pt x="350" y="606" on="1"/>
        <pt x="210" y="518" on="1"/>
        <pt x="189" y="523" on="0"/>
      </contour>
    </TTGlyph>
    <TTGlyph name="hyphen" xMin="59" yMin="218" xMax="302" yMax="304">
      <contour>
        <pt x="249" y="220" on="1"/>
        <pt x="138" y="222" on="1"/>
        <pt x="95" y="222" on="0"/>
        <pt x="62" y="218" on="1"/>
        <pt x="59" y="223" on="0"/>
        <pt x="59" y="237" on="1"/>
        <pt x="59" y="248" on="1"/>
        <pt x="59" y="302" on="0"/>
        <pt x="112" y="302" on="1"/>
        <pt x="223" y="300" on="1"/>
        <pt x="266" y="300" on="0"/>
        <pt x="299" y="304" on="1"/>
        <pt x="302" y="289" on="0"/>
        <pt x="302" y="285" on="1"/>
        <pt x="302" y="274" on="1"/>
        <pt x="302" y="220" on="0"/>
      </contour>
    </TTGlyph>
    <TTGlyph name="i" xMin="29" yMin="0" xMax="265" yMax="655">
      <contour>
        <pt x="29" y="0" on="1"/>
        <pt x="29" y="33" on="0"/>
        <pt x="45" y="39" on="1"/>
        <pt x="101" y="62" on="1"/>
        <pt x="101" y="381" on="1"/>
        <pt x="45" y="404" on="1"/>
        <pt x="29" y="410" on="0"/>
        <pt x="29" y="443" on="1"/>
        <pt x="97" y="451" on="0"/>
        <pt x="130" y="451" on="1"/>
        <pt x="183" y="451" on="0"/>
        <pt x="183" y="397" on="1"/>
        <pt x="183" y="67" on="1"/>
        <pt x="265" y="46" on="1"/>
        <pt x="265" y="26" on="0"/>
        <pt x="257" y="8" on="0"/>
        <pt x="246" y="0" on="1"/>
      </contour>
      <contour>
        <pt x="107" y="547" on="0"/>
        <pt x="79" y="576" on="0"/>
        <pt x="79" y="624" on="0"/>
        <pt x="111" y="655" on="0"/>
        <pt x="159" y="655" on="0"/>
        <pt x="188" y="626" on="0"/>
        <pt x="188" y="578" on="0"/>
        <pt x="155" y="547" on="0"/>
      </contour>
    </TTGlyph>
    <TTGlyph name="iacute" xMin="29" yMin="0" xMax="271" yMax="713">
      <contour>
        <pt x="29" y="0" on="1"/>
        <pt x="29" y="33" on="0"/>
        <pt x="45" y="39" on="1"/>
        <pt x="101" y="62" on="1"/>
        <pt x="101" y="381" on="1"/>
        <pt x="45" y="404" on="1"/>
        <pt x="29" y="410" on="0"/>
        <pt x="29" y="443" on="1"/>
        <pt x="97" y="451" on="0"/>
        <pt x="130" y="451" on="1"/>
        <pt x="183" y="451" on="0"/>
        <pt x="183" y="397" on="1"/>
        <pt x="183" y="67" on="1"/>
        <pt x="265" y="46" on="1"/>
        <pt x="265" y="26" on="0"/>
        <pt x="257" y="8" on="0"/>
        <pt x="246" y="0" on="1"/>
      </contour>
      <contour>
        <pt x="45" y="538" on="1"/>
        <pt x="152" y="655" on="1"/>
        <pt x="190" y="698" on="0"/>
        <pt x="218" y="713" on="0"/>
        <pt x="243" y="713" on="0"/>
        <pt x="271" y="685" on="0"/>
        <pt x="271" y="663" on="0"/>
        <pt x="264" y="649" on="0"/>
        <pt x="255" y="640" on="1"/>
        <pt x="244" y="630" on="0"/>
        <pt x="206" y="604" on="1"/>
        <pt x="66" y="516" on="1"/>
        <pt x="45" y="521" on="0"/>
      </contour>
    </TTGlyph>
    <TTGlyph name="icircumflex" xMin="-32" yMin="0" xMax="274" yMax="715">
      <contour>
        <pt x="-32" y="540" on="1"/>
        <pt x="79" y="688" on="1"/>
        <pt x="99" y="715" on="0"/>
        <pt x="144" y="715" on="0"/>
        <pt x="163" y="688" on="1"/>
        <pt x="274" y="540" on="1"/>
        <pt x="274" y="530" on="0"/>
        <pt x="258" y="518" on="0"/>
        <pt x="253" y="518" on="1"/>
        <pt x="121" y="627" on="1"/>
        <pt x="-11" y="518" on="1"/>
        <pt x="-16" y="518" on="0"/>
        <pt x="-32" y="530" on="0"/>
      </contour>
      <contour>
        <pt x="29" y="0" on="1"/>
        <pt x="29" y="33" on="0"/>
        <pt x="45" y="39" on="1"/>
        <pt x="101" y="62" on="1"/>
        <pt x="101" y="381" on="1"/>
        <pt x="45" y="404" on="1"/>
        <pt x="29" y="410" on="0"/>
        <pt x="29" y="443" on="1"/>
        <pt x="97" y="451" on="0"/>
        <pt x="130" y="451" on="1"/>
        <pt x="183" y="451" on="0"/>
        <pt x="183" y="397" on="1"/>
        <pt x="183" y="67" on="1"/>
        <pt x="265" y="46" on="1"/>
        <pt x="265" y="26" on="0"/>
        <pt x="257" y="8" on="0"/>
        <pt x="246" y="0" on="1"/>
      </contour>
    </TTGlyph>
    <TTGlyph name="idieresis" xMin="-10" yMin="0" xMax="270" yMax="650">
      <contour>
        <pt x="-10" y="604" on="1"/>
        <pt x="-10" y="622" on="0"/>
        <pt x="18" y="650" on="0"/>
        <pt x="59" y="650" on="0"/>
        <pt x="83" y="625" on="0"/>
        <pt x="83" y="586" on="0"/>
        <pt x="54" y="558" on="0"/>
        <pt x="36" y="558" on="1"/>
        <pt x="-10" y="558" on="0"/>
      </contour>
      <contour>
        <pt x="29" y="0" on="1"/>
        <pt x="29" y="33" on="0"/>
        <pt x="45" y="39" on="1"/>
        <pt x="101" y="62" on="1"/>
        <pt x="101" y="381" on="1"/>
        <pt x="45" y="404" on="1"/>
        <pt x="29" y="410" on="0"/>
        <pt x="29" y="443" on="1"/>
        <pt x="97" y="451" on="0"/>
        <pt x="130" y="451" on="1"/>
        <pt x="183" y="451" on="0"/>
        <pt x="183" y="397" on="1"/>
        <pt x="183" y="67" on="1"/>
        <pt x="265" y="46" on="1"/>
        <pt x="265" y="26" on="0"/>
        <pt x="257" y="8" on="0"/>
        <pt x="246" y="0" on="1"/>
      </contour>
      <contour>
        <pt x="177" y="604" on="1"/>
        <pt x="177" y="622" on="0"/>
        <pt x="205" y="650" on="0"/>
        <pt x="246" y="650" on="0"/>
        <pt x="270" y="625" on="0"/>
        <pt x="270" y="586" on="0"/>
        <pt x="241" y="558" on="0"/>
        <pt x="223" y="558" on="1"/>
        <pt x="177" y="558" on="0"/>
      </contour>
    </TTGlyph>
    <TTGlyph name="igrave" xMin="-16" yMin="0" xMax="265" yMax="715">
      <contour>
        <pt x="-12" y="658" on="1"/>
        <pt x="-16" y="665" on="0"/>
        <pt x="-16" y="687" on="0"/>
        <pt x="12" y="715" on="0"/>
        <pt x="37" y="715" on="0"/>
        <pt x="46" y="710" on="1"/>
        <pt x="63" y="702" on="0"/>
        <pt x="100" y="660" on="1"/>
        <pt x="210" y="540" on="1"/>
        <pt x="210" y="523" on="0"/>
        <pt x="189" y="518" on="1"/>
        <pt x="49" y="606" on="1"/>
        <pt x="-2" y="639" on="0"/>
      </contour>
      <contour>
        <pt x="29" y="0" on="1"/>
        <pt x="29" y="33" on="0"/>
        <pt x="45" y="39" on="1"/>
        <pt x="101" y="62" on="1"/>
        <pt x="101" y="381" on="1"/>
        <pt x="45" y="404" on="1"/>
        <pt x="29" y="410" on="0"/>
        <pt x="29" y="443" on="1"/>
        <pt x="97" y="451" on="0"/>
        <pt x="130" y="451" on="1"/>
        <pt x="183" y="451" on="0"/>
        <pt x="183" y="397" on="1"/>
        <pt x="183" y="67" on="1"/>
        <pt x="265" y="46" on="1"/>
        <pt x="265" y="26" on="0"/>
        <pt x="257" y="8" on="0"/>
        <pt x="246" y="0" on="1"/>
      </contour>
    </TTGlyph>
    <TTGlyph name="infinity" xMin="59" yMin="121" xMax="691" yMax="462">
      <contour>
        <pt x="59" y="212" on="0"/>
        <pt x="59" y="372" on="0"/>
        <pt x="145" y="462" on="0"/>
        <pt x="212" y="462" on="1"/>
        <pt x="299" y="462" on="0"/>
        <pt x="362" y="363" on="1"/>
        <pt x="402" y="458" on="0"/>
        <pt x="510" y="462" on="1"/>
        <pt x="584" y="462" on="0"/>
        <pt x="691" y="371" on="0"/>
        <pt x="691" y="209" on="0"/>
        <pt x="605" y="121" on="0"/>
        <pt x="538" y="121" on="1"/>
        <pt x="451" y="121" on="0"/>
        <pt x="388" y="220" on="1"/>
        <pt x="348" y="125" on="0"/>
        <pt x="240" y="121" on="1"/>
        <pt x="166" y="121" on="0"/>
      </contour>
      <contour>
        <pt x="167" y="410" on="0"/>
        <pt x="109" y="347" on="0"/>
        <pt x="109" y="236" on="0"/>
        <pt x="167" y="172" on="0"/>
        <pt x="269" y="172" on="0"/>
        <pt x="320" y="242" on="0"/>
        <pt x="348" y="325" on="1"/>
        <pt x="338" y="341" on="0"/>
        <pt x="313" y="372" on="0"/>
        <pt x="255" y="410" on="0"/>
        <pt x="225" y="410" on="1"/>
      </contour>
      <contour>
        <pt x="402" y="258" on="1"/>
        <pt x="411" y="243" on="0"/>
        <pt x="436" y="212" on="0"/>
        <pt x="495" y="173" on="0"/>
        <pt x="525" y="173" on="1"/>
        <pt x="583" y="173" on="0"/>
        <pt x="641" y="236" on="0"/>
        <pt x="641" y="347" on="0"/>
        <pt x="583" y="411" on="0"/>
        <pt x="479" y="411" on="0"/>
        <pt x="431" y="343" on="0"/>
      </contour>
    </TTGlyph>
    <TTGlyph name="integral" xMin="-13" yMin="-270" xMax="431" yMax="734">
      <contour>
        <pt x="-13" y="-238" on="0"/>
        <pt x="-13" y="-194" on="0"/>
        <pt x="-1" y="-178" on="1"/>
        <pt x="55" y="-188" on="1"/>
        <pt x="75" y="-192" on="0"/>
        <pt x="92" y="-192" on="1"/>
        <pt x="134" y="-192" on="0"/>
        <pt x="168" y="-121" on="0"/>
        <pt x="168" y="-24" on="1"/>
        <pt x="168" y="448" on="1"/>
        <pt x="168" y="513" on="0"/>
        <pt x="219" y="644" on="0"/>
        <pt x="314" y="734" on="0"/>
        <pt x="371" y="734" on="1"/>
        <pt x="400" y="734" on="0"/>
        <pt x="431" y="702" on="0"/>
        <pt x="431" y="658" on="0"/>
        <pt x="419" y="642" on="1"/>
        <pt x="363" y="652" on="1"/>
        <pt x="343" y="656" on="0"/>
        <pt x="326" y="656" on="1"/>
        <pt x="284" y="656" on="0"/>
        <pt x="250" y="585" on="0"/>
        <pt x="250" y="488" on="1"/>
        <pt x="250" y="16" on="1"/>
        <pt x="250" y="-89" on="0"/>
        <pt x="129" y="-270" on="0"/>
        <pt x="47" y="-270" on="1"/>
        <pt x="18" y="-270" on="0"/>
      </contour>
    </TTGlyph>
    <TTGlyph name="j" xMin="-65" yMin="-270" xMax="178" yMax="655">
      <contour>
        <pt x="-32" y="-270" on="0"/>
        <pt x="-65" y="-245" on="0"/>
        <pt x="-65" y="-208" on="0"/>
        <pt x="-53" y="-192" on="1"/>
        <pt x="17" y="-192" on="0"/>
        <pt x="48" y="-176" on="1"/>
        <pt x="66" y="-167" on="0"/>
        <pt x="74" y="-146" on="1"/>
        <pt x="91" y="-105" on="0"/>
        <pt x="91" y="-13" on="1"/>
        <pt x="91" y="381" on="1"/>
        <pt x="35" y="404" on="1"/>
        <pt x="19" y="410" on="0"/>
        <pt x="19" y="443" on="1"/>
        <pt x="87" y="451" on="0"/>
        <pt x="120" y="451" on="1"/>
        <pt x="173" y="451" on="0"/>
        <pt x="173" y="397" on="1"/>
        <pt x="173" y="82" on="1"/>
        <pt x="173" y="12" on="0"/>
        <pt x="119" y="-153" on="0"/>
        <pt x="32" y="-270" on="0"/>
        <pt x="-10" y="-270" on="1"/>
      </contour>
      <contour>
        <pt x="98" y="547" on="0"/>
        <pt x="70" y="576" on="0"/>
        <pt x="70" y="624" on="0"/>
        <pt x="102" y="655" on="0"/>
        <pt x="150" y="655" on="0"/>
        <pt x="178" y="626" on="0"/>
        <pt x="178" y="578" on="0"/>
        <pt x="146" y="547" on="0"/>
      </contour>
    </TTGlyph>
    <TTGlyph name="k" xMin="20" yMin="-12" xMax="499" yMax="734">
      <contour>
        <pt x="20" y="0" on="1"/>
        <pt x="20" y="33" on="0"/>
        <pt x="36" y="39" on="1"/>
        <pt x="92" y="62" on="1"/>
        <pt x="92" y="664" on="1"/>
        <pt x="36" y="687" on="1"/>
        <pt x="20" y="693" on="0"/>
        <pt x="20" y="726" on="1"/>
        <pt x="88" y="734" on="0"/>
        <pt x="121" y="734" on="1"/>
        <pt x="174" y="734" on="0"/>
        <pt x="174" y="680" on="1"/>
        <pt x="174" y="67" on="1"/>
        <pt x="235" y="46" on="1"/>
        <pt x="235" y="26" on="0"/>
        <pt x="227" y="8" on="0"/>
        <pt x="216" y="0" on="1"/>
      </contour>
      <contour>
        <pt x="184" y="254" on="1"/>
        <pt x="333" y="382" on="1"/>
        <pt x="279" y="397" on="1"/>
        <pt x="279" y="417" on="0"/>
        <pt x="287" y="435" on="0"/>
        <pt x="298" y="443" on="1"/>
        <pt x="467" y="443" on="1"/>
        <pt x="467" y="411" on="0"/>
        <pt x="451" y="404" on="1"/>
        <pt x="411" y="385" on="1"/>
        <pt x="257" y="258" on="1"/>
        <pt x="297" y="194" on="0"/>
        <pt x="435" y="57" on="0"/>
        <pt x="499" y="25" on="1"/>
        <pt x="499" y="13" on="0"/>
        <pt x="473" y="-12" on="0"/>
        <pt x="417" y="-12" on="0"/>
        <pt x="344" y="33" on="0"/>
        <pt x="308" y="78" on="1"/>
        <pt x="247" y="151" on="0"/>
      </contour>
    </TTGlyph>
</ttFont>
